<mxfile host="65bd71144e">
    <diagram id="FKAfOiXnc4GgLeju9pYo" name="第 1 页">
        <mxGraphModel dx="2161" dy="625" grid="0" gridSize="10" guides="1" tooltips="1" connect="1" arrows="1" fold="1" page="0" pageScale="1" pageWidth="827" pageHeight="1169" math="0" shadow="0">
            <root>
                <mxCell id="0"/>
                <mxCell id="1" parent="0"/>
                <mxCell id="6" value="" style="shape=image;verticalLabelPosition=bottom;labelBackgroundColor=default;verticalAlign=top;aspect=fixed;imageAspect=0;image=data:image/png,iVBORw0KGgoAAAANSUhEUgAABTQAAAFHCAIAAAAQjFQlAAAgAElEQVR4AexdCVxM3xd/PzvZhaGoKJQsRSkhRbtQJKUolWQqarQokYwto5IRZZRoQkybFqJsKSplbVVRMigG/cna/L15M9ObmZS0zdT1+X1+vXnvLud+773nnnPPuedCdPAPIAAQAAgABAACAAGAAEAAIAAQAAgABAACAIFORQDq1NpB5QABgABAACAAEAAIAAQAAgABgABAACAAEAAI0IFyDgYBQAAgABAACAAEAAIAAYAAQAAgABAACAAEOhkBoJx3cgeA6gECAAGAAEAAIAAQAAgABAACAAGAAEAAIACUczAGAAIAAYAAQAAgABAACAAEAAIAAYAAQAAg0MkIAOW8kzsAVA8QAAgABAACAAGAAEAAIAAQAAgABAACAAGgnIMxABAACAAEAAIAAYAAQAAgABAACAAEAAIAgU5GACjnndwBoHqAAEAAIAAQAAgABAACAAGAAEAAIAAQAAgA5RyMAYAAQAAgABAACAAEAAIAAYAAQAAgABAACHQyAkA57+QOENzqf/78+eXLlw8fPrx9+7aqqqq8vLyoqOjx48f379/PzMy8efPm1atXExMTY2Jizp8/HxERERoaevz48cDAQAKBsHfvXm9vbw8Pj61btzo6OmKxWCcnJzc3Ny8vr927d+/fv9/Pz49IJIaEhJw6dSoyMvLixYvx8fGXL19OS0tLT0/PysrKy8t7+vRpSUnJixcvqFTqu3fvamtrv337Jrh4AsoBAp2IwLdv3z5//vzx48eamprXr1+/fPmyvLy8pKSkoKDg0aNHubm5WVlZd+7cuXnzZmpq6uXLlxMSEmJjYy9cuHD27NkzZ86EhoaGhIQEBQUdPnz40KFDBw4cwOPx3t7enp6ebm5uOBzO0dFx06ZNDg4Ozs7Orq6uHh4eO3fu3L179759+wgEQkBAwNGjR4ODg0+ePHn69OnIyMioqKiYmJhLly4lJydfu3btxo0b6enp9+7du3///sOHD/Pz84uLi8vKyiorK6lUanV19YcPH/73v/99/fr1169fnQgjqBogABAACAgKAj9+/Kirq6utraXRaG/fvn316lVFRUVpaWlRUdHTp08fPnyYk5Nz9+7d9PT0GzduXL16NTk5+dKlS9HR0VFRUZGRkadPnz558mRwcPDRo0cPHz5MIBD279+Px+N37tz5N5z/4MGDAQEBRCLx+PHjJBIpPDycTCafP38+Ojo6Pj4+KSkpJSXl+vXrt2/fzszMzM7OfvDgwZMnTwoLC0tLS1+8eFFVVfXmzZv3799/+vTpy5cv379/FxTYAZ0AgWYRAMp5sxB1owQ0Gq24uPjOnTtxcXGnT58+cuQIHo93cXHZsGGDsbGxtra2srKyjIyMiIjIwIEDIb7817Nnz+HDh0tISMycOVNVVXXp0qXm5ub29vaenp6+vr7BwcHnzp27fPny/fv3Kyoqvn792o16FzS16yLw69evd+/elZWV5ebmpqWlxcbGksnkkJAQf39/PB6/bds2R0dHKyur1atX6+vrq6urz5kzR1ZWVkJCYtSoUUJCQnw5lf+dqP79+wsLC4uJicnIyCgoKCxcuFBPT2/VqlWWlpb29vZubm4+Pj6HDh06fvz4mTNnoqOjU1JSsrKyiouL37x5Azb4uu4sAS0DCHQ1BGg02vPnzx88eHDz5s34+PizZ8+ePHkyMDBw375927dvd3JysrW1NTMzMzAw0NTUVFFRmTlz5qRJk0RERIYOHdq7d+9/Z7J8mbNnz56DBg3CYDATJ06cPn26srLy4sWLly5damJiYm1tvXnzZg8PDzwe7+/vHxISQiaTY2NjU1NT79+//+zZs5qamh8/fnS18QHaI7AIAOVcYLuu5YS/ffs2Nzc3Pj7+5MmT+/btc3Z2NjMz09LSkpOTExUV7du3b9P8dtCgQaKiolOnTp07d66Ojs7q1avXrl1rbW29adOmzZs3u7i4eHp67tq1a9++fYcOHTpy5EhwcHBYWFhERERUVFRsbGxSUtK1a9du3bp19+7d3NzcJ0+eFBcXl5eXI9uflZWVpaWlBQUFDx8+zM7OvnPnzo0bN1JSUhISEqKjo8+dO3f69GkSiRQUFBQQEODr67tnz56dO3du27YNh8M5ODjY2tpaWlquWbPG0NBw0aJFs2fPlpKSGjVqVLONGjJkiJSU1Ny5c5cvX25jY+Ph4REQEEAmk1NTU4uKij5//txymEEOgEAbIPDr16/Xr18/fvw4LS3t4sWLJBKJQCB4eXk5ODiYm5vr6+svWLBg+vTp48ePHzJkSNMzF/21X79+I0aMGD9+vLS09OzZs1VVVXV1dY2MjNasWbNu3Tpra+uNGzfa29s7OTm5uLhs27bNy8vLx8dn7969vr6+/v7+R44cOXbsGIlEOnXqVERExPnz5ykUSlxcHGLlSEtLa8LKwbbMlJWV8Vpmrl+/jlhm4uPjEcsMmUwODw8/efLk8ePHiURiQEAAgUDYt2/f7t27d+7c6eHh4erq6uzs7ODgYGdnZ2NjY2FhYWZm1voNCCEhobFjx8rIyCCMzsTExM7Ozt3dff/+/cePHz979uyVK1eQ3b26uro26GlQBEAAIAAQYCDw/fv3qqqqhw8fpqamXrhw4cSJEwQCYfv27QjbX7p06YIFC2bMmCEmJjZ06FA0Y2/6uVevXkOGDBk7dqyUlNTMmTPnzp2roaGxfPlyExMTc3NzS0vLDRs2bNq0ydHR0dnZ2c3NzdPTE/Fs2r9/P5dnU3h4eGRkZFRUFGLfTk5Ovnr1KmLfvnv3bk5ODmLfLioqYtu30Zy/uLgYscnfv3//3r17iE3+2rVrly9fvnTpUkxMDOKNdfr0acQbC7HJo72xtm/f7u7ujsPhNm/ejMVibW1t169fv3btWlNT0xUrVmhra8+fP19eXn7y5Mnjxo0bPnx4s0IgGrqBAwciUq6Kioquri6a+R87duzs2bPJyck5OTnPnz8HwiGYsu2KAFDO2xXeTii8uroa0cCDgoI8PDzWrl2rpqYmJSXVv39/NA9iPw8aNGjixIlKSkpLly61srLatm2bn5/fmTNn4uPjb968+eDBg/Ly8vfv3wuus2hdXd3r16+LioqysrKuXr168eLFEydO7NmzZ8uWLaamphoaGjNnzhw7duyfdpGFhYVnzpy5ZMkSOzu7PXv2hIeHp6amFhcXf/nypRN6F1TZJRD4+vVrZWVlbm7ulStXIiIiAgICPD09N2zYYGBgMH/+/ClTpowYMYI9Qxt96Nu37+jRoydPnqyoqKipqblq1aoNGza4uLjs2bPn6NGjiEH4ypUr6enpeXl5xcXFVVVVHz586M6Wgfr6+tra2tevX5eWlj569CgzM/PatWtxcXGRkZHBwcEHDhzw8PDYtGmTqamprq6uiorK1KlTRUREmnUrGDx48MSJE+fMmbNkyRJLS0tXV1dfX9+wsLCEhIR79+6VlpZ++vSpS4xZ0AiAAECgVQh8+PDh2bNnmZmZly5dCgsL8/X1dXV1Xb9+vb6+vrKysqSkZLP6dt++fUeNGjVp0iQFBQUNDY2VK1daW1vjcLjdu3cHBgaGh4dfvHgxOTn51q1b9+/fLygoqKioePfu3ddu7yH448ePDx8+VFVVFRcX5+Xlpaenp6SkxMTEREREBAUF7du3z83NbePGjatXr9bR0UH8Q8eOHdss8xcSEhITE5s9e7a2tra5ubmTk9PevXtDQkKio6Nv375dUFBQU1PTqhEDMndjBIByLsCd//Lly5s3b548edLDw2PVqlXy8vKN2tCGDx8+ffp0PT09W1vb3bt3h4WFJSUlZWdnP3/+HGiY6O5/9+5dYWHhrVu3KBQKkUh0d3c3MzNTVVWdOHFio5uvoqKiCxcutLa23rdv34ULF/Ly8mpra9EFgufujACVSs3JyYmPjz9+/PiOHTusrKx0dHRmzJghLCzcqL4NQVDPnj0xGIysrKyamtqqVauwWKy3tzeRSDx37lxycnJmZmZBQcGrV6/AtO3IcfX9+/fq6uqSkpLs7Oxr165dvHgxJCQE2d1bs2aNlpaWvLz8uHHj+vXr96duHTx48JQpU9TV1c3MzNzc3A4fPnzhwoU7d+48f/4cnJPsyK4EdQEE2hWB//3vf8XFxTdu3IiMjCQQCM7OziYmJqqqqlJSUk1oen379hUVFZ05c6aGhoaJiYmDg4OPj09QUND58+cvX7589+7dgoICKpUK2H679l2jhbOZf05OzrVr1ygUyokTJxC307Vr1+ro6CgoKEhISDRxzLN3795iYmLKysorVqywt7ffu3fvqVOnUlJSnjx58v79+0YrBS8BAnQ6HSjngjEMvn37dv/+/fDwcFdX1xUrVsyYMYOXHYiLiy9evHjDhg0+Pj5hYWFXr14tKCgA6mJbdfDr169zcnJiY2OJRKKbm5uJiYmiouLw4cO5JPIxY8bMnz/f0tJy3759ly5dKi8vbysCQDl8iMDbt2+zsrKioqIOHDhgb29vaGiopKQ0bty4nj17cg0MCIKEhISkpKRUVVVNTU23bNmyZ8+e4OBgZJe9sLAQ7LLzYf+2iKRPnz6VlpbevXuXbRlzcXGxsLDQ1NSUlZXl5RXICBk9erScnJyenp6Njc2uXbvCw8Nv3bpVUVHRoqpBYoAAQKBjEKirqysoKEhOTj527Ji7u/vatWsXL14sIyPzJ7v3yJEjZ8yYoa2tvX79eldX14MHDyKeNXfv3i0tLf348WPHkA1qaVcEvnz5UlFRcf/+fbQ3nK2t7bJlyxQUFERERP777z9ekWDAgAGSkpILFiwwNjZ2cnLy9/ePiYnJy8uj0WjtSi0onP8RAMo5n/ZRUVERhULZtWuXkZGRjIwM16yeOHGilpYWFov18/OLj49/+vQpiGPUWR1ZXV2dmZkZERHh7e1tbm6urKw8cuRIdH8NGTJERUXF1tY2MDAwLS3t7du3nUUqqPefEfj48eODBw9iY2P9/f03b968bNmy6dOnDx48GN3REAT16NFDVFR0zpw5BgYGWCx2z549YWFhYJv8n2HvYhk/f/5cUlKCNqwZGxvPnz9/4sSJvMeO+vTpM2nSJC0tLVtb23379p07d+7u3buvX7/uYpiA5gAE+BOBr1+/FhUVXblyJTg4eNu2bSYmJsrKymPGjOHi+RAEDR06VEZGZvHixWvXrnV3d2e7xpSXlwPBjD87t1Ooqqqqys7OjouLO3bs2I4dO6ytrXV1dWfOnDl69GjeQTV8+HB5eXlDQ0MnJ6fDhw/HxcU9fPgQbOV0Ssd1SqVAOe8U2Bup9MmTJ2FhYZs2bVJUVBwwYAB6rk6ZMmXFihU7d+68cOFCQUHBz58/G8kPXvETAu/fv8/IyAgJCXF0dFRXVx81ahS6Q0VERHR0dHbs2JGQkPDmzRt+IhzQQv/69evDhw/Pnz/v4+Njamo6e/ZsXkf0Xr16SUlJaWho2NjY7N27NzIyMiMjo6qqCsAHEPhnBGpqavLy8mJiYvz8/BwdHZcuXTpt2rRBgwahWQcEQQMHDpSVlV2+fLm7u3tYWFhmZiZwj/xnzEFGgACdTv/161dBQUFsbOyBAwfWr1+voqIiIiLCNe8gCBo7duzcuXNNTU23bdsWHBx85cqVoqKi//3vfwBDgEArEfj+/fvz589v3rwZHh6+a9cuS0tLdXX1CRMm9OjRg2scCgsLz54928TExNvbOzIy8v79+2AEthJ8/swOlPNO65eqqqrY2FgPDw8NDQ20Q5SIiIi2tjYOhwsLC8vOzgYBgTuth9q04qqqqitXrvj5+a1fv15RUbFPnz5snislJWVqaurv73/nzh1wBrVNUW++sDdv3ty8eTMkJASHw+np6UlKSrL7BXkYP368qqrqunXrvL29T506dePGjRcvXjRfLkgBEGgjBN68eXPv3r3z58/v379/48aNWlpakydP5hLaxowZo6amtnHjxoCAgOTk5LKysjaqHBQDEOhqCLx9+zY9Pf3kyZOurq7Lli2bMmUKl8vx6NGjlZSUjI2N3dzcjh07lpycXFBQACSxrjYOBKE99fX15eXl169fDwsL27lz57p161RVVcXFxbmkFDExMU1NTXt7+yNHjqSkpAARRRD6thkagXLeDEBt+/nZs2ckEsnMzExCQoI9uwYMGKCqquri4hIVFQWOKLct4PxcWlZW1tGjRy0sLKZOncoeDBAEKSgouLq6JiUlgQAwbd59P3/+zMnJOXnypIODw/z587kOIPTt23f69OmrVq3y8vIik8k5OTlgT7rNuwAU2CYI1NfX5+fnx8TE7Nu3z8LCQklJadiwYWg2MmDAADk5OQsLi4CAgBs3bnz48KFN6gWFAAQEC4Fv375lZWWdOHHC3t5+wYIFXDy/Z8+eMjIyy5cvd3NzCw0NvXPnDoj9IVj92z2p/fz5c25u7rlz53bt2mVqajpr1iyuKFRCQkLy8vKWlpYBAQHXr18H3lUCN06Act7uXfbq1avIyMgNGzZMmjSJLTzNmDHD2to6ODg4Nze33SkAFfA9AjQa7cqVK3g8ftmyZegDSKqqqjt37rx+/Trft4BPCfz48ePNmzcPHz5saWkpJyeHtjeOGDFi/vz5NjY2BAIhISGhpKSET9sAyAII/B0Cr169SktLO3bs2ObNm7W1tcXExNgrDgRBUlJSRkZGeDw+ISHh5cuXf1ckSAUQEDAE3rx5c/XqVQKBYG5uPn36dPQUQHi+tbW1r69vXFxcYWGhgLUNkAsQ+DMCFRUVV69eJRKJDg4Ompqa48ePRw/+CRMmGBgYeHt7x8TEANeqP6PIL1+Act5ePZGWlubk5DRjxgz29Jg8ebKtre3Zs2epVGp71QrK7RII5Obm+vn5LV26lB1yrF+/ftra2v7+/qWlpV2iie3YiIyMDAKBYGRkJCUlxZ59EASJiYktW7Zsx44d0dHRYHFqxw4ARfMNAm/fvr169erBgwfXrFnD5aEzZswYHR0dLy+v5ORkYFfnmx4DhLQYgU+fPl25csXb21tfX59LIZk4caKhoeGuXbtiY2OBW2KLkQUZBBwBhP83ulE1fPhwNTU1HA538eJFEC6HD/sZKOdt3CmXLl2ysbHBYDCIVjB+/Pi1a9eGhoYCZaCNge42xd25cwePxy9evLhXr17IoFJUVNy9e/fDhw+7DQbNNPT9+/cJCQkeHh5qamroG+mnTp26Zs0aX1/flJQUECS/GRDB526AwJcvXzIzM48dO2Zraztnzhz0ZJGTk8NisWQyGegw3WAgCHwTy8rKyGSyvb39rFmz2DuwPXv2lJeXX79+/eHDh2/cuAHuoxL4bgYNaFMEvn//np2dTSKRHBwcFixYMGTIEPbckZKSWrt27bFjxx48eNCmdYLC/hEBoJz/I3DobD9//jx79qypqSk7sq6cnNyOHTuys7PRycAzQKA1CHz//p1CoVhYWIwYMQJhqVOnTnV3d79z505rihXQvC9evDhz5oydnR3aOWXw4MFaWlq7du26evXq58+fBbRpgGyAQIchkJWVFRAQsGrVKlFRUbagJi4ubmpqSiQSgaDWYR0BKmoWgXv37gUEBBgbG6PN46KiokZGRn5+fpmZmc2WABIABAACaASePn1KIpHWr18vLS3N5v9Dhw7V0dHx8fG5evUqOjF47kgEgHLeKrTv3btnb2/P9j2eP3++r69vQUFBqwoFmQECzSFw5coVLBbLllFmzZoVEBDQHWJ+3Lhxw8PDA20tERMTMzExCQwMzMnJaQ428B0gABD4IwIlJSXh4eG2trbok7oSEhIbN26Mjo4Gu11/BA58aDcE3r59+9ubY926degLxuXk5DZt2nTmzBkQKKTdgAcFdzsE3rx5Exsb6+bmtmDBgt69eyO6ev/+/ZcuXUokEouKirodIp3aYKCc/wv8tbW1QUFBysrKyPBVUFAIDAysrKz8l7JAHoBAKxBIT093dHRkX8Vnbm7e9TY7X716FRYW9lsDHz58ODLjMBjM2rVrz5w5A07gt2LsgKwAgT8iUFNTEx8f7+TkJCMjw7aoaGpqHjp06PHjx3/MBj4ABNoCgTt37nh7e6uoqLDHnry8vJubG4iP0BbogjIAAs0gUF9ff+fOnf379y9atIg9B2VkZDZv3vz7CCG48bcZ+NriM1DOW4ZiYWHhhg0bkEuqhYSENm7c2D2diluGGkjdzgjU19eHh4ez2aiMjMyRI0fauc52L/7FixcHDhxQUlJirw2/t8O8vb0zMjLavW5QAUAAIMBCoLCwMDAwUE9Pj21OkZKSwuFwWVlZrCTgL0CgDRBITExct27dqFGjEJ4/bNgwY2Pj3263FRUVbVA6KAIgABBoOQK1tbUUCmXjxo0TJkxAJmbv3r11dXVPnToFrvttOZx/mwMo53+LVEFBgY2NDTI0FyxYcOLEia9fv/5tZpAOINAhCDx58sTV1RXxAJSQkAgMDOyQatuykq9fv546dUpHRweZa8LCwqampr+9bcEdB22JMigLINByBL5//37p0iUHBwf2taDy8vK+vr4vXrxoeWEgB0CAicDdu3ednZ1FREQQnq+oqOjp6Xnz5k0AEEAAIMBXCDx69IhAIGhpaSFTtW/fvubm5pcuXeIrIrsGMUA5b74f0Wq5lpbWlStXms8DUgAEOg+BX79+HTx4cOzYsRAEiYuLHz58uPNoaUHNycnJFhYW/fr1Q/j+ypUrL1y40IL8IClAACDQUQjcunULi8Wyg1Pq6OiEh4eDDeuOgr8r1FNSUoLH49kBDqZOnbpr1y5w93hX6FrQhq6OQE1NTVBQ0MKFCxFpbcyYMZs3bwZ+xG3Y7UA5bwbM7du3I4NPW1sbqOXNgAU+8xMC9fX1BAIBMUdMmTIlISGBn6jjoCU4OJh9tHX+/PlHjx6tqanhSAF+AAQAAnyJwMWLF1euXImskoMHD96+fXt1dTVfUgqI4hcEbt++bWRkhIwZDAYDxHp+6RhAB0CghQgUFxfv3r172rRpyHRWUVE5d+5cC8sAyRtBACjnjYCCvLpx48bs2bMhCFJRUUlJSfljOvABIMDfCBw6dAi5Ix2LxdbV1fEVsYcPH0YOMg0bNmzHjh1Pnz7lK/IAMQABgMDfIFBTU3P06FHECtqnT5+tW7eCCKl/g1t3S5OcnMw+smRkZBQfH9/dEADtBQh0SQQyMzO3bNnSo0cPCIJmzJhBIpG6ZDM7rFFAOW8cand3d2QfCI/HN54CvAUICA4CRUVF+vr6EARNmDAhOjq60wmvr68/cOAA4ng/ZsyY/fv389uuQadDBAgACAgiAmQyWVFREVk97e3tnz17JoitADS3OQIXLlxYsGABMjAsLCxyc3PbvApQIEAAINC5CLx+/drT0xO5XnrixIkBAQGdS4/g1g6Uc+6++/btm56eHgRBampq9+/f5/7cBX/XUTPJeBNpjA8Igs3Tu5UUK0lIwpJC5fkiiC+OHj3av39/CII69xQ6hUJBAkpJSEgA3g0PpOr8xECsrqQhmU9vY6RSLCUgSSsKn5LHT3Oxa3GMf0aWQqEgmljPnj19fX3/uRyQsQsg8PjxY2RrGIIge3v74uLiLtCo1jahjpoRiTeVxeAzW1tS18tfl01Qx2DUfXP5y82v6wHdbi363//+t2/fPsT6Mm3aNOAg8w9IA+WcA7T3798jEQ5wOBzHh47+kYFHdpjh/2NMI8t468/waUgBP/2jal1Xlpma6GfYihJ4SeN8Q80g+2IN1aQxDHollAyxgYn51XR6AZHE/8tSlxO1S0tLZ8yYAUHQnj17OPupI379+vXL0tISgqB+/fr5+/t3RJX/Wgc1kjEpkEmmhM+o5SmokoxKAUHQv6rW1PzUNDJuZitK4CGNmzkgrcBIqxthCdH5NJ70zb3oWOUccIzm+kNQvsfHx0+dOhWCIGVl5SdPnggK2YDONkTA19cXYT8bN26sqqpqw5LbvqhMDrGLXM5bA1owg5v1j6p1bVlGWiKBcej+H0vgJY3zDa0kkeRipa4kwQAfI61mhY/MoNbRaUkk/t9jbQ/lvPE1ERmayP//UYTmxB384kRg//79PXv2hCDIxsamvr6e8yP41RQCQDlvQKeyslJBQQGCoB07djS87bynuvJUvD6i0irjMxvbQ/xRRjKCMHYU6o/WUVnOUDPanjfRcgMNJSCMug0xsYDGbEAtNT+JYCgJs0PDyK5hkG4d+B2e+/Xr13PnzoUgyMPDoyMrz8vLmzVrFgRBpqamgnH3Uh0tNxKrjEg35uRGdsjodFqapxykS8huucLLCX2GV1sq53DZP6gUOwb32JaKTL26ygyiOfwGo0/I5d1r4KSnbX7VpZKiWjTHAcdoG+D5qhQvL3hwDxgwgEwm8xVhgJh2ReDLly8mJiYQBMnLy1+7dq1d62qzwn/UlaXhdRGxq9E9WTqdXk4yhDDYlnG2RggsOw3v7ra9cv6jjOKkjoEkDH3IGeVMsauOVpYRilNntKvta2ykcXz5qo6a6CIHr+dcsm4dLTfEFGNEbtFa1VQLW7zwNVWYoH979uyZsbExBEGzZs3qHs7IbdNjQDlvwNHAwACCoAMHDjS86vSn2kQssquHMW1sH5dedtqwDVRcxAbIxbBa2/a6DB9l2Ox/ujGlhpaBVwLKeWsh/uf8tbW1ixcvhiAoMjLynwtpUcacnBwMBhYN+Gt+/UUb8oPUkSmo7JPR2A5ZhieEb/2BEMa+/r/a3v/QCqbxHz2v6zLwsIkekvPtiAOfZSG6LeFOgGP8oSMF/3V8fPyoUaMgCDp58qTgtwa0oHkEamtr1dTUIAiysrL69etX8xn4KUVdEkvsanxPtoxs0Aa8GuHPba0ql5HhHVhl/O3G9ovLyaaYdtgO4Ke+a5qWRtZEZoa61JA2O73YwoWvaZK7yNf9+/dDEDRy5Mi7d+92kSa1czOAcs4EODw8HIIga2vrdga8pQx+qj0AACAASURBVMVn4CEsHtZyIaixfVxqJJ8q59QoU1gVa2IzMo+g69cRGkJLEe8m6alU6pAhQ8aPH//ly5f2bvKLFy9Gjx4NQdDZs2fbu642Lx+eYl54xmhu9IBJBl6AlHM6nendh8G399yjpXgqt8Q7BnCMNh+6fFVgfn4+ci/DxYsX+YowQEx7IIBEHOATJ8QWNzATDzng8Uqw2NXYniyVbMSfynld7l5YVpRrfB8ZhoEWbYWNb0xvbzFGApnhz8p5mzWnpQtfm1XM9wVFRUX9Dng0bNiwkpISvie28wkEyjncBx8+fBgzZoywsDD/3a6MiP7IbiiE4dnHRSnnqNNQTFsZlcy8SZTHjYdOy4/GWzHOI2FkTQmnCbB/FdrCBgepyiDa6TJPiiOmQ8b/UaYwWn4kzpBZiC4uMr/BrliX6slwoMKlNLzjGexUcmSDxZGWTcLqI7VhpPWxJLSfMDpcVnUGwVJZAoIwsqbEPEbhtHyyiy58skpSFxePstLTyhhBtmCrJi2byGgsRlofR+E6SEbLJbGaiZHVxYbmohcuWkEi0U5XgnuLoY6NHgoY2EON0R5mgD1T2GmflhuK1ZWEIIy0VSgKHx4sOuXFsWPHIAhydHRs79qRaECCqJnT6XRkitVl4hk7ZLwHTFDKOeoUOmuaNMxK1hsW2NRU1vyS0HUhEx143dqbHmaMcn5QU32t1GXhySahZEXgtJY0Kojk+jH8+jiVc2oakTn7MNK6dsRULvc+9AREyGe+YQz48kQ4nCQESejgU5n3W1MTYb9K9D+mc0FdHgmrA09WeK55eVoFsjgA4Bgm0k1zjD9CxxpQ/P+3oKBgyJAhGAyGSuUaYfxPO6CwBQi4urpCELR9+/YW5OGrpJl4WBxi2JkbC/qDUs5bxPNp+RQfK2X4TB9G2oRA9uV1a28dzy8h6cJMV53UlO6TQUY55JclMeVACJJQtsQnoqQjtPBDu01gSlAmRORIFO0xGcfg5BI6OHQuOjWD7GMqbQ67iJdF43ThtUlC2ZLIIVfR6U3US6f/KUQxLSMQyygQvbKwLEDNLEnM4dXomsg79JoSRxmp6wooeIYgCnelPo78GBEb/7jwwZkaVnxYxCWmoXkgSmisTsXrwIdBCdk3UCEQWM2k0+kNQ64Ndoh4296ubygUCgRBixcvbtdaukbhQDmH+/HEiRP86nHHEv1rYT9w3n1clHION6QslBGjCqVmM87EcineDPdRJc/ESli5peWRGFZBzjSMZUnZJ5X2g06vY20NOCSiFNcyiqW0rl8GIwE1cRvDg50VuK4uDdHNsegMTUyYumy8MvsQV3Uqo6VWFETQL0ikRCJnwAxJaWSsJZ6clErxNWQI+J6pBYk4EytCZGJipCfjnJgusizVPU4kh+IYCxU+MROvq4P19PW0UmPoC+gDAnW5eCXWof0ftFSGh4JVNLOV+UkUsg+jDA7lnIEexpRcwkAvjamzER8j7aNmRFNIdrD+Y3g6g2JnhY9MTE0iYeG+UybkNYFB53zS1tbu1atXu7odxsfHI0F6O6eFra6VPcXKIpnmc84DJqwZyqyIlurF6H1UPAVkVnIo5/D8wpiG5KKmD5dy3vQwY1RWm4FXU8dGl8EDsTqXhHgzooJTNCaIlJF0YDaCYR1Ep9M5uEFdCQUeqxhTEmN4w9UgExDOxBQF6vISE6PxrMlFsLIjUtJSKXvh+YexQ814RnQljlZXkg1ZE4dJMItTAY7RDMf4M3StHuAdWsCZM2cgCHJxcenQWkFlHYhAeXm5wMvfiHJOp/9hTxalnMPA/h3PZ4hwytsSqXV0+g/GIWeGjolya28tzy8LZXDlmYS/9IpiOCsxA6bUlcAe7xArLyz8MFg6ZERKjcRa+ZAT0ygEI4bYtS01Px5nakMgJyWStzHELh0SYhWhppFJfqbw+mdEzoi0UjbBEXxxSIAhtONnE/XS6bSMaDIiQXGaixhSqBKy/1tXdhpZi5kS5t8uSYytdhh11rqDTIvc+EQORbkJcZSRAbaNY0xJeQxBsTrVEz4phpLueBc+5kBS9kyCO59eV0ZxYAjMoYy1m44WGhOJNjgcA2c5v1w6UxiG1APzOWYwHCXKkITaSeH4yt8/kJ27DjtQyd9gNEUdUM5hdGxtbSEIqqioaAqqzvmGEv0b28dlaw5M6nhDu/GcJ6fFYzEQU4lFctGirTgZVl3qNgwEoVTragojhSfLzgU7R3G4rDMNX0yNmmmd+1t3X1qiXYPoD28xhMCnfFGLFuICIIdLYm8OIBRCyttS2a+QVqCUASSXulUo+0IO1i4DSzOhxcNHyxqylJDgitGMG0EPrZwzNqdhvsn6l+uLqOIooz2DO0tYkvJZYbfqUnCwsxkqFyt3J//19vaGIOjevXvtR8fSpUshCCotLW2/Ktq1ZNQUYwhP3AdMUDMUoeO2J8egotPp3Kt1LkEJwrgw47QxMuUSuKK1/8Uwy/WV43BfRMwmLOkKsfnD83pbYh0SMLI6lwzLBBB8KRprXa9LwWEgdWIBCkKkHCU8e9rQ6chUQu/TMyeXZxp7/pWRNCAOpsHdatgHgYNplJB0WXMNcAzY9+HPHKMJ6FA9JxiPM2bMGDZsmGDQCqhsOQIeHh6/F7u4uLiWZ+WbHCzlHJZGGtmT5VLO6fTmeT4t0Q4DsZRYRjtpFPjeEpSc01qej8hRKBNrM3Aiiw7Tp4lOr0t14RDDmBbambhEpj8UnIRhdVH2TGGzfaQV6KWB4Sw20xCfxJKIWIYl3VDkTXP1slZMtCSG7N6iHPKZ6HneZjfyL5akRpVzaiLODh0KrjlxtJJiisGgfUJzA+Hwew3SKc/CR69NhVfZILSCjeySK+OzYW0d/sfIhWGdXaXm5SJhnusy8XIcm+nMxBIsIRbJLUD/f/v2LQRBCxcuFCCaO4VUoJzDsM+aNWvcuHGd0gHNVcoh+vPu46I0B0ZJPKo4k8OyhGA6ncEZDThDT3Or9Ll42MbM5trwCsWQvNksGOYshhyR3hDOCCHck3muFa3TNtnOXD9lSKlhuxex+KGUc252yVY8UGl4VSCEJHQr6HRE8YBwTMUoj6CM3vL8E3qohlCjTLlUL0TxRi8kPMoYyxOpoReahKMDPyYkJPyO0nH06NH2q3PixIkzZsxov/Lbu2TOKcba32k4YMIxQ2FieNdmzjfILhJKqoAzcUVrb36YMeQkzkIQF3o5toMG03KupGuoAZ8EYTiTq1v5UFB3qTHmCKeLO53OlHtQkhAyldjTH55/jCMzHJOLO6YdZ6vhPPDcQUcqolGimdt9gGNwcRUuvt0EdO09/tu8fCcnJwiCyspYsnubVwAK7FQEDA0N//vvv3b1xmr39qGUc6ZvEceeLI9yzsPruFeBPIIc7EzHMea5orW3mucjPJnTutAUUvB+AdrXiZuB0xjRiFHCz1+xfTpjGeLIRWc6RmkgBvbm6mWtoWiZKncvQyRFXb6LmHAaLCt/sySxlXPGatjwP05qmxZHGfvILAGyUXh5BgNjIcbgszlSM01ibF8zJBfnCGFk4N3+qEvdhjLUc5QqGD9UVVWFhYUFg9bOoxIo5zD2Y8aMUVRU7LxeaKJmbtGfax+XU3NoTAnkUjh5jcPsQywNqiOytdlgJ2cxZRZLqkuFDcGN/UN4JVPUZvLiJlrH8wk+sIQcykLtKDOjWKF1A4YVDr3rzGLoTTNrnl0GFgE/qBmRrMNXDTiw8ETxbqaxHc1DGVxVPQS17vJwZy5Rm1Vr5//Nzc2FIMjT07P9SBk2bJiamlr7ld/eJXNPMZYdgBUoiHuGcotl3COTx0DBaACXYNT8MEMmcmNzkL1jxVTO0eOZC6xGxC84BSI1omSjtlHO6Uzo4LsVUxlnatjkAI7RtHLeBHRsDAXlYffu3RAE5eTkCArBgM4WIbBw4cIRI0a0KAvfJeZQzmGOyAiBzg7602LlnMcZEG4xlxGi1TyfpZxz+GT9FbS0Eji2DiPkD1rK4lWz/2JPtjHlnM6UGDk2c+HzAI3Xy9zgRi1AdMS1Cr0ZjaCHsmD/DW1MzNElw67jDmjLOQqxRsTRRmpBZWA8cot/jdiW4HSISYxtA+PO1VAqYjxv8JKrplhxuGA0pBSUJwMDgx49eoBrz5vuL6Ccw/jo6+v36NHj58+fTYPVGV95RH/kjChrH5dbc+BSxXkVbwYL4OBNvGnodIardoMJjmlvt6QwnZkYtaDUYG5gkD1gCEKr99xpuH9TUwkm0tJGeHJmWT7j5Dxbx4Dtij6cDlc8CxtcGjd3a5SNIi9RKxAcUstUWtYQH5lRVkDiDoyH4IlSzumIhz8bCjqdsaaiseKlhKXkN6EmccPRQb+Dg4MhCIqNjW2/+hQVFfnVLeWvGs09xRjLKvP0ORxkgWeGco9DrvHAMwIZVHCP8GaHGaMW9BzhbUzzyjkyvLn8aOh0HmcQXpobmVzcTeDFgXH7eioSMAIOidQQJQhwjGaU8z9Dx9vvfP5m3bp1EAR9+PCBz+kE5P0bAtbW1r9vUKusrPy37HyRi1s5p7N2x5Dg7S1WzpHNRy52zaWcNy9aNMfzEfMyxMPPm4CUEddNWt2GmFhAS/XikrLaTjlHNHa2IkqnN1lvI8o5neF6gL4BlKGusyITwS38iyWJJTdyCcBlKdwhUOl/FEcbqYUbXu6Fj7V6so6SMdNzbVhw50KXivjAM6XWslBddlwkdCIBepaVlZ00aZIAEdwppALlHIZ9165dEATx5f17PKI/TG/DPm4G1z3nf6mcc+2t8uaCY01hIB1CBnzciBF+Ax1HjWFwwzShajK9xzlV1j8PcIa7PhwtA0nCvWi1vXLOOk7PjtGCHMrlxQF5g1bO6fSyKCsJSA4bhQTigsPXsYyorBby8lnekllpO/evjY3N7xsEX7582X5kIJMrKiqq/apo15IbUc45AgUlcl+lxtv7HG+QpZo7oC63ZtvsMEP8JFFh53hBaF45p1LgQxq8m2gMglHOICzxokHebkRG4W4CR6s5qaPlk5Fw7uyT7YBjoINfNLZhykSQFzpOaPn8F5VKFfhoYXwOcWeThwRk9vLy6mxCWlE/r3LOsSebwX2VGi+v43yDKOcoMy9MG6+c04xo0RzPZ4XVRKusTYEAu2FiTEnMSOO8JpC2Vs5Z8VCaq7cx5Zxel7FXHQPpEjJhCxEjfB3XzaZ/sSSxMOdSzrkwalIcbXz55iiBs+vpdCrFnLHKNhyPR5Iz4GW7l3Ln4igS6VmG8TyXMPNv+5ejCL75kZSUBEHQ1q1b+YYiPiUEKOdwxyQnJ0MQtHr1av7rpUaVczr9B0s/x2A4LNi8SiDyxosVyg3xhsVw+hfx5qLTaWl4KxPEw5z7jg2mczgG2xApBAGuNpXMvEKzLtUFPiOEPtHEg21dRhQjSCYSZQS1X8C7aHHL/Swmy7EVzc3dEDbK0sOZ1TM89plOQUhUOZavfqMCMYIMp3JO/1FGcjC0Ylz8xnv7GlwPNyV8ajkvLi7u0aPH1KlTebqmLV9UVVX16tVLQkLi48ePbVluR5XVqHIOu+TdZgTqx2AwKIMATBRv7yNvmEchELd2VBhCRkN4R3gzwwzZd0dFamDiUUIms862Na+cIxEoIO5NNEZG9EtkKqH8Tf7GTMGDAzWKzGJDMLGI8zzrZDvgGJxDgpMnNwkds+cF4o+xsTEEQefOnRMIagGR/4aArKwsBEGZmagjwv9WUGflalQ5R+nnGAyaGTbL85kxbrnsGbxyTqt5PvMyDuWmQs+WJUYzwtky9kNRO7Btqpyz9HBmByLmHCSGWfP1Nqqcw0Hx8ZamyAXAEkpWDQHnmHW0kXLenDiKONg3OJmzaqdEsYIE8yx8zCy+rARIFgaHb/AF4MnFLJj5h2k8J4V6Cm4oODqd/u3bNxkZGQiCioqKOBsIfnEjAJRzJiJr167lS6HhD8o5vcHPikM5R0xhKKfrsigscrMF664IJvvmiE2CnH5hK/B0Ony3GaoQ7lED39nGuLRDybPhDoofZRQnzwZ1nXW+1BR9PLuhoLrcQDwzZDQihqKqyw+Eg6abNtzG2cihnUYWNgZ3Qy02je1xwnvPGJY+gCRAbUM+JsIVm1NYWLGUag7lnEoxby4aBy+f5RS1G2Do1CdDQ9iL/9KlS+1NBeI8r6+v394VtUf5f1LOYfUSCeTLpZxnw+EUGxZdOi3XlzFZWJ4mTPvGTM8MVjD/hoBwDZ5vzQ4z5oUFGHNSQ4A3Wi7BhsgWAZjKOWrbixcfxt0NEAY95ul1iQ5cIX//XTlnzsdaKpVGp0aasqYegxDGpGh4AzgG2g+Ck2M0Ax1vv/Llm+3bt/++FWX9+vV8SR0gqs0QuH37NgRBkyZNKiwsbLNCO7KgPynnDT5TnMp5czyfFYnWEH0NJ7I7iTpH3QY8n3U3OzruJhq4skQfInPdYUgp6HUKZvsQKm5ZIxFJ/qQAox3BGAZhdsxdRuWM4GcsqanZelkb3Bz2bfjWW5Sohm4T8/lPtHH0FHNNZK3FjRTTrDgKRxGG705je3rSf1ATvQzx7EtM0YIoY+GjVydi4YtGTSkNrmf0uiQs+3ZSmAwElj/vqjDuVYHv/GEHfG2EeL5/hcicAQEBfE9p5xMIlHNmH1RVVQ0ePFhcXPzVq1ed3y0sCmjZBF1IzrPhviLWB+Qv43I1DuWcjujeGN29lNQkMsEOR0oiMq4+V7byIiaWMLKxrmTT3ZuYT6VRCyh4E3VYgceYEqMpGTD7YCjDkoa4UEpqWirrv9wyGuvWB7gYpukevgFISV0dDgfN5WVEp9NyCfqw/VzCiJBYQGXe5/SjjlqQSLDEolYpJP4cRncbOTGJjLe0wjnAyoycC5nsS4Tvc6IhN0micaAlMizzukH5bJqYd7wbkcoQH3WmcQ/C6CPO+fS6ykRPThd05BY0jL4nfGOnj5WVCxaueCaOHEkgMq64YN4SP9Oz4cY2hnqvDl/yyUYmNYPdOgbA+UEMZQx1LTwtCQcDoUPMZ9KG9F9n/j88PPz3yUArK6uOIcLZ2fl3FKglS5a8e/euY2psm1p+UCl2GKhhUHGVilyuxumHwrpvBhuamBpNwtnhU6Pgy9UgjC7Oj4ScE8nwYazvSlhSZhmNVpYRiNNVYiz48BRgXGH2F8OMfQwSgjDSaurqatIYSLlBREAoh8ezZyr7Lhwu8uGf1ETGnau6e1MZd7fUlUVjlVF3rcFJeCcgLZExoNWJj1kl/sgnwjeoYxpulEGkHCUsKYmCd4Lj9DIEI2XP6Hz4dvcftFQfZfTlt4yKAMdg4snFMZqHjtUPfPsXuWFr8eLF375941siAWFthcDx48chCJowYYIA2s9puX66MNtk3xfGCQpjT5ZD5WPfMfZnns/aycXo4pNgsSs/Gm+qxhC7zImU6AzYHtB6no/QWU7BwqsJRt2JlFHOEtrqaGWZJJwlIYPdKOb9uMpWgZTUaCLWEoczh4UUQz8K0Re2TzQi/DDZvi7xMUvs+lFGMoJXLkPmNWnwPjMefgEpO1CQW7xpeSTYex6Oz8L411y9sHDJiDqEXnYZkX0kDF1IlAaJNDWX3TqG0Nr8kvRXa2Jz4ii9LjeQcbs7BGFk1dU11OF11yeDhQjLooNa+OBVNgkL32yuj0dOt9eVULBKElZRLEzYTdYh5LI7iIkX+w98AyvnbXzsTwLwUFNTg9yq6+joKADk8gGJQDlv6ISgoCAIgmRlZUtKEC224VMnPCGiLYPNMf7HuRiwCKrLxGPR9hbY8yoRpyMBy+sm+MRyBqeQ1MWFZlAbmAcdDndhybhdSVLZyjeDVk42lTXFRzakYZx9aqib/SRhSWlgJ3RaRiBWVxL+KKFkRbjdKFOpo2aS8ZbqyoxkECShrGEFV8Spo9YVkKxkMfBXS0aMqEqKlSQkoYOHlQrGhiKbAPieZG5k8Bms9YCVDMEK2Un1pNwmmMKFQxhZXVxkg5URhrA2n2QDxyiVULIiZtPg00GWEpCkLp5xjSdyToxVJit6PHIan/2W/YBRZ+hFSKXst4bkSt43rM7rvL/IUB8/fnxNTU2HUbF161ZEXEtLS+uwSltTEdcA4NjIbyi3jGzOqZzT6XV5RMaQk9C1I8FrbSYeI2tKSGIopcyMtPxInC48LDHS+jhyQV2Gj4SuHRyVh/m9mWHGqr42n+JjyoiyyywH+cBNOcRlCWdlZ/6l5UezriqQVOa8a41nAvpkcE/JRt/AJdflBhpKMPbmGFsSdGqklbKGujpjMkIYaV0XMudsRKgBHKMRjvF30HF1K7/8fPXqlZ6eHnLUHGjm/NIr7U/HyZMnkYUwKCio/WtrmxqYllX2As7hNMeuoi7DB0tGWUFhZtc8z6dT0whsr2zCbVpZpKm0CZ6cyRLNWsfz2cTBDz9o+UlErBGsN8L/MNLqRlhiUhlrdWGmpaXgYfkNZsWUsh/0umyCOgYjbUPKr0Vc3NkowCduuJHhZftMrJCT6sTESFyDcJjW4IwI69F/rpcV141dNUvuLYdlwkb+IfvIXFIiL20+GX+/JjYljrJQRnclPrrBRMT4zr3wIZlojyl4ROqGBV08hXXUn6fJLFGTVRf7b36QsoCGgrt69eqECRMgCHJycmI3Bzw0jQBQzjnwOXLkCARB4uLieXl5HB+6249yMm5vKrU8l2U2T01NIhN9cYaSEFdQEz4GBpFxuRWnVhNcl7EXRy6g5mc2WM4poQRPG3UMO7ZHq+to1wIOHjwIQZC0tHTH+xwi/u0QBOFwuO/fv7drMwW8cIEfZgKIP+AYbd9pQUFBQ4YMAWJZ2yMrCCVev3590qRJEATp6+s/fsx2sxEE0juBxq7B8xHl/A+Xk/07qmVkJ3wqtSy3wXKeSA4k4IwkoCbPbf17hXyXM5eg5JmKtrHxHYWNEFRbW+vo6IjsqoSEhDSSArz6AwJAOecGJiwsDIKgkSNHCm58ae4mtfR3baqnGoF9cpUjd5pnN1fOy0INsdFcG9AIQmUkO9h3l8//Ie7ls2fP7qyrbrKyshYtWoSY0I8cOcLncHUWeYI+zDoLt9bV2y7KebftytjYWDU1NWSz++zZs63rGpBbUBH4+PGjra0tIp1v2bKlrIz/F8nOgbqrMIr2UM7rUrepN37W+keqZzdRzvMIykhEvc4Zni2u9evXrwcPHhw7duzv2JBaWlo5OTktLqJ7ZwDKeSP9HxUVNWjQIAiCLC0tBeyIbCOtaekrRqApjcZOR/8oIzsRGCdiW1pmp6RHRG1UMPbWU8EINNoQwgpVIO02HtcQwQ71gW8ek5KSpKWlIQjS1NR8//5959JFJBLhMOcQJCoq6uvrC5xdObpDkIcZR0ME7AfgGG3TYefOnVNWZkRVYPgxfv36tW3KBaUILAJXr15lDwkbG5tHjx4JbFPah/Cuw/MZynmbehEyQqii4pugeqDsNI7ACA+EetelHutoNEa0pjKyuSGJD47b/g2479698/b2Hj58OARBYmJiJ06c+JtcIA0XAkA55wKE+bOiomLVqlXwaR0MJiIiovFEXfRtbqA6rDZJ6mK9GsJvUEJxpvo4+BC7oPzjjWLVesqrE7HwwSeMtAmOGJnI9PmHA+/pmvrx767Ft2/fHBzgSKw9evTw8/NrPQxtUkJ9fb2/v7+4uDgEQcLCwj4+PgJ611qboMFRiGAOM44mCOIPwDFa3WthYWEzZ86EIKhnz57Ozs4vXrxodZGggK6DQHx8vIaGBmJFNzExEcBYce3WF12G55eTGBGIDUltKCvmERkiqYSunScpmnWcMJqEM9HFxXdlRwxaEhzlHQ4ZoCShvJd/JUz2rHjx4sXWrVv79OkDQdDUqVOPHz/O/gQeWooAUM6bQuzUqVPCwsKIV8bly5ebStq1vtEeUwh2hg1R3IywBJ4obvzcYu7gJY2HdfmnFvygpobirODI2PA/jKy6lQspsaRRR/d/Kr9NM/369YvtWaSnp1dQUNCmxbdNYceOHUNM+r169TIzM+uAq93ahu52LUWghlm7ItExhQOO0Rqcs7KycDiciIgIBEFCQkIeHh5v3rxpTYEgbxdGIC0tzcDAAFHRlZSU/P39q6qqunB7/7Zpgs/zuYOuNXFj2d+CwkpHy6f4Yg2VJJBhI6FkiPUlM2LcsxJ0yb9IGDxJOJIxPx82//79e0REhL6+PtI7ioqK3c2i2R6jDyjnzaD65s0bGxsbZMxpamomJyc3kwF8BgjwAQI/f/709fUdM2YMcrqbSCTyAVFNkRAWFoacUIUgSEREBIfDZWVlNZUBfAMIAAQ6FYEXL174+vrKy8sj66OMjIyPj8+HDx86lShQuWAgkJWVZW1tPXjwYGTw6OnphYeHgxMQgtF5gEqAAAOBpKQkCwuLAQMGILN42bJlMTExAJs2QQAo538FY2Fh4YYNG5Dxp6GhAYx7f4UaSNQZCFRXVx84cAA50T1hwgT+V8vRIBUVFfn4+MjIyCBzTV5e3tfXF4T5RUMEngECnYvAq1evwsLCdHTge+0hCBoxYgQWi719+3bnUgVqF0QE6uvrz507xzak9+vXb+3atTExMf/73/8EsTmAZoBAd0Dgxo0bOBxOVFQUWQLmzZt35MgR4C3Vtl0PlPMW4FlUVMSOO/r71j5vb+/S0tIW5AdJAQLticDly5fXrFmDsMuJEycePXq0PWtr37Jv3bqFxWKRQyUQBElJSWGx2Pj4eGBaaV/cQekAgT8gkJ6e7uXlNWfOHITDQBC0cuXKCxcu/CE5eA0QaAEC1dXVR48eXbBgAXt0LV682NfXt7tfatsCCEFSgEA7IvD8+fMTJ04YGRkNHToUmaS/TyN6e3vn5+e3Y63duGignLe480tKSnbs2CEhwTz9oq+v330vXWsxeCBD2yNQWVm5Z8+eKVOmIBxTU1PzzJkzbV9NJ5WYkJDg4OCAXJaLBJrS1dUNCAjgz/PzEXVZggAAIABJREFUnQQSqBYg0C4IvHnz5syZM2ZmZqNGjULYi7CwsKmpaXh4eE1NTbtUCQrt3ggUFRUFBgYuWbKkb9++yJATFxe3sbG5cOECODHRvYcGaH0nIHD16lVXV1ckzCcyH+fNm7dr1y4QzbG9OwMo5/+OcFxc3MqVK5HxOnbsWFtb24SEhH8vDuQECLQEgcrKyqCgILZzqaioqLu7exfexXz69Kmfn5+2tvZ///2HTDopKal169YFBwcDv/eWDByQFiDQFAIVFRXnzp1zdHRUUFBAJhoEQQoKCtu3b79161ZTOcE3gEDbIfDz58/k5GQnJydZWVn2OFRWVnZ2dr5w4cLLly/bripQEkAAIMBE4NOnT1euXPH29tbS0ho4cCAy9URERCwsLCIjI8GebIcNFKCctxbqly9f7tu3b8aMGcggHjx4sJmZ2fnz5798+dLaokF+gAAPAoWFhb6+vvPnz0fG23///bd06dJu5VxaV1cXGxtrZ2eHxHhHcBg5cuTSpUv3799/69atnz9/8sAGXgAEAAJ/RODhw4fHjh0zNzeXlITvikT+jR07dtWqVSdPnqysrPxjTvABIND+CJSUlAQFBS1fvnzkyJGs4QlJSkqam5sHBQUB1/f27wFQQ1dGoLS0NCIi4vfJQXZ0TwiC+vXrp6amtmfPnuzs7K7ceH5tG1DO26xnnj59un//fhUVFWTx6Nmz5/Lly48dOwb8b9sM4u5aUH19fVpa2o4dO9isc+DAgSYmJpGRkd08cA6VSo2Ojt66devcuXPZQluvXr0WLFjg5uZ29uzZLuxK0F1nA2h3GyBQWVl56dKl3bt3L1myZMSIEey5M3XqVGtr69DQ0MLCwjaoBhQBEGhrBJ4+fUoikaysrNhxQyEIGjp06G8nMm9v75iYGBAJqK0hB+V1NQTevHmTkpJy8OBBY2Pj8ePHs/n/uHHjjIyMfrso3r17t6u1WdDaA5Tztu+x58+fHzlyRFNTkz3iJSQkLC0tw8PDX7x40fb1gRK7KAKZmZn79u3T0tLq1asXMpZGjx5tbW0dFxfXRVvcqmZ9/fr1+vXrvzd69fT0hg0bxp59AwcOnDdvHhaLPXHiRFZW1vfv31tVDcgMEBBABAoKCs6ePevm5qatrY1c5YBMkB49esybN8/V1TUmJgaE2xXAju3WJL99+zYuLs7d3V1VVbVPnz5snj98+HA1NbUtW7aEhYXl5ub++vWrW8MEGt/tESgqKoqKivL09FyyZMm4cePYMwWCIDk5uU2bNv2OLfLs2bNujxMfAQCU83bsjJqamosXL9rb26MPTU2dOhWLxUZFRZWXl7dj3aBowUQgKyvr8OHDBgYGbPWyd+/ebE46ZswYMzOzU6dOPXnyRDDb13FUP3nyJCIiYuvWrRoaGmhnSAiCZs6cuW7dOn9//5SUFLBf1nFdAmrqKASqq6vT09NPnDhhb28/b9489tFBCIL69++vrKy8cePG48eP3717F+xVdVSfgHraF4H6+vqcnJyTJ086OjqqqqqyY0pDENSjRw85OTkLCwt/f/8rV648f/68fUkBpQMEOhWBN2/e3L59OyQkxN7efv78+YMHD2bLkL179549e7aVlVVgYODNmzc/fvzYqZSCyv+IAFDO/whN236orKw8c+aMlZXV7zvY2PNERERk+fLle/bsSUlJAZFI2xZwQSmtpKQkMjLSyclJRUUFvfc/b9687du3X7t27efPn48fPz579qyHh8fSpUvR42fKlClYLPbkyZMPHjwQlPZ2Fp3Pnz+PjY319vY2MDBgX7WAzMRBgwbNnj17zZo1u3fvjoqKevTo0bdv3zqLTlAvQKClCDx79iwxMdHPz2/Dhg2qqqqjR49mLzEQBI0cOVJDQ2Pr1q0RERFgU6+l2IL0govAs2fPKBTKjh07li1bJi4ujp4UQkJC8vLyq1ev3rlzZ2Rk5P3797v5ATHB7eVuTvmvX78KCgpiY2MPHDiwfv16FRUVLlOEsLDwokWLnJ2dw8PDgaAoQKMFKOed0FnFxcVhYWGbNm1Ch8OFIEhWVtbS0jIoKCg9PR3o6p3QMR1SZVlZWXx8/K5du5YsWYIWo0eOHKmrq7tz586EhIRPnz41QcvDhw9DQ0O3bNmyePFitIeqgoKCra1tSEhITk5OE9nBJzqdXlNTc+3aNSKR6ODgoKGhgT52hchwkpKSS5YsweFwJ06cuHbt2rNnz4BvJBg5nY5AVVVVenp6RETEjh07Vq1aNWPGjH79+qG1DmFhYRUVFSsrK19f3/j4eGAk7PQuAwTwCQI1NTWpqalHjx51dHTU0tLi2qKFIGj8+PEaGhr29vZHjhxJTEx8+vTp58+f+YR4QAZA4OfPn8+ePbt27RqJRHJ1dV22bNmUKVPYl9cgq8Do0aPnz59vbW198OBBwP8FeswA5byTu+/bt2/p6el+fn4mJiboSLkQBImLiy9ZssTd3T0iIuLBgwcgBnUnd9U/Vf/27du0tLTAwEBbW1sVFZUhQ4awJelevXopKys7OjqeOXOmNeGXnj59evr06S1btixYsIDtv/Tff/8pKChs3LiRRCKB7dK/6bpPnz5lZ2dHRERs377dyMho+vTpaEcGpNfExcUXLlxoaWm5a9eu06dP37p1q6Ki4m8KB2kAAi1CoLq6OisrKyoq6sCBA3Z2djo6OlOmTOHSwyEImjhxop6enrOzc3Bw8M2bN1+/ft2iWkBigEB3RuDLly95eXnnzp3btWvXmjVrZs+ePWjQIPYCzdZ25syZY2xs7ObmduzYseTk5IKCgrq6uu6MG2h7uyJQX19fVlaWlpYWFha2c+fOdevWqaqqiomJcY3Mnj17ysjIGBgYuLu7h4aG3rlzB9xz1q790sGFA+W8gwFvprrXr18nJiYeOHDA3NxcTk4Ofd4YMa2vXr3ay8vr1KlT6enpQBRrBs2O/fzr16/i4uKkpKTAwEBHR0dNTc2xY8ei+eno0aMXLVq0efPmkJCQzMzMdtptKSwsJJPJzs7OCxYsGDBgAEJA7969lZWV7e3twXn1Fg2KkpKSxMTEo0ePbt26deXKlbNmzUKHtkaw7dOnz6RJkzQ1NW1sbHbu3BkcHJyQkJCbmwumZ4ug7oaJaTTa06dPU1JSTp06tXfvXnt7+2XLls2YMYO9xcbmHkJCQlOnTtXT07O3tycQCBcvXnzw4AHQELrhmAFNbm8EKioqEOPk9u3bzczM5s2bJyoqyp6J7IcxY8YoKyubmJhs3br10KFDZ8+evXnzZklJCTC2t3cHdY3yf/z48eLFi8zMTAqFQiQSPTw8LCws1NTUJCQkuIzhyNGk2bNnr1y5cuvWrUQiMSEhoaioqGvgAFrxJwSAcv4nZPjl/dOnT8+fP+/l5WVgYDBp0iT22oA8DBkyRF5eftWqVR4eHidPnrx58+bLly/5hfSuS8fnz58LCgouXbrk7+9vb2+vra3N5fUAQZCQkJCiouL69ev9/PxSUlJevXrVKXggdnVHR8e5c+eyTcH9+/efN2/eli1bIiIiWmO075QWdXqlHz58yMvLi4mJ8fPzc3R01NfXnzZtGjrmFnuS9u7dW0xMTFlZecWKFY6Ojvv37z99+vS1a9fy8/PfvXvX6Q0BBLQ3Ap8+fSotLb19+/b58+f9/Py2bt1qamq6cOHCSZMmCQkJsccJ+6F3795SUlIaGhobNmzYu3dvZGRkZmYmlUptbzpB+QABgEATCHz//r24uDglJSUkJMTDw8PU1HTu3Llcm+/sWTxs2DAZGZnFixevXbvW3d09MDDw4sWLd+7cKS8vr62tbaIW8KkrIfDt27eXL1/m5OTEx8cfP358x44d1tbWenp6cnJy6POM7GEDQdCIESPk5eUNDQ2dnZ0DAwPj4+MfPXrU9CHHroQYaAsaAaCco9EQgOcvX748evQoJibm4MGDGzduXLx4sbi4OHp6QxDUs2dPMTExFRUVY2NjHA7n7+9/8eLFu3fvAr29RR38+fPnoqKi1NTU8PDwPXv2bNy4ccmSJTNnzhQWFuYCXEhIaPr06YaGhq6ursHBwampqXwbAxw5r75p0yZFRcUePXogDRk4cODChQu3bt167tw5cJ1GiwYJOvG7d+8ePXp0+fLl0NBQPB5vZ2e3bNkyBQUFERERrgGD/OzVqxcGg5k2bZq6uvqqVauwWKy3t/fRo0ejoqLS0tIeP378+vVrcNAdjTBfPb97966oqCg9PT0mJiYkJGTv3r1OTk5mZmZaWlqzZs0aP358//79G+13YWHh6dOna2trW1lZeXl5HTt2LC4uLicnp7P27/gKVUAMQECAEPj69WtZWVl6evqFCxcOHz7s5uZmbm6+aNEiaWlp9BE2NB8YMGDA+PHjZ82apaWltWbNmi1btuDx+ODgYAqFcuvWrfz8/OrqagFCoHuS+uHDh5KSkszMzPj4+NDQ0AMHDri4uFhaWi5ZskRJSWnixIl/6v3+/ftPnDhx/vz5xsbGTk5Ovr6+ERERaWlphYWFQAnvnmPpT60GyvmfkBGk99++fXv69Gl8fLyfn5+Dg4OBgYGCgsKYMWPQSwLy3KNHDzExMQUFBV1dXQsLCxcXl4MHD546dSopKSk7O/v58+dfvnwRpJa3gtZ3794VFhbeunWLQqEcP37cx8fHwcHB2NhYXV1dVlaW13sZgqB+/fpJSkouXLjQzMxs27ZtJBLpxo0bAr3lkZubGxISsmHDBnl5efZoGTp06OLFi93d3S9evAgu/GvFEGvIWl9f//Lly6ysrNjY2KNHj3p6etrY2BgYGMybN2/y5MnDhw9ng8/7MGLEiEmTJikqKmpqahoZGdnY2Li4uOzZs+fo0aMREREJCQnp6elPnjyprKwEZpkGxFv+VFdX9/r168LCwrt3716+fPn8+fPBwcHbt2/ftm2bnZ2dqamprq7u3LlzZWRkxowZ06tXL96eQt4MGjRowoQJioqKenp6FhYWW7du9fPzO3fu3K1bt0pLS4Evest7BuQACAgkArW1tUVFRdevX4+MjCQQCDgcbu3atbq6uoqKihISErzn29ks5b///hs5cuTkyZPnzJmjqam5atWqDRs2IGyfSCRGRERcunTp9u3bjx49qqioALdhtX5wfP78+dWrV/n5+RkZGcnJyWfPnj1+/Pj+/fvRzF9FRWXq1Kljx45leyCy+4v90K9fP1FRUTk5OQ0NDVNTU0dHx71794aFhV25cuXx48fAXa71PdV9SgDKeVfu62/fvpWWlt68eZNMJh84cICtt4uJibFPI7PZCvth0KBBEhISM2fOVFVVXbp0qbm5ub29/fbt2319fYODg8+dO5ecnJyRkfH06dOSkpIXL15QqdR3797V1tZ28AVUP3/+/PLly8ePH6urq6uqqsrLy4uKivLy8m7cuBEXF3f69OkjR47g8XgXF5cNGzYYGxtra2srKyvLyMiMHTu2Cdl6+PDhU6ZMQTRwd3d3IpEYGxubk5Pz5s2brjxW6PT6+vqsrKygoKD169dPnz6dPR6EhYW1tbW3b98eExNTWVnZtUHorNb9/PmTSqU+evQoNTX1/PnzRCJx586dmzZtMjIyUlNTmz59+vjx43mPIrP7iP3Qq1cvYWHhCRMmTJs2TUlJadGiRUuXLjUxMbG2tt68ebOHh8eePXsCAgJOnDgRGRkZFxd37dq1zMzMR48eFRYWlpaWvnjxoqqq6u3bt+/fv//06VNdXd2PHz86C5Mm6v358+fXr1//97//0Wi06upqKpVaUVFRVlZWVFT09OnTrKys69evJyQknD9/PjQ09MiRI/v37/fy8nJ2dra1tTUzMzMwMNDU1FRRUZk5c6aUlBQGg+GNtcaGlP0gJCQkIiIiIyMzb9685cuX29jYeHh4+Pn5nTlz5vLlyzk5OS9evOg+m5tN9A74BBAACPwNAl++fKmoqMjNzb1y5QqZTA4ICNi+fbutre2KFStUVVWnTZs2bty4v2H7PXr0GDZsmLi4+NSpUxUVFdXU1JYsWWJsbGxpaWlvb+/m5ubj43Po0KHjx4+fPn2aQqFcvnz59u3bubm5+fn5JSUl5eXllZWVr1+/rqmp+fDhw//+979v377xp9NWfX399+/fP3/+/PHjx3fv3r158+bly5fPnz9/9uxZQUHBgwcP7ty5k5KSEhsbSyaTQ0JC/P398Xj8tm3bNm/ebG1tbWJisnTp0kWLFikpKU2fPn3ixIkjR47kCu3EZvjohwEDBowdO1ZaWnru3LnLli2zsrJyc3NDLFsJCQn37t0rLS0FuyR/M+ZBmr9EACjnfwlUF0yGnIdEPHNIJNK+ffucnZ3ZbpmSkpIjR45sYo8QzbnQz3369Bk4cODw4cMxGMz48eMlJSWlpaVnzJihoKCgoqKipqampaWlr6+/YsUKExOTdevW2djYbNy4cf369ebm5sbGxgYGBnp6ehoaGqqqqsrKyrNmzZo2bdrkyZMlJCRERERGjhw5ZMiQ/v37N6Fdo4lBPw8cOBCRrefOncuWrQMCAshkckpKyoMHD6qqqvhTFemUwff9+/eMjIzAwMC1a9dOnTqVjSQGg1myZMnOnTtjY2P51nu/UxDrgErr6+vfv39fVlaWm5t7/fr1mJiYsLAwf39/b2/vLVu2WFhYLF++XE1NTV5efvLkyaKiosOGDfuHKczua+Thv//+6927d//+/QcPHjx8+PBRo0aJiIiIiYlNnDhxypQpsrKyM2fOVFBQUFZWnj9/vrq6uqampp6e3rJly1asWLF69WozMzMLCwsbGxs7O7sNGzZYWlqam5ubmJisXLly+fLlS5Ys0dLSWrRokaqq6ty5cxUVFeXl5adNmyYtLS0lJSUuLi4qKorBYEaMGDFkyJABAwb06dOHfRyDi86//9mzZ8/BgwePGTNGUlJyxowZ8+bNW7JkiZmZGbILefDgwRMnTly4cOHcuXPz589Hil29enVKSkoHdDGoAiAAEAAIIAh8/vz5+PHjKioqyHHFlStXXr9+PTY29tSpU4cPH961a5ezs/P69etXrFixaNGi2bNnS0tLi4mJCQsL/+lMzd8zSQiCevTo0bdvXyEhoSFDhowYMQKDwYiKioqLi0tJSUlLS0+bNk1OTk5RUXHu3LkLFixYtGiRlpYWwvlXrlyJcH5LS0s250dkPBMTEyMjI4Tza2trL168WFVVVUVFZc6cOfLy8tOnT5eRkZk0aZKEhMS4cePGjBkjLCw8dOjQgQMH9uvXr2fPni2iv9HEffr0GTZsmKio6OTJk+Xl5VVVVZctW7Z27VpHR0cvL69Dhw6dPHny4sWLV69ezc7OLi4ufvv2bQebncDgBwjQ6XSgnINh0AwCX758oVKphYWF9+7dS0lJiYqKOnHiBIFA2LFjh7u7u7Ozs729va2traWlpbGx8YgRIxYuXKijo7No0aL58+cjDFdWVnbSpEni4uJjx44VFhYePHhwE3y2d+/eQkJCw4YNGzVqlKio6IQJE6ZMmTJ9+vTZs2fPnTt34cKFGhoaenp6BgYGxsbG5ubmVlZWdnZ2mzdvdnFx8fT03L1795EjR06fPh0XF3fjxo28vLyysrKamhqgdTfTzc19/vLly61bt/z8/NasWTN58mT2sjdixIjFixe7uLhERkYWFBQ0Vwz43gkIfP/+nUajvXz5sqioKDc39/bt25cvX6ZQKKdPnz527BiBQNi1a5enp6ebm5uzs7Ojo+OmTZua1aLHjRs3efJkXi1aWFh4yJAhQkJCffv2bVqLRnT+AQMGIDr/6NGjEZ1fUlIS0fnl5OQQnX/BggWIzq+rq9uozu/g4ODs7Ozq6urh4bFz584DBw4QicSwsLCoqKjExMQbN27k5OQUFBRUVFS8e/fu69evLeqDq1evGhsbIwN++fLlcXFxLcoOEgMEAAIAgZYiQKVSDxw4ICsri8QJc3V1bWmA7l+/fn369On169elpaWPHj3KzMy8du1aXFxcZGTkiRMnDh8+vHfvXi8vr23btrm4uGzZssXe3n7jxo3W1tbr1q1bs2aNsbHxihUrli5dqqv7f/bOO6Cm9w3gL+lrq4QWQlYlKvSrCEVFJFIoiiTaqTRoaahoSINKqWhJJWmgIZVEGqLSUCRFpBCXQj/3nlynqXG78/WHzj3nHc/zeefzThkpKSkJCQkxMTEREZGVK1cKCAgsWbJk8eLF8+fPnzNnDgcHBwsLy8DHT3uO9rKzsyOjvYsWLeLl5V22bBkrKysnJ+fq1avFxcUlJSU3bdokKysrLy+/c+dOZWVlVVVVdXX1w4cP6+joHDly5OjRo+bm5paWlvb29u7u7n5+fqGhodeuXbt9+3Z2dnZhYWFFRcXr169bWlpgP3Cw+RC6JxUBaJyTijwVxnv8+PHfXdgTJ04MUDdkXXpLS8v79+8/ffr07du3X79+DdAvdEZaAp8+fbpz546Li8vu3bvRJ9WPHz9eVFRUR0cnICAgPz8fJihpk2mEYn/y5AkAQE5O7p/h//z58/v3762trUgxb25u/vz5MwaDGaF7BP8pz5Ad3Lt3T01NDTHRpaWlIyIihhwU9AgJQAKQQF8Enj17ZmFhMXv2bAAAFxeXo6MjJW6p+/nzJ7LzaAg1f1NT0xTcP7hQvK9MAt9TPQFonFN9EhNJwdevX48dO5adnX2wE1NEkg9GM5IEWlpaUlNTT506paioOHfuXPy8OgCAn59fTU3N09MzMzMTnlg2kolAvLDFxcVHjx492Jkc4sk3YjEVFBRoa2sjOwXWrFlz8eLFEYsKBgwJQAK0ReDBgwe6urrIJvPly5f7+PjQbG/KxcUFAGBoaEhbOQBqCwn8IQCN8z8k4N/hEUBWfoaGhg4vGOibGgg0NTXdunXL0dFRXl6ek5MTbasvWLBg586dTk5ON2/epMQJAWpInuHpkJycDAA4ePDg8IKhYN/Pnj07evQoIyMjAGDFihU+Pj7wHDgKTk4oOiRAagIpKSkqKipIQykhIREWFkZqiUgcf1tb25w5c+jp6eF9MSROCRg9iQhA45xE4Kkr2vv37wMABAQEqEstqA1hCDQ2NiYnJ9vb22/btm3mzJloW52Dg0NWVtbGxubGjRvwnmfC4B7JUH7+/LlkyZJx48a9efNmJOOhgLBfvnxpbW2N3FjJy8vr6uoKb8qhgGSDIkIC5EQgOjpaTk4OaRPl5eUTExPJSTpSyhIREQEAUFRUJKUQMG5IgEQEoHFOIvDUFa2AgAAA4P79+9SlFtRmRAi8efMmISHB1tZWVlaWnZ0dbauzs7NDW31EoBMo0ODgYADAsWPHCBQexQfz7t07JycnLi4uAMC8efPs7Ozq6uooXiuoACQACYwkgba2tsDAwHXr1iHNn5qaWnZ29khGSJFhCwoKAgDy8/MpUnooNCQwDALQOB8GPOgVR+DSpUsAgN27d0MekMAQCDQ0NCQlJTk6OioqKqLPlgMAQFt9CDxHzgsGg+Hg4Jg6dSo8p6cb5NbW1rNnz/Lx8QEA2NjYjh07VlFR0c0N/AkJQAKQwPv378+cOYPMZzAwMBgaGj59+hRi6ZVATk4OAEBERKTXr/AlJEDFBKBxTsWJSwzVvn37xs7OPnbs2NevXxMjPhgHtRP4/PlzZmamp6enmpoa0oPBT60jtvqJEyfgGniS5AJnZ2cAwJkzZ0gSO/lH+vPnT39/fyEhod+UGBgYjhw58vjxY/IXG0oICUACRCDw/PnzEydOzJs3DwDw+yiWEydOvHr1igjxUnQU27dvBwBcvXqVorWAwkMCgyUAjfPBEoPuuxCwsbEBAFhaWnZ5C39AAoQjUFBQcPHiRT09PTExsUmTJkFbnXBoBxEScr0NBwdHW1vbILzRpNPQ0FBkwep///13+PDh3NxcmsQAlYYEIAEsgYKCAkNDw6lTpwIAli5d6uHhAS8uGWDOqKmpoaOjmzNnDmx3BkgMOqMOAtA4p450JI0WyPVp06dP//LlC2kkgLHSHoHKysqoqKhjx45t2rSJlZW1m61uY2MTExNTWVlJe2BGVuMjR44AAOB1DAOnHBsbu2nTJiR/qqiopKenD9wvdAkJQAJUQCAjI0NdXZ2Ojg4AICYmFhwcTAVKEVkFPT09uGKLyMxhdCQnAI1zkicBBQuwd+/e3wu0goKCKFgHKDqFE+hry/qECROEhYUPHTrk7e2dmZnZ0tJC4YqSUvyamhp6eno+Pj5SCkGZcScnJ+/YsQMx0RUUFOBpzJSZjFBqSGBwBK5fv44v+LKysteuXRucf+j6DwFk0RY86+QPD/iXJghA45wmknkklCwoKIDXp40EWBjmcAh8/vw5KyvL09PzwIEDgoKCo0ePxk+tc3JyysrKWlhYXLlypaysbDix0JpfJSWl3wfz3Lp1i9YUJ5S+GRkZ+HuMN2/eHB0dTaiQYTiQACRAVgQuXbq0YcMGpN3Zu3fvnTt3yEo8ShTm1KlTAABjY2NKFB7KDAkMgQA0zocADXrBEhAWFobXp8GsQP4EioqKgoODjxw5sm7dOkZGRryt/t9//61YseLAgQMeHh7p6env3r0jf11IImF+fj4AQEJCgiSxU1OkDx48OHToEDJgJCEhcfnyZWrSDuoCCdAygY8fP3p7e69cuRIAMGnSJB0dnYKCAloGQkDd29ra2NnZ6enpa2pqCBgsDAoSIFsC0Dgn26Qha8EiIiIAAAoKCmQtJRQOEuhBoLq6OjY21traeuvWrbNmzcLb6sjNbRs3bjQ1NQ0NDS0uLu7hlUZfiIqKAgAgEEIl/5MnT44cOYIcbSgsLOzn5/fjxw9CBQ7DgQQgASITqK2tPXny5IIFCwAAHBwcFhYW1dXVRJaB6qMLCwsDAOzatYvqNYUKQgIdHR3QOIfZYNAEkOvT6OnpX7x4MWjP0AMkQE4E3r9/n5qa6urqumfPHl5eXrStPmrUqGWMV8teAAAgAElEQVTLlqmoqLi4uKSkpNDm1HpiYiIAQElJiZwSjRpkqaqqOn78+PTp0wEAy5Yt8/Dw+PTpEzUoBnWABGiGwNOnT01NTWfMmAEA4OHhcXFxaWpqohntia2ooKAgACA/P5/YEcP4IAGiE4DGOdGRU36E9vb2AAAzMzPKVwVqAAl0IdDW1vbw4UM/Pz8tLS0REZHx48ejzfWZM2du2bLF0tIyOjq6qqqqi09q/PHz588lS5bQ09PDiaARSt7Xr1/b29v/vvQYALBw4UInJ6e3b9+OUFwwWEgAEiAUgXv37h0+fHjs2LEAAFFRUX9//58/fxIqcBhOrwRycnJ+H30iIiLS61f4EhKgJgLQOKem1CSGLo2NjRMmTIDXpxGDNYyDDAiUlZVFRESYmZlJS0uzsLCgbfXJkyeLiYnp6ekFBgbm5+dTX+fs4sWLAAB9fX0ySAdqFqG5udnV1ZWbmxsAMGvWLCsrK7goiZrTG+pGyQSSkpJ27dqFNASbNm2KioqiZG0oTHY5OTkAQExMDIXJDcWFBAZJABrngwRG887379//e3euv78/zZOAAGiRQH19fXJyspOT065duxYtWoS21QEAS5cuVVVVdXd3T09P//DhA0UDwmAwHBwcEydOhAs1iZOO3759O3fuHLJ0k5mZ+ejRo6WlpcSJGsYCCUAC/yQQERGxceNGpM7fvXs3vL3in8QI7qCiooKOjm7OnDnwnA6Cs4UBkhUBaJyTVXKQuzDI9Wk8PDy/fv0id1mhfJDAyBP4+vVrTk7OuXPnDh06JCQk9N9//6HNdU5Ozq1bt1pbW8fGxlLcynBHR0cAgL29/chThDF0IRAUFLR69WoAwIQJE3R0dOAeyy504A9IgLgEvn796uvrKyIiAgAYN26cpqbmgwcPiCsCjO0vAR0dHQDA2bNn/76CT5AA1RGAxjnVJelIKoRcn5aRkTGSkcCwIQEKJlBSUhIWFmZiYiIpKYkc94U31xkYGNauXWtgYBAUFFRYWEjOSjY1NU2ZMoWFhQWDwZCznFQsW2RkpKSkJABg1KhRBw4cyM7OpmJloWqQABkSaGhoOHXqFLLf5HdlaGZm9uzZMzKUk6ZEQtqmqVOnfvz4kaYUh8rSFAFonNNUcg9L2atXrwIA5OTkhhUK9AwJ0BKBurq6hIQEBwcHBQUF5K4dvK0OAODn59+3b9+ZM2fu3LlDVsvgDQwMAAB+fn60lFbkqOv169eRbZYAgN27d6ekpJCjlFAmSIC6CJSXlx8/fpydnR05qdHR0fHNmzfUpSIFa+Pk5AQAMDExoWAdoOiQQL8EoHHeLx748Q+BtrY2Tk5OeH3aHx7wLyQwFAKtra3Z2dne3t4HDx5csWJFz2XwcnJyJF8GX1NTQ09Pv3DhQrivbyhpPAJ+UlJSdu/ejQzryMnJXb9+fQQigUFCApBAx8OHD7W1tSdOnAgAEBISOnfu3Ldv3yAXsiKAwWDY2dnp6elfv35NVoJBYSABQhGAxjmhSFJ5OM7OzgAAIyMjKtcTqgcJEJdAWVnZlStXLCwsZGVlkSu18FPrDAwMa9as0dfXv3jxIjFPg0fOIo6NjSUuCRjbPwhkZ2cfOHAAyR5SUlKRkZH/8AA/QwKQwIAJpKSk7NmzBylfkpKSYWFhA/YKHRKbwOXLlwEASkpKxI4YxgcJEIUANM6JgpnCI0GuT2NiYoKbfCg8JaH45E6gpaUlMzPT29v70KFDwsLCEyZMwNvqyGnwKioqbm5uaWlp79+/Hwll8vPzAQDLly8ficBhmMMnkJ+fr6OjM27cOADA6tWrg4KChh8mDAESoGUC0dHRW7ZsQWpaBQWFhIQEWqZBKbojF1vA8zIpJb2gnIMiAI3zQeGiUccaGhoAAB8fHxrVH6oNCZCOQGVlZUxMzIkTJ+Tl5efPn4+21WfNmiUrK2tpaRkdHV1VVUUQGUVFRQEA8PgxgsAcuUDKysqOHj3KxMSEjKT4+PjAxbcjRxuGTJUE2tvbAwICkJsRxowZc/DgQVjvUVBC5+TkAABEREQoSGYoKiQwQALQOB8gKNp1VlJSMmrUKB4eHrgBlXYzAdScbAh8+fLl/v37fn5+Ojo6YmJiDAwMeHN90qRJq1ev1tXVvXDhQl5e3vfv3wcrdUJCAgBg69atg/UI3ZOEwIsXL6ytrTk4OAAAPDw8rq6uZHWsIEmYwEghgX8SeP/+vZubGx8fHwCAmZnZ2Nj4yZMn//QFHZAbAVlZWQDAtWvXyE0wKA8kMEwC0DgfJkDq97527VoAALw+jfpTGmpImQRevHgRHx/v4OCwc+fOxYsX4211AMDixYt37tx58uTJGzduvHz5sn/9fv78uXDhwtGjR5eXl/fvEn4lKwJv3751cnJC7gKYO3euvb09PCeJrBIICkM+BJ4/f25tbT179mwAABcXl52d3atXr8hHPCjJoAhUVFTQ0dEtWLAATh0Niht0TP4EoHFO/mlESgnj4uIAADIyMqQUAsYNCUACAybw/fv3vLy8wMBAAwMDcXFxZmZmvLnOyMi4Zs0aPT29CxcuPHjwoNsd5gEBAQAAdXX1AUcFHZIRgU+fPnl4eCxduhQAwMLCcvz4cULtdCAjJaEokMBQCRQUFOjr60+ZMgUAICgo6Onp+enTp6EGBv2RCwEtLa3fyx+8vLzIRSAoByRACALQOCcERSoNA7k+jY6OrrKykkpVhGpBAtRPoK6uLikpydnZec+ePchKTry5vmjRIkVFRXt7+6tXrzIzM48bNw5e50vRGeLHjx9+fn7/+9//AABTpkw5cuQIXK9L0QkKhR8+gTt37uzbtw+p9MTFxUNCQoYfJgyBTAg0NTVNmDBh6tSp8LhiMkkRKAZBCEDjnCAYqTMQd3d3AIC+vj51qge1ggRoksCvX7+KioouXbp09OhRKSkpVlZWvK0+duxYMTExHR0dPz+/+/fvf/36lSYJUYPSly9fXrduHQCAnp7+8OHDDx48oAatoA6QwGAIxMXFbdu2Danftm/fHhcXNxjf0C1lEHB0dAQAmJubU4a4UEpIYAAEoHE+AEg06eT9+/cMDAyMjIzNzc00CQAqDQnQCoGKiooJEyaMHz9+z549goKCY8aMwZvrCxYs2LFjh62t7bVr16qrq2mFCLXoGR0dLSMjg6SmiorKnTt3qEUzqAck0B+BkJAQcXFxJOfv378fHprTHywK/4bBYNjZ2QEAtbW1FK4KFB8S6CQAjXOYFXonoK2tDQDw9PTs/TN8CwlAAtRCwMjICADg6uqKV6ikpCQiIuLYsWObN2+eNWsW3lafPHnyqlWrtLS0zp8/n5OT09raivcCH8iWQFJSkoKCApKI8vLy8Bpnsk0pKNgwCXz+/NnLy2v58uXItg4DA4PCwsJhhgm9kz+B0NBQAMDu3bvJX1QoISQwEALQOB8IJZpzU1lZSUdHB69Po7mEhwrTHoG6ujp6enoODo62tra+tP/w4cPdu3e9vLw0NDT+97//jR8/Hm+uc3Fxbd++3cbGJi4u7sWLF32FAN+TnEBGRoaqqiqScBs3boyKiiK5SFAASIBQBF6/fn3y5EnkzoJZs2ZZWVk9f/6cUIHDcMifgKCgIAAgPz+f/EWFEkIC/yQAjfN/IqJFB1JSUgCAu3fv0qLyUGdIgJYI7N27FwAw2EOSKioqoqOjra2tt23bNm/ePLytzsTEJC4ubmhoGBISUlxcTEsgKUPXhw8fampqjh07FgCwZs2aoKAgypAbSgkJ9EGgrKzMzMxsxowZAABeXl4XF5d379714Ra+ploCOTk5AAARERGq1RAqRksEoHFOS6k9MF2TkpIAAFu3bh2Yc+gKEoAEKJVAcXExAICPj+/nz5/D0eHz58937949c+aMiooKLy8v3lano6Nbvny5urq6l5dXVlbW58+fhxML9EsoAiUlJcbGxkxMTACA5cuX+/j4fPv2jVCBw3AgAeIQePDgAX6kSURExM/Pr5/lP8QRCcZCQgJycnK/m7OYmBgSygCjhgQIQgAa5wTBSD2B/PjxY/78+fT09PD6NOpJVKgJJNAHAWlpaQBAcnJyH9+H+Prbt285OTne3t4HDhzg5+fH2+oAgAULFigqKp48eTIxMfH169dDjAB6IwSBmpoaKysrDg4OAAA3N7eLi8uHDx8IETAMAxIYWQK3b99WVlZGKhZpaenIyMiRjQ+GTgkEKioq6Ojo5syZ8+PHD0qQF8oICfRJABrnfaKhzQ/e3t4AABMTE9pUH2oNCdAOgbS0NADAqlWrRlrlnz9/5uXl+fn5HT58WEhICH0a/IwZM6SkpMzMzCIiIsrKykZaEhh+TwJv3751cnJauHAhAICTk/PEiROvXr3q6Qy+gQTIgUB0dPSWLVsQs3znzp1JSUnkIBWUgUwI6OrqAgDOnj1LJvJAMSCBoRGAxvnQuFGnr48fPzIxMU2fPv3Tp0/UqSHUChKABP4Q4OPjAwA8evTozwvi/X38+HFQUJCent6qVavQx8uNGzdOWFhYU1PT19f3wYMH379/J55MtB3T58+fPT09kWUO06ZNMzU1LS8vp20kUHsyIvDr16+LFy+KiYkBAOjp6Q8ePJidnU1G8kFRyINAU1PTlClTpk6d+vHjR/KQCEoBCQyFADTOh0KNWv0YGhoCAAICAqhVQagXJAAJIAQiIiIAALt27SIHIKWlpaGhoUZGRuvWrZsyZQp6GTwPD4+ysvLp06dv377d2NhIDtJSsQw/f/4MCAgQFRUFAEyYMEFXV7egoICK9YWqkT+BlpYWDw+PpUuXAgCYmZmNjIzgSZPkn2oklNDZ2RkAcPToURLKAKOGBIZJABrnwwRIPd4rKyvp6en5+fl//fpFPVpBTSABSKAHgba2trlz59LR0VVXV/f4SPoXlZWVV65cMTMzk5KSmjZtGtpWnzlz5pYtW6ytra9du/by5UvSy0qlEkREREhKSiLk1dTU4CwllaYzWatVW1tra2v7e6sFAOD3lRAnTpyARZ6sE4w8hGtra2NnZ6enp6+pqSEPiaAUkMCgCUDjfNDIqNUDctBlbm4utSoI9YIEaJBAr7NMZ8+eBQDo6upSBJCXL19eu3bNyspq8+bNbGxsaFudmZlZUlLS1NQ0MjISLsMmeGpev34daReQRRa3b98meBQwQEigJ4EnT54YGxszMjICAPj5+c+cOdPc3NzTGXwDCfRKICwsDACwe/funl/hWXE9mcA3ZEgAGudkmCgjK1JUVFTPCDIyMvqqy3o6hm8gAUiAUgjIy8vr6uqiz0VvbW2dOnXqxIkTm5qaKEULtJz19fWJiYn29vby8vJz5sxB2+qTJk0SExMzMDCAt6yjiQ3zOSUlRUlJCeEsKyt77dq1YQYIvUMCfRG4d+/ewYMHR40aBQBYs2ZNYGDgMG957Csi+J66CQgKCgIA8vPz0Wr6+fnNnj0b/QY+QwLkSQAa5+SZLiMo1aFDhzZv3vzgwQN8HL9+/eLh4Rk7dmx9fT3+JXyABCABKiDAw8MDABgzZoyNjQ1yl7WlpSUAwM7Ojgq06+jo+PDhQ2pqqouLi5KS0qJFi9C2Oj09vZCQkKampp+fX15eHpwzGU6KI1bT6NGjAQASEhJhYWHDCQ36hQS6EUhOTlZUVETK75YtW65evdrNAfwJCQycQE5ODgBAREQE8RIfHy8kJITkrmfPng08HOgSEiAJAWickwQ7KSMVFhZGaigtLa03b950dHRcuHABAGBjY0NKsWDckAAkQGgCP378QOagkCI/Y8YMBweHcePGsbCwtLa2Ejo2sgjvy5cvWVlZnp6e+/fvX7ZsGaI4/v9ly5bt37/f09MzKyvry5cvZCExRQlRWFior68/adIkAICwsPCFCxcoSnwoLDkSuHLlirS0NFJIlZWVb926RY5SQpkojcC2bdt+H2x5+vRp/N4cJI/FxMRQmipQXpojAI1zmkty9MVF48ePt7e3nz59OhsbGzKrRnM4oMKQAPUSePr0Kd4uBQAghvp///134MAB6lW6i2Y/fvxArljX1NQUEhKip6dHA1m0aJGSkpKLi0tqauqHDx+6+IQ/+iZQXl5ubm7OwsICAFi6dKmHhwe1jvX0zQB+GS6B9vZ2f39/ZLZg4sSJmpqa8Mib4TKF/lEEsrKyulX4SOVPNavGULrCR2ojAI1zakvR/vUpKytD902RZzY2NnjtRP/c4FdIgBIJXL16tWd5R0x0MTGx5ORkSlRqmDIXFxeHhIQYGBiIiYkhM8B4RHPmzJGXl7e3t09MTIR7fP7Juba21s7Obu7cuQAALi4uR0dHeNfdP6FBBx0dHe/fv3d1deXm5gYAsLGxmZqalpaWQjKQAKEI/Pjx48SJE3R0dPi6Hf2wc+dOQkUEw4EERogANM5HCCyZBnvlyhV0JYU8I511aWnpnJwcMpUbigUJQAKDJ2Bvb9+zvKPfbNu2DX38xOBjoHgf5eXlkZGRpqamkpKSzMzMaDjs7Oxbt261tbVNTEx8+/Ytxas6MgoghhYvLy9iaFlaWsIbjEaGNDWEWl1dbWVlxc7ODgBYtGiRg4NDXV0dNSgGdSAbAn5+fjNnzkTX5OjnUaNG8fLyko2wUBBIoHcC0DjvnQu1vrWwsEDXUz2fDx06BBtLak19qBetEVBWVu5Zxnu+oZ1V7v/MAMi1bdbW1lu2bOl2bdvs2bO3b99+8uTJW7duUehB9/9Uf8gOvn79eu7cOeTIJQYGBkNDw5KSkiGHBj1SH4GioiJ9ff2JEycCAFauXOnp6fn582fqUxNqREIC+FPfkHMre7Z0+Dft7e0klBNGDQn8kwA0zv+JiKocyMrK4qunvh7++++/kydPUpXaUBlIgCYJCAoKog+E67XIHzx4kCbZDEjpurq6uLg4KyurTZs2TZ8+HQ1w3rx5ioqKp06dSktL+/jx44CCowFHwcHB69atQy4IOHz4cF5eHg0oDVXsj8Ddu3f37duHlJ3169eHhIT05xp+gwSGQeDUqVP401XQ1XW356KiomFEAr1CAiNOABrnI46YrCKYPXt2t0qq589du3aRlcxQGEgAEhgagXHjxvUs4Og3JiYmQwuZNn29ePEiJibm2LFjkpKSTExMaJILFixQUlJyc3O7e/cuPB0tKipKRkYG4bN3796MjAzazDA0rvWNGzeQE7MBANu3b7927RqNA4HqE4HAxYsX/2mfw5sgiZAQMIrhEIDG+XDoUZjf9+/fo3uTvT4bGBhQmFZQXEgAEuiNQFVVVa9lHN9xcXJy6s0ffDdQAlVVVVeuXDExMREXF588eTKaNjc3t4qKytmzZ+/du0ezF2EkJCQoKCggWOTl5ZOSkv5Jtq6ubt++ff90Bh2QhMDAuwehoaHi4uIAgNGjR+/bty8tLY0kAsNIaZPAjRs3+h+YPn78OG2SgVpTCgFonFNKShFAzvT0dHT3Ef2MrH11dnYmQDQwCEgAEiADAgkJCegyjn9G9uP5+vqSgYxUJUJ5eXlYWJihoaGYmNiECRPwwAEAfHx8ampqPj4+ubm5P378oCq1/6VMenq6qqoqQmPjxo3R0dH9+DAzMwMAqKqq9uMGfiIJAW1tbQBAWVlZP7FjMBgfHx9BQUEAACMjo56eHtzX0A8u+GnkCOTm5va1UHTUqFFbt24duahhyJDA8AlA43z4DCkmBA8PD3R/Ef+MWOZwJxjFJCQUFBIYAAEXFxd8Gcc/IIX9ypUrAwgAOhkWgZKSkpCQED09PVFR0f/++w+fBAAAAQEBDQ0NX1/f/Pz8YcVBOZ5zc3M1NTWR6SwxMbFem5vm5mb8fJeKigrlKEf9kmpoaCAZWFdXt1dt37596+joyMXFBQCYPXu2paVlRUVFry7hS0iAOASeP3++YsUKdMWLf543bx5xZICxQAJDIwCN86Fxo0hf6urq+LoJ/cDIyHj79m2KVAkKDQlAAn0Q6LW8T548GRb2PoCN7OvHjx8HBgZqaWkJCQmhDxOmo6MTERExMDAICwurrKwcWSFIHXpxcbGRkdHUqVMBAMuXLz9//jz62GRbW1t0w7Rnzx5SywvjxxLYv38/Ol3evHmD5lJRUWFmZjZt2jQAwJIlS06fPt3NAdoxfIYEiEng06dPmzZtQude/DO8LICYCQHjGiwBaJwPlhgFu1+5ciW6U4hUUry8vE+ePKFgraDokAAk0BsBUVHRbuWdk5MTrjLtDRUJ3uXn5/v5+WloaAgICOD7iwAAJiYmaWlpKyurGzduUOvl6lVVVZaWlshdxNzc3K6uri0tLd+/f0eMdjQNZWVlEqQNjBJFYM+ePegUAQBYWloi3/Py8jQ1Nenp6QEAoqKivr6+X79+RXmFj5AAWRDAb6tB5+Tc3FyyEA4KAQn0RgAa571RodJ33ZZWAgA2bNjw/v17KlUXqgUJ0DQBRkZGdF9EQEDg+fPnNE2EXJX/8eNHbm6ut7f3vn37eHl50anGycmpqKjo4uJy9+5dDAZDrhoMRa76+npHR8eFCxciC6GlpaXRiuOflZSUhhI69EMIAjt37sQnBP6BgYEhOTlZSUkJebNx48bw8HBCxAbDgARGioCxsTE+AyMPgYGBIxUZDBcSGDYBaJwPGyGFBPD06dNudRPc1EchSQfFhAQGTeD169fo8i4hIfHhw4dBhwI9kILA169fMzMz3d3dlZSUFixYgE5HPj4+dXV1Pz+/wsJCUohG+DhbWlo8PDz4+fknTpyIHIiA1hd5hrd7Ep77AELcvn17z7RAv9m5c2dCQsIAQoJOIAHSE3B2dsbfVAIAMDQ0JL1MUAJIoA8C0DjvAwzVvQ4PD0c3q6amplSnIlQIEoAEOgmkpqbiy7uCggLkQrkEWlpaUlNTnZ2dd+zYwcnJiU9Wenr6VatWGRoaRkREUPqaCG9vb7xevT7s3LmTclOQ4iT/9evXli1bek0I5Ha0yZMnZ2ZmUpxeUGAaJxAYGIjY56NGjZKSkqJxGlB9ciYAjXNyTh1CymZubo40qwCAM2fOEDJoGBYkAAmQGQG8taOhoUFmokFxhkWgsbExKSnJzs5OVlaWjY0Nb0ExMzNv2rTJxsYmMTHx3bt3w4qD6J65ubm7nY+A1wv/AMeYiJMs379/72uLAT4tAABwVTBxkgPGQlgC8fHxY8eOBQCwsbERNmQYGiRAQALQOCcgzH8E1dbW1tra+uHDh7dv37569er58+fPnj0rLi5+9OjR/fv37969m5KSkpSUFBcXFxUVFRYWFhQU5Ofn5+Xl5e7u7uzsbGdnZ2VlZWZmZmhoqIv7Z2RkZGZmZmVlZW9v7+zs7O7u7u3t7efnFxQUFBYWFhUVFRcXl5SUlJKScvfuXREREaRldXNze/78+atXr968efPhw4fW1tbv37//Q3T4GRKABPom8P379y9fvnz8+PH9+/dv3rx59epVTU1NZWVlaWlpcXFxQUHBgwcP7t27l5GRkZqaevPmzRs3bly7du3q1avh4eGXLl26ePGin5+fj4+Ph4eHq6urs7Ozvb29jY2NhYWFqampkZGRnp6elpaWrq6uoaGhiYnJ8ePHra2t7ezsnJycXFxczpw54+3t7evrGxAQEBISgpR95IhaRUXFlJSUO3fuZGdn5+bm5ufnP378uKSkpKKiorq6ura2tqGh4d27dy0tLa2trd++ffv161ffWsIv5Eigrq4uLi7OwsJCWlqamZkZbz7NnTt3165dbm5u2dnZhE3Wy5cvE/YM0ZCQELzY/T/s2LGDmGnQ3t7e2tra1NTU0NDw4sWL8vLyJ0+ePHr06N69e3fu3Ll58+b169evXr0aGhoaGBh47tw5Dw+PU6dO2dnZWVpampiY6Ovr6+joGBoampubW1tbnzx50tXV1dPT08/PLzg4ODw8PCYmJiEh4fbt23fv3s3NzS0oKCgpKamqqqqtrX379m1LS8vXr18Jm3b/pNfa2iohIdF/KiBzj4KCgv8MDTqABEaawK9fv75//97a2trS0oK0v3V1dS9evKiqqiorK3vy5ElhYWFeXt79+/ezsrLu3Llz+/Ztd3d3pKoMDAzs1gSfPXvWzc3t1KlTJ0+etLW1tbS0NDc3P3r06JEjR3R1dbW1tfX19Y2MjExNTXu2wl5eXufPn79w4UJQUFBoaGhkZGR0dHRcXFxCQsLNmzdTU1MzMjLu3bv34MEDfENcXl7+/Pnz2tra+vr6xsbGDx8+fPr06evXr21tbSPNDYZP5gSgcT70BHr//v2zZ8+ysrLi4uIuXbrk7e198uRJMzMzLS0tZWXlLVu2iImJLVu2bO7cuVOnTh0zZsw/GzwSOqCnp2dmZp43bx4/P/+aNWtkZWX37Nmjra1tbm7u6Ojo4+Nz+fLl69ev37t3r7y8HG5eHXqmgT7JksCnT59qa2uLi4szMzNv3LgRGRkZGBjo6enp6OhoYWFx5MgRDQ0NZWVlOTm5DRs2iIiILF26lIuLi5WVdfLkyf+c8SNhuR5C1BMmTJg+ffqcOXN4eXmFhITExcW3bNmya9euAwcO6OnpmZub29vbu7u7+/n5hYWFxcXFpaenFxQUVFdXNzU1/fz5kyyTl4aEqq6ujoqKMjExERcXnzx5Mj4DLF++XEtLKzg4ePi3tWlra/9ehGVnZ0corCtWrOhrtzlefvyDvLz8MONtb29/9epVXl7ejRs3Ll26dPbs2RMnThgYGKiqqsrKyq5evZqXl5ednX38+PH4SEn7wMTENG/evOXLl69fv15BQUFDQ8PU1NTJycnX1/fKlSupqaklJSVNTU3DxNLR0dHc3CwmJjZwZWNjY4cfKQyBlgn8+PGjqampurq6sLAwIyMjPj4+IiICaXydnZ2trKyMjY01NTVVVVV37NixadOmNWvWrFixgpubm5OTc9q0aRMmTBh4dqUsl2PGjJkyZQobGxsXF9fSpUuFhYXXr18vKyu7e/dupC02MzOzs6Pwhm8AACAASURBVLNzdXU9f/58SEjI1atXk5OTc3JySkpK6urq4EVxlF6soHHeewq2traWl5enp6dHRER4enpaW1traWkpKiquW7duyZIlLCwsdHR0/Rf1cePGsbCwLFiwYMWKFRISEtu2bduzZ8/+/fsPHTqEzIAhk952dnbIpLeXlxcy6R0aGopMeicmJiKT3jk5OY8ePSouLi4rK8NPer9586a2tvb58+dlZWWPHz9+9OhRTk4OMv2emJiITL+HhoYi0++Ojo4zZ848evQoevpdR0fn0KFD+/fvV1ZW3rZtm7i4+PLly+fPnz9jxgxk2U8/Co4ZM4aVlZWPj09cXHznzp3a2to2NjZeXl6RkZEZGRmVlZXwSpXeMxZ8SywCzc3NFRUV9+7du379ekhIyNmzZ21tbY2MjA4cOCAvLy8hISEoKDhv3jxmZuZ/lmV8QaCnp2dkZOTg4Fi4cKGgoKCYmNjGjRt37NihrKysqqqqrq5++PBhXV3dI0eOHD169NixY1ZWVra2to6OjqdPnz5z5gwysh4QEBAcHBwaGnrlypWYmJj4+PikpKTbt2/fuXMnKyvr/v37jx49KioqKikp6Tas3tDQgMzJV1RUlJaWPn78OD8//8GDB9nZ2RkZGSkpKcnJyTdu3IiNjY2KilJXVw8JCQkMDPT19fX29vbw8HBxcXFycrK3t7e2tj5+/LiJiYmhoaGenp6mpubBgwf379+/Z8+enTt3bt68ed26dStXruTh4Zk9ezYzM/O4cePwBP75wMDAMHv27KVLl65Zs2br1q2qqqr6+vpWVlZubm6BgYExMTEZGRklJSWNjY3Eygg0HU9JSUlgYKCGhsaSJUvwacfAwCAlJWVlZXXz5s0fP34MFpCgoCBiSwsKCt66dWuw3ru5j46Oxgs2wIdt27Z1C6Tnz5cvX2ZmZoaHh7u7u5uamqqqqkpKSvLx8U2fPr2fWMaOHcvKysrNzS0qKrp582YlJaX9+/cfPnxYT0/v6NGjFhYWSHt95syZc+fOBQQEXL58GWmsk5OT09PTs7Oz8/LyiouLnz17VlNTg8yGvXr1qqqqqrS0tLCwMDc3NzMzMyUlJSEhITY2NiIiIjg42N/f38vLy9XV1dHR0cbGxtzc3NDQUEdH5+DBgyoqKoqKihs2bEAqKyYmpv6F5+Tk/N///icnJ3f48GEbGxtfX9+4uLjCwsLm5uaeiLq9aWxsFBYW7if8np8kJCS6BQJ/QgLv378vLy9HWt5Lly55eXk5ODiYmJgcOnRo165dGzduFBER4eHh4eDgmDRpUs9M1debUaNGTZo0acaMGXPnzkUGjtetW7d582ZFRcU9e/bs27cPaX91dHSQ9tfc3NzS0vLEiRMODg7Ozs5ubm5nz5718fHx8/MLDAwMCQkJCAhQV1ePjY3FN8Hp6emZmZn379/Py8srLCx88uRJWVlZZWXlixcv6urq3rx509jYWF9fX1tbW11dXVFRUVJSgm+F7927d/fu3bS0tJs3byYkJMTFxUVHR0dGRoaGhgYHB1+4cOH8+fNeXl5nzpxBGmI7OzukIUYWx+nr62tra2toaKipqamoqCgpKW3fvl1KSmr16tUCAgKLFi2aOXPm1KlT/9kzR9MbM2YMMuUmICCwbt06OTk5VVVVPT09S0tLFxcXf3//K1eu3L59u6Cg4OXLl1++fIFZl6wI0LRx3tjYWFhYmJCQ4OfnZ21tra6uvnHjRj4+vp63reJz/LRp0xYvXiwmJrZ9+/ZDhw4dP378zJkzyKzynTt3CgoKqqqq3r17R24LxVNSUj59+jSonPft27fGxsbKysr8/Pz09HRkdYC7u/uxY8c0NDS2bdu2evXqRYsWoRdS4ikhD8zMzEuXLt20adPBgwdtbGz8/f0TExOLiooobj/koLhBx0Qg8O7du7KysszMzJiYGF9fX3t7e319fSUlJUlJSX5+fg4Ojp63BqIzJx0d3dSpU+fNmycoKCghISEvL6+mpmZoaGhra3v27NmQkJDo6Ojk5OTMzMz8/Pxnz569evXqw4cP5Fao++FMkGk0dPg/fvz4+PFjfX19ZWVlUVHRvXv3bt++fe3atdDQUB8fn5MnT5qYmGhoaCgqKkpJSQkJCS1cuHAgY3zTp0/n4eFZu3atgoKCpqamlZWVp6dnREREamrq48eP6+vrh2A6osWGz2gCGAwmJSXF3t5+8+bN6Hp73rx5SkpKPj4+z549Q7vv9fnTp0/oogQA0NLSamlp6dXxQF7KycmtWLFixowZ3YJFfva1LEVOTg4JvLa2NjMz8/Lly/b29urq6uvXr58/f36v69QYGBgWLVq0du3aXbt2GRgYODk5BQUFXb9+PTMz88mTJ3V1dZTSPf3w4cPz58/z8vJSUlKioqJ8fHysrKw0NDRkZWVXrlw5a9Ys5OLxbjyZmJgEBAS2bdt25MiR38fjx8XFFRUV4RPu9evXy5cv7+al289e0yI9PX0gqQzdUAGBlpaWqqqq3NzchISEkJAQNzc3pDe4fft2MTExHh6eGTNm9JpJ0Blp0qRJHBwcPDw8IiIiGzdu3LVr16FDh0xMTBwcHLy8vC5duoQ0vnfv3n306FFpaenLly/fvXsHJ3vw+QdpixsaGqqqqoqLi+/fv5+WlhYfHx8ZGRkQEODm5mZtbW1gYLB///7t27dLSEggU27Tp0/vv1MEAJgwYcLs2bMFBQWlpKSUlJT09PRsbW19fHwiIyNTU1OLiorq6uooqBeEJ0ahDzRhnLe3t5eXlyclJXl7exsZGW3btm3p0qW9DtpNmjRp0aJFEhISKioq5ubmXl5e0dHRyFTP27dvibz7i1Ky1M+fP9+8efP06dM7d+5cvXrV09PTzMxs79694uLiCxcunDhxIrpqRp6nTJnCz8+/Y8cOExOT8+fP37p1q7KyEq6JpZQUJ4KcyNKVO3fuhIaGnj592sDA4Pf26VWrVs2ZM6efNoaRkXHBggWioqJycnLq6urm5uZubm6XLl2Kj4/PzMwsLi5++fLlx48fiSA/jAIh8OXLl9evX5eUlOTk5CQlJYWHh+MXIikoKKxduxbp0vWzqpmNjW358uVbt27V1NS0t7cPDAy8efNmcXExwQcgaC3JXrx4cenSJS0tLQEBAXQVvXLlSkNDw8TExF77Ybdv30Y7Rp5nzJgRHBw8TIBtbW3V1dVZWVkREREuLi5HjhxRUFAQERGZOXNmrz1+BgaGnivPGRkZly1bJicnZ2BgcObMmejo6Ozs7KqqqtbW1mGKR1neGxsbi4uLb9++HRISYmdnd+DAAQkJiXnz5vVcJcTOzi4qKooM1vRVDJmYmJYsWSIpKamqqmpmZubh4XHlypXMzMzKykpaA0tZ2WCw0r579664uPjWrVvBwcFOTk76+vqKioqrV6/m4uLqZwE5HR0dCwsLLy/vmjVr5OXlkVkrd3f3kJCQ69evZ2RkFBYWVldXNzU1wcHWwaYIYd1/+fKlvr6+rKwsNzf31q1bUVFRfn5+J0+eNDIyUlVVlZGRERISmjdvHgMDQ89KHv9m2rRpfHx8UlJS+/btMzc3P3v2bFRUVFZWVlVVFaWMbxKW6giFRoXG+fPnz2/cuHH69GkNDY3169fPmTMHn6uQBzo6ugULFkhLSyO9vYsXL966devp06cDWfo1QslA3cE2NTUVFxcnJycHBATY2toeOnRIUlKSi4urZ1dg3rx5GzZsOHTokKura1JS0osXL6ibDI1r9/Pnz6qqqpSUlAsXLhw/fnzfvn2SkpI8PDyMjIzdyizyk42NbcWKFVu3bj18+LClpeXZs2fDw8NTUlIKCwvhmC6l56XGxsaSkpKMjIyrV6+eP3/ezs5OT0+v/xGZ8ePHc3FxrVmzZvfu3cbGxp6enjdu3Hjy5Ak0GIaQGR48eODi4rJt2zYWFhZ86WNiYtq6daunp2dpaSkSpq2tLf4r/gExnrdt21ZWVjaEqPvy8uzZs/DwcFNT061bt86bNw8fHfIwbty4GTNm6Ovru7u7x8TE5Ofnw/Gavkii37948SIjIyM4ONjW1nb//v38/PzdLPaxY8fOmTNn3bp1Ojo6oaGh9fX1aO/wmdIJ1NbWZmVlhYaGnjx5Ultbe/v27cLCwpycnH2NerOysgoICMjIyKirq5uamp4+ffrixYvx8fE5OTnl5eWw0FF6fuhV/u/fv79+/frx48dpaWlRUVHnzp2zs7PT19ffvXv32rVrFy5ciD7QBF0zMzIycnNzS0hI7Nmzx8TExMvL6/r160VFRdC86pVzPy8p3jivqalJSEg4ffr0/v37hYSEus2HMzExLV++XFFR0czMzM/PLyUlhdLvg+0nLSnu08+fPysrK2/dunX+/HkTE5MdO3YICAh0G7RjYGAQERFRV1d3c3NLTk5++fIlxakJBe7o6Kirq8vKyrp06ZKdnZ2ampq4uHjPUbPfl/wxMDBwc3Nv2LBBVVUVWboSExOTm5tbW1sLF1bQeEZ6+/YtsgvJ39/fxsZGQ0Nj8+bN/Pz8va6IZmFhERYW3r1797Fjx/z8/G7fvl1RUdHe3k7jDAeofktLS3x8/NGjR4WEhNAdL15eXk5Ozp6Dqmg3Tk5OA4ylp7OnT59evnzZ0NBw3bp16IZgzJgxS5YsUVBQsLS0DA0NffToEXqKBq5o60lygG9KS0tra2vb29vr6upSU1O9vb11dHTWr1/PwcGBTlMuLi5FRUVHR8fk5OQ3b94MMHDojIQE2tvbq6qq0tLSgoKCTpw4oaamJiEhwcXF1XPHBx0d3cyZM1euXImMep84ccLPzy8+Pj4vL6+urg42uyRMRDKP+tOnT+Xl5RkZGREREe7u7iYmJnv37l2/fj0PD0+vp2MwMTHx8/PLycnp6+u7ublFR0c/fPjw7du3ZK4mqcSjPOO8qKgoICBAS0vrf//7X7fBGw4ODklJSQMDAz8/v6ysLLi3mVS5apjxvnnz5u7du+fPn9fT01u/fj36Ll8AACMjo6ioqK6ublBQUHFx8TDjgt4JTqCxsTEzM9Pf39/Y2Hjz5s2LFy/ueYoJMzPz8uXLFRQUjh496uPjk5iYWFpaOthjEQguOQyQQgl8//69uro6PT09MDDQyspq7969q1ev7mZgIMYGJyfnunXrNDU1PTw8kpOTa2pqKFRlYor97NmzCxcuqKiocHJy9lxJjrbikGchIaEBbkVuaWlJSEgwNzdfvXo1egMUIyOjuLi4sbFxaGhoSUkJMZWFcSEEmpub79696+HhoaqqysfHh05lTk5ORUXFs2fP5ufnQ1wkJ/Dt27cnT57ExMQ4OTkdOHBATExs1qxZ6PRCnnuaRnl5eXCoheTJR60CfP369fnz5+np6f8cHpo4cSIPD8+WLVuMjIx8fX3T0tJevXpFrVgGrhcFGOclJSWXLl0yMDBYtWoV+txgNja2DRs26Ovr+/r6ZmZmvn//fuBqQ5eURaCxsTEjI+PcuXO6uroSEhLoubJJkyatXbvWyMgoLCxsIAcaUZbi5C9tVVVVQkKCq6urhoaGmJhYt8OQx44du2TJki1btujp6bm5ucXGxhYUFMAFTuSfrNQhIQaDKSsrS0pKOnfunImJiaKi4ooVK7qd9zlx4kRBQUFlZWU7O7srV648fvy4173W1AFkmFoUFRX17PT39UZPTw89v42PuqGh4erVqwYGBugTyKZOnSopKWlmZhYZGVleXo53DB/IhMDXr1/v3bvn7e194MAB9CEFjIyMW7ZscXZ2zsrKIhNRqVuM6urqmzdvenl56enpSUtL99zuMWPGDCEhIUVFxaNHj3p5ecXHxz9+/Bh/8h91w4HaUQSBV69eZWdnh4WFOTo6Hj58eOPGjdzc3N12VUyaNElQUHD37t1WVlaXL19+8OABrV3hTI7G+Y8fP9LT021tbdevXz9lyhR82z9t2jRpaenjx4/HxMTA3cgUUQhHTsjnz59HRUWZmZlt2LABvYSGiYlJWlr65MmTmZmZIxc7zYb84cOH9PR0d3d3VVXVZcuWdZsSnz59upiY2MGDB11dXW/cuDH8G5VpljNUfEQJ1NfXp6ennz9/3sDAQFpauucOiwULFmzfvt3W1vb69etwKw0+Lc6fP49vjgfyMHPmzNDQUMR7cnKygYEBDw8P3iMHB8fOnTs9PT0LCgrwUcAHiiDw8ePH30cGHjt2bM2aNfjj+saOHSspKenm5gYXOxAqEV++fJmQkODo6KikpMTHx9etwZ04cSI/P//OnTstLS1DQkLu378Pd4ATijwMh/gEnj9/npycfPbsWR0dHSkpqZ7tMisr69q1a/X09Pz9/XNzc6n7DH9yMc7b29vT0tJsbGwkJCTwu2ImTpwoISFhYmISGRkJO/rELyoUFOOzZ8/CwsKMjIzWrl2Lb8DGjRsnJSVlb2+fkZEB9yUOLTVfvXp148YNe3v7HTt2cHFx4TvWAAAuLq7NmzcbGRn5+/tnZmbCvUNDIwx9kQOB1tbWR48ehYWFWVlZKSoqLl26FJ3VWVhYpKWlTU1Nw8PD8UejkYPYRJZh3759aCz/fEbMNg4ODvxieC4urn379l24cIGwR8cRmQOMDk2gra0tPT3dzs5OSkoKf4vb4sWLDQwMkpOT0S7hc/8Evn379vDhw8DAQAMDAwkJiWnTpqGL2IIFCzZv3mxoaHju3LnU1FQ4aNg/TPiVCghgMJjHjx9HR0c7OjqqqamtWrWq28K3xYsX79y5097e/vr169XV1VSgMl4FEhvnjx49srOzW7duHf680EmTJsnIyDg5Od27dw8vJXyABAZO4NevX3fv3rW3t5eSksLvgxg7duyGDRucnJweP3488KBo0OXHjx+Tk5MtLS03btzIysqK7hzw8fGpqKi4ubmlp6fT2hIjGswJNK5yW1vbw4cP/f39tbW1RUVF0TcJTZo0afXq1fr6+pGRkbW1tbQDasGCBegKodtzPwfFMTAwyMjIFBUV0Q4r2tS0ra0tPj5eR0cHP5I7YcIEeXn5y5cvw90iPbNEe3t7dna2m5vb7t27eXl50QWKgYFBTExMW1vb19f33r17nz9/7ukdvoEEaJBATU1NfHy8g4PDrl27uLm50aWGiYlpzZo1+vr6YWFhVVVVFA2HNMZ5cnKynp4evvqePHny5s2bnZ2dc3JyKJomFJ4MCWRmZjo4OEhLS+NnbxYtWmRoaJiSkkKG0pJEpJcvX0ZEROjp6aF3gY4bN05YWFhTU9PX1zc3N/fbt28kkQ1GCgmQCYGSkpKwsDATExNJSUn02Qrz589XVVX19fWl7vMp6+vrkW5Qr0Y4CwsLPz//smXL2NnZEWdTp07dsWNHeHg4HMgjkwxMZDGKioqcnZ3FxcWR/DB+/Ph9+/YlJiYSWQxyi+7FixeRkZGGhoaioqL4HQEAgIULFyooKNja2l67do3S7QpyYw7loWICGAzmwYMHAQEB+vr64uLizMzMeHOdnZ1dXl7+1KlTGRkZGAyGsiAQzzj/9OlTSEjIrl278EesQxuJsvIKFUjbbVSIiYlpz5494eHhNGh5Pn369Pz58yoqKvgxMgAAsgvUw8Pj4cOHVJDcUAVIYOQIlJeXBwUFaWhooKe8pk2btnXrVmdnZ+o78yImJoaZmZmfn19WVlZbW9vR0fHy5csZGRlVVVVBQUGysrJIl2jixIlqampwPfPIZTyKC/nt27deXl5iYmJIDuHg4DA0NLx//z7FKTJkgZHpcUVFxdmzZ+Mth+nTp8vKyjo4OKSkpMCbSobMFnqEBLoRqKysDA0N1dXVXblyJb64AQCEhIT09PRCQ0Mp4swyYhjnycnJKioq+IXrYmJicHVxt8wEfxKZQH5+vr29vbCwMFJ0x40bd+DAgdTUVCKLQeTo2traEhIS9PT0Fi5ciK+zeHl5NTQ0goODKyoqiCwPjA4SoA4Cb9++vXbtmomJiaioKL5kMTMzKysrh4SEUMd9Ra2trd0Sq76+3sbGhoWFBVFZTk4uLCwMXibfjRL8iSdQVlZma2uLH8z6fSVyVFQU/iuVPVRWVvr6+iooKKAPrBUQENDU1AwODoZnLlBZckN1yJMABoPJyMhwdnbevn07flUXAGDp0qWGhoaJiYlkOzM3gsZ5SUmJhYUF/qYHCQmJCxcuNDQ0kGcSQqlok0Btbe3v41VWr16N9C8XLVpka2tLZacPVlRUeHl5ycrK4i+rWLBgga6u7rVr1xobG2kz3aHWkMAIEfj+/fudO3dsbGz+97//4Q11UVFRW1tbqpktfPTo0cGDBxHtFi9efObMGXge5AhlJ6oMNicnp1v+oY6Dlz9//hwXF6enp4feCrtq1SobG5vU1FS4b5wqMzNUioIIVFVVhYaGHjhwgJOTE2m/Ro8eLSkpeerUqUePHpGVIiNinEdFRa1btw7RnIuLy8rKCg4TklWqQ2F6Enj8+LGZmRl+1ZmkpGRcXFxPZxT05unTp1ZWVkuWLMFbCJKSkq6urk+ePKEgLaCokADlEqivrw8KCtq9ezd+9oyNjU1DQ+P31SQUqlR2draMjAxSpUhISFy5coVCFYFik5wAeuXF5MmTLSwsyHYWq39W9fX1np6e+N31yFUmhw8fjoqKggcu9I8OfoUESEXg8ePH7u7uMjIy+Fkrdnb2AwcOJCUlkUokdLwENs6DgoIEBASQlltVVfXmzZvoyOAzJED+BOLj45WUlJA8LCwsHB4eTv4yoyVsamry8fHBb/Dj5OQ8dOhQTEwMHLZHU4LPkACRCdy5c8fc3FxQUBCpWxYuXGhtbU1BF7PV1NSoq6sjwquoqGRnZxMZIIyOWgn4+fkh5YKNje3cuXOUomZLS0tgYOCmTZuQQjF+/Hg5OTlPT08KKtSUghrKCQmMHIGfP3/eunXL1NQU3zqzsbHp6upmZGSMXKT/DJlgxrmPj8+iRYsAABMnTjQ3N/89JvrPuKEDSIBsCdTU1BgZGY0ZMwYAwMfHd+HCBbIVFS9YbGzszp078R2F/fv3w9ExPBz4AAmQCYHCwkJzc/M5c+YgRXXNmjXnzp0j5xm29vZ2a2tr5JB2OTk5clv+RybJCsUYJgFfX18ODg4AwIoVK+Lj44cZ2sh5b29vj4iIUFBQQMovAEBeXj48PLytrW3kIoUhQwKQABEIlJaW2tnZLV26FCndXFxcZmZmeXl5RIi6WxQEMM6jo6Pnz58PAJg+fbq9vf3Hjx+7xQF/QgIUSqCxsdHKyoqBgQEx0cnzGphfv365u7vjt9Bs3LgxODiYQtcHUmg+gWJDAkMgkJycvG/fvrFjxwIARo8ebWhoSIanyKampiIXOqxYsYLSd/oMIY2gF2IS+P79u6WlJdItVldXJ7fDBevr6y0sLBgZGREJpaWlL1y40NzcTExEMC5IABIgAoG8vDwzMzPEtgUArFmzJjIykgjx4qMYlnH++vVrFRUVAMD48ePd3d1//PiBDxc+QAJUQ+Dr169OTk7IxJGGhsb79+/JRDUMBuPs7MzKygoAmDVrlrOzMxl27smEFRQDEiBPAhgMJigoCH/Mu7a2dnl5OZmI6uTkhNghPj4+ZCISFIPqCVRXVyM7y5YuXZqTk0MO+j558kRLSwspC3x8fB4eHnV1deQgGJQBEoAERpRARkaGtrY2UvZ5eXmJtu9m6Ma5j48PcmO5kpLSy5cvR5QODBwSIDmB8vLy7du3IytEAgICSCvP169fbW1tp06dCgCYP3++l5cXaeWBsUMCkMAwCcTFxeHPlFJXVy8uLh5mgMPx3tjYuGPHDmSNMVzHPhyS0O/QCLi5uSEd4rNnzw4tBIL4ysjIwG8WW7duHRXf/UYQXDAQSIAqCTQ0NFhZWTEzMwMA2NjY7O3te94tSljFh2icI4OIc+fOhYe1drwrTfTUkZkvH/aKsElDBaFhCk5LsLJKuOZhqEAZRIWQkBA2NjYAwNGjR0mlVFJSErLYhpeX19/fn1RikH28mIb7YQ5K3Kx2ZDH30gMXFZaOHjoS6gUNsUpOTt64cSNilnh4eBCK4KDCaWpqWr58OQBAS0trUB6hYyoj0FyW6K0lM1cxjCRX4GZmZiKXotvZ2REf7OvXrw8cOICURHl5ecq9YYFo6EibW4im5pAiaohRmwvmq8dAM2FI+MjEU1tbm4eHx4IFCwAArKysI3oW1VCMc2QcUVFR8fv37yRH1hAuj9SeqP/lfbxRL4Udcj73EPNVGMoF9kSPIZrWDaVp6WHG/MMIoYdoXV80VycFGKtJiGA39QPAyi2h5hB2vwHT3pzoH0OS9rKreP3/os4u9cePHzdv3gwA2L9/f//6j8RXU1NTAMCYMWPIfqFpjgOqTHY+2vmjXrIqh1f3RJRj19XbEE1rTPX9tER3XCkfYgg9ROteaXTKOVdYQt0kIG3QpZG4paO9ISfcVUdRghu7BwKA+SLyWt6JZc0d7aXeF8lz8ALNn7is0DGT6DklJYWHhwcAICcnR+SFaRgMZs2aNb/PdnVxcSGR9j2jxaQdUx5iG90zMOK/oczSV5qVmOipjK0wSGScd3R0YDCYtWvXAgBcXV2JmW7+/v4TJkwAAGzfvr2oqIiYUQ85ru5NJ7aiNz+h2NlOAQBE7HJ6zpN070IPNa0bnqSlXTLG3tU01BD+oThlFqI/So2Acd5Hh+Rveg/ZrvkjNPzbF4GAgABklm79+vUVFRV9ORvO+8EZ5x8+fFi/fj0AQFNTczixEtpvc+k5xNaWD6j8U/lgmgvCdURw+ZRVJawXI6CjozndQgDIuOYN9zyPHKuRMc5rYozFWcF8eYfwnOrO8QVMc01OgKEEroPtQP59akInNBmFp6qqCgCQlZUl2hBVbm6ukJAQAGDDhg0lJSVkxKIfURoScUNXQMAqrbm90x2mJs1BFrERRRzu/ymw6EDaqwMUAatWTMMfL+iPg3iuwY3BEco4x0XcnOeKPyy20QAAIABJREFUu+VZPqAS97u9uTTWAlfPiOjE91rNDELeATqtvhgwqLLfnOctPx+wiqt7J5U2I7zbMQ1lia6Kc7EV5Aj1pQaoDHTWB4H29nZkqxsDA0NwcHAfrgj/GrkaytbWlvBBDznEdzHqAAicLhhyACT0SPzSh0kPINgEHWIAkLSKaGpqWrFiBQCAaLs9kSsD586dS3mL2NsbEk1wlxnzW6S968z1mHcFYXqdfeFeB8Q7OprTrATAJteCYfeFLUamQSF+ISJhjTGoqJsLkanI7vOLmJpEC2HgcH9QgfXneLC9jv7Coopvra2tRkZGAIDJkydfvnyZ4DoNzjjfs2cPAMDCwoLgcgw3wPu4CTl+126td+k5CWQYqdchw46OHAtAABMXN2DZvWwMV6OaMOyQtbBDTm/VZfUlZVZCSD5cIWnbv6GhIdEGqrKzs5FD4x0cHCiKekMYbuReJ75rPv6cqIOUTFblsJpeFKq+JC8fPujJ6O4BIT1LghrnHR3IioAu5f3P5IN6zJ/+UHdJCPj7c5ox6yBqLcx9BxEAsAOUvYx0NOfYiUDjnICJQ/CgoqKikBF6b29vggfeM0Bra2sAgKmpac9PJHxTcBpnb7Aap/VcBEdCsQYQNSlKX3XApi610wDE7NsJGRjnHR0dtbW13NzcAIARmqTC6//t2zdpaWkAwK5du8j5dkO8wD0fOhsjrcSuLW6pt2RnX7j3AfEsC0CAhhLXOBJ6KIcUhagnV7J900uHpFPWyoAAQhnng+x1kC0sggsWGxvLwsICAPD09CRs4IMwzkNDQwEAe/fuJawEhAkNMc57VAoN4fLyVg64hVm9rqHNcSCEiUt44xxT4CAMABDovRrFImuOUdPpVvsShiQMZTAEtm3bBgAY6RuGysvLketbRjqiwag+QLedxnmPEdwcB6DjYIcbzu9t4wm25FKOcd7xZ4GZctSwBxT65/q5NECFFQy81noVg6v9+umsF7hu6j6m2b8I8CuRCdTU1CA7b0NDQ0c06hcvXowePXr58uUjGsugA/+cZjxfWRk3xidzkUiLUwYtZK8eSFD6mtOOiQx9m15PLcjDOO/o6EhMTAQAqKqq9pSRgG+QJfTm5uYEDJPIQXUa590t7YYwRXkLu86+cC8D4vcdyNQ4J0EhInKKDTO6vo3zYQaM9z7YXgfeI208VFVV8fHx/d527OvrS0CNB2qcNzU1sbCwMDMzv3nzhoDREyyofozz8AZk4A2AnmtoUcb5n+41doV6p1WAZHrscOOfN3/kbUjz1pLB7d6cK2MS5q3Xc1k7pjTWQV0Yt2oUGa/s/B815dXekHZaXWIJdn3vXGF116y/A53VF3ErZyUD+uuJ3A/7u3StvTrRTr1zX/p8EXW7RPQsGfqUjuYsV5xUrNxK3gW4WYjmJ2HGm7Byzt1knIiaw0QO01IOb+hor44xwSk7X0Tds/u6p+okvJpzRdQc0CF0YBpywh2Ul7B2N8ze5fyh1wVNJ+TOA/ZwoGoSsQd6YWVzwK/R+pMGZPG3qqpq7Nix8+fPH9HF7ZKS2EFvCrTMOzo6+jHOHXI6qsOwpiZuXrdreqKNc9RWus7i82em+vfue1SBwobQjC93rEuUXS+5Yre7dOum9J/9cGJgC4WiCLZUsHLLmISVdpmv660tbO5cCNDFOG8ujflTKucKqzvElv4t4djNlD1KR+cb3N7a5oIALZm5ALAuUQ8o61z5jynErk5H//tTL1Wn2Skj1ZGImrGrocWfmgGTdgy3fcAkrbfNA53EG8LD/i6S768mQR+whykNN5bB1l1zZUwSkWqqId1VGfvmb92CRDCgmqS/eHtjhQTdb1J21nu41K9OwlZEWGnt0rqkQicDcv9TU1PDwsLCwMBQU4Oqowkt9cGDB8mwnqm+KCPiXoBJt8Bm5R6L47owQOUHbJOa3m2krDnHUweXabFnLqifTuu2a6a/Ul+ThrREWI8mrsbHUAe+9Plp8KUPW1/iuxas3LI63l1V+EeWfpWI3QeH/ofL/H99fS4N0OBmBXPVY/Fk/laYWNXsYrpWUh2dw449pj26YCfWD+T6gIyMjBGK0NjYGABgaWk5QuETJ9h+jPOwVxjsUimAW5LZpVHr6EAZ54NpcDsa0r11ZHGNz3wZ43Bv7IK47rkFVe7QmRPlrO+iN/hChGs6cQIB1iUyOhdRXVZ0m/u5NKyzWytjjOxHw3bIcc0oK7eyZwGqxWyuTvLW2TQX249tLvBWw3YMWJfIGMd27Z7334T1cW40pizGARcgGgy2W4Ob8f5bcjs6+m7CeuuQ9Mxq/YuHdY+yWZBuD66l7LvX0aW71UvtgerPNN92kMFurHNNCely2BfeNPib5br11noqQpZv6uvrkVPiHj58SCgBB2qce3t7AwCCgoIIFTGBw+nXOO/o6KgO73XIEGWcYwXCbbzpaopXX8Rmpj+dYJzU2AXnrMr+Bdg9tJiGROxAdTfjHFcDsiqH4TbAN6djl5UCIOL9BKX05xwHcQmd2GpsFfCuADcbhh87qA7YhPUg4N5tkT7Ke5fHhhgV1j/7hTC4Fe9/t+eVJsWEOcpgW2zFgLRwHXW7sMT0GGSvKeuxtNJ4Y2UN17CkxLBjODebkOGAhrTwAFcV7EpC+Us5YWoiyiauribyyEgDeoNAQ5Qy659N+5hK3Dp8fOfpXU5MeIAO9qi8rvtecMv1RexwO5Axf2wzvc5FAJjCxMRYB9zIhEPifVd1Le+Y9LQYnPys3ZdpdUFAwh9eXl4AgJHYc4IodfXqVdIeDj88tv0b5x0dn3Nwi0S6n1WDNs6xAtQE4Cp1lCnenGaBzV2oNx24cidskfgKW6qaCwNwZb6rcd5v9kM0rY5S55Z1zcEuUMc0JGH3k3c9tKKXthBz2xjXKZbp3IiOFRhVS7Q357hjy5fIsT+WYc/S8SonJhYpL/JhWTE6ag5hSWmJF3GnZgijZ7YRnt20FugsUJ0C/5knx6ThDBrQfU9BnynaT03SnBMbFoBsXLRKzDmtruMZk5YUgBgDMhcLCtyVlU0CYtJjvNWwtR3rMWQ4YIA1ST/xdnT0ZIXI319SYgqSEmPscBWJ3R9p02NwJx2wDphGn5hI8gGpB/T09EYo9h8/fowaNUpWVnaEwh9isJgcB35ktwjSLPaZfJiyAGVWEYukBmzhx2APrQAA5Rg3+SNyLLHzM65ZR7cp/ZV6rAwiDulIXxXX4uPtiv4+Dbb0deBmEf6qEIMtbqzKF3GdhI6BZumu6/jQvmISj6kba+AOrOlsTLHtL6tKQAFuM07zfVdsJSX8d68yNsnIZua8o6OjqKgIAKCtrT3EvNSvt7KyMgDApk2b+nVFAR/7Nc6xfeHeB8RRxjlWyQE1uLh+NatyQCG2aGBeYTc5Y//hSwc2IFx0wsjkSmfvFLB2WfXZb9EbZCHCrTntPK2mvTkNNxKhHosruUg7gpPQIj7HVU3HOzYt8aIxrjzIBBQWuCopG1+MSYv1Vse6YbVIx5nnn0sTLwUY4zrkDkk5DptkdKxcLZBCBNCrcfttwsoSY8KRbu2fphmXj3DlnVX5EmIFpHV2hDxLkY8DbsJ66ZB0NCcmdlnQ3q942PiwK27+VgW3LbC9/78dj569js6U/eulW+2B7s/Ee6sbGuPmFQRcC//kAdAlD3R0dORY4U4mwilPif+lp6cj50cSSviBGufI8VeNjY2EipjA4fzLOO9AOu7dhwy7GecdHVnY8yy6mOK4kFFvClyFAWuXmagC126ntVcGyHQ1rZEtc/KX/o60FZwWEECfnInz0jkt8GcWDhVpv7QKXbEFCT/ghEnDDv+i60ekfeU3TsRviO3stYtY3MZVW9jgm2PUug4x4BQXUPw7Gf5nAQLeAkEUx9sJmDSTriF0dCDjYfjhsY4OZBwUVSxxJ/0AYPF37q5zrlXCAukMYWWrDsDOHKN89cuDyB8rKysBACPXaUa2wL1+/ZrIehEoun8Z5512LLY5RJ9V090476gOw94xj89s+Dn5v2+a43VYAT5zYsVvjlXH9hXwRWMg2Q+bIdEtaOfIfWcDjw21sy38M6GNaUh3wI1ssUo44s/CxRkSeom45h0BiUkzwc4qo6fWe5QOpLzMVb9Y+scjUqYEXAvxqdGzmcTK07WI/TnXGqkZunzFh9Pbwz9rks5q1vvvUgKk4mJV/kOjo6OjW7WAm5MBoL+a5J/xDq0mQeo9cZSxURmAPYOEXIf5ekuSLu+EhYXHjx/f3t7L4QFd3A3pR0FBAQDA2tp6SL5HylNzrDr+HLjO4tw5gtw1RlynXMb/bwvbnKQzF7BKnPvT03UUAWiP7xJ1sDM53sjnjv5LPTbb/61nOjBpFip/rhbr59NgSx92Vyf4IzCiHTIeIeKAv4t0AFm6q3GOCwfx9ed0j+bKgur/s3cmcDFubQA/2YrIXoMskSXZs7SplEh0kYo2JJU2YhAliYqbNmRLKEnXUioKqYTEZ0nJTaIsoRtdQyGE+e7MO/P2zlJNamqWx+/+bu+8yznP8z/rc5bn0Jv9knBDWqtKmEHFBhlJ1oR1Adi3xO4EK/gW/iUrK6uhocGPSFetWvXfFMqlS5f4EXhLhtmQcV7HgDibcc5Dg0u9H6iGSORUZmNFpVKxPE/ILdiCF8J4KNbPRJ7XmUjqL3qNLESUJNrMfW3PGavwazsAjB6p8T68haViy1RJ1hG1jRpbe0SlYkh17SKw1aa0Liljts+TsSaN7RPOTjijW0vsWtBLNz6bhdObT3BfzUN5xzskhMMsaB6yCV0CZrrgHDjEo02zsXj0yAmj+aImM3fOcvY6qLzUHvS6iMSYz6spy7mPLdjBQmPpqtGXWLLdYeYQ4fmLHWRWWFjYLCLzapyPGDFi+PDhzRIlXwJh9BqZTSYzDtYuPueQIYdxTg+ntmxTGT1L/A7WP6itWegRsXlrLztlwVJBUKnVqTR7udZIoNvGrIFgPX56LxwrkLx3qd8lO5MIUwSY8UCoH6mYtU+8w6gpCB0ORveXUHdwomDYNkiX0QeiJDuSiJMPnN0CDvMjx5c2w0iMFzO8CfHyIhszfQXkb58+faZMmcInYeTl5fkXOJ9kJgTLg3FOxaaMaKtLcCcLrCWXiynOXDCP5yW6TUhs2OhmP+uy9oazH62pZg2E0deptegYRVXXSBfbk4KQgpop6wLUm7RsTrTDaUCw9pvQGHOUDqzrQCwLjG4BoaHlbCZpSrH4e7sfl4wdporViixjDYSU4bxssCZh64LQQqDTqL9uabAmaTBeLsZ5w0nJmPTDeyTcpeWkILh3Nm7ciBAqKGBYlM0raGRkJELozJkzzRts00LLCVQlFgds3IeLKxZ6p1y3dt0KW6z0FpDZbLE9o/1soNTfoZUwC+LYenwyY114PY8aWfro9QzJ9w6LeIzxCLzywfoG9WZpzlaYURC8CAPgtEiyaZUU0Q6n3WQQrh0NFDDjfPr06V26dGFh1Ew/9PX1+RRyMwnIazANG+dcB8TZjXPOhobtDmZmE6dVaJmKzVt7jj+9w0eYxS0Jpw2Q4j3qBopeIwsRfbxAjT33EspLTjBtJovQnrL38GmUOUoZhpTlKyo2cIYYYxMNN2EYPUJtVhZHsxOITSdmMxO7xxyScGtwsQ4Jfc0C4X8s0jYgHr3Us8w4smU2tqTntfZg1EWcO7HoHQn26UmbOHyqkC16Yfl55MiRZtwXxqtxLiMjo6urK7iMsDJMzOh0Wdm7+OxraBtrnHOZHKblU9rJzLWljjF6R2jLaft5EG7TUqnYeB6hIOGXtBKFFUjELPaNgE7fG4Pt/2FBwUMHmkMLTGa8DsWkYB9lYMpGeZLM3EZey4FJhlgVYm0/sULHij2ZsCmWsyJgJ8yMVlD+qqioyMvL80maTp06CfNaOyw1iXkA48Re9JhD0Qzn7ewll8uQDWs+4Rgjp0XD3rY1mP2wAo4XR8JFbYHC2kKWfM6W9Fx6ALQ36B0XQkXRTMY5cxRf0dg3nr7XBpeG0bOp22jB32S/qKMmYedJb6TZehicKUUXg7eapI54uRnn9PVK9dYkPEnLrrkg/965c+d/JylmZWXxQ8g///zzv0bq2rVr/Aj898KszvBUYOyPYASATXMhjm4cWxPMHh23HEh4p8FSzxjWVzD1jaOv4CV8W/ejxpU+SrIjSy+CEQV2GCTeX+chS3NBweUr5lghwW7BYqTPNNTaTowqtLb2I6jeGpfYgUEfP35s9shVVFQGDRrU7MG2fIA8GeecA+KNNc45Zl/pmrJ3NbGmkDgRhYnHnG9vqOg1rhARYNMORWe6QyJkci5mNmflwFFeuHxFpbKNMjDjrqsJw7orhG4DNmfGMhNAp0d0NcUhSd3GOSFkKm3pOItxzhSOSuUmHpdYaj+gX7H2tfCZBgJY7AO22oNLXcQImJ1GToAaYx8BW8xC9TMhIQEhdOTIkWaRmlfjfPr06Z07d26WKPkSCFaGOZoQji4+thcUX0PLbiFwsUhZii57lsJ0Yc+C2FJtQgeCbq4T1qbSw6yj8NBGr+nTy4i4DL4haBS6fyZd293JBe/S2QYvuZVnjsLGm3GO8aldAkCl0v3JKenahSU/oqRznPdOJ8NimNFX+BNQYEP1BFYcM6I01dkJN4SjJZ9/+fKF1qsyNuZTpGPGjBk6dCifAud/sFhOY8kD9Eg5ih7rxhOOksuZY1nvYDUAW2vB0eo0lP3oYXJUI6yUGjbOsWxP7JHQQ2BfJMJZOjjzOUe3gFVrpmS0Yoj5glIkOKrBxuYRYQ0h8/26/9Zbk3Dw5KluYalCmTGzp1e98XIxzqkNJSXn0AzXoQSmPMLw18HB4b+zG/nkk/XChQsIoZY5sI032Iy5KcIIGX7JvgCSs+CwRME1B9a+wUupp+VP+vZUmufUOJa5oDoeNa70YeXamN2NNttkGg8FkAsKLl8xJgwR+3Q6h8mBfdtAlViLkt9Xo0eP5lNraG5ujhCqqKjgtwr8Dh9rMoidNHqMNG/thJXPtHssA+KNNc65Zwx24xxbL4bvTKH1bmlz1/iZow0VvcYVIrqimF+3Uca+J7JLHtFd1RB6BRzt6W/PnDMWtREGnetvwpgFHFvURpMUW3qAo6BiS1yJrDhmF7g2Ydw6JNXp6YTVCnQudYvHtX6gf8P8HyY8vkqR19qDS13EDBHb78CYPK9O96zd3858Qwj/YgPc16/jezaapAOvxrmHhwdCKCeHRxdlTZLpdz7GunocTQhHF58WNnPvtJrvzWT2o9Q4W3GWO1geZZ+J4syCJadsFdB451O1nh6IftSwCotQqtk0ZjqoZDFZ2d4h/qQN3tP2zDAWhXDUj7wsPeU0gFkUZ0ZHv4l7qqNV7iSLiHxmxKwrCJhGNathRvOER3NfhzncormvY+6FY8bBURFwysZ8VRD+ZmZmIoR27NjBJ2GwopeUlMSn8PkcLJaarHmAFiWncU7rLeC+arLZzznnzBWsd+g5E7EtzeJsdRrIfvT5qwZOEefWFrJCxNbycQyuYQLXLhKh1xssZDhrEo7OBKvWrPGWZQTS3a7gO9sZ5g1Le8/6CeuvhmoSTp681C0N1yQNxcvNOKe5Eqy/JuFJWlYAAvzrw4cP7du319TU5JOMb968QQjZ29vzKfxGB3s/cDxxlzjje8x3A+5xkHEXK0rM6TiOqLhWDrVv8VLq6W/T+v10x6gkC+aBCMxQuDxqVOkri7OmDT1wjOjRaxt8Mo2HLM1Zh3Dr4lOptAX5iG0LD2370AnaTqBakliMHD0rptot+vfbt28IoQULFvAjVuyoYF9fX34E3pJh8m6cs3hiSmE7So2zoWG9g2UMPGcyNOTsfFZn++vS3AbfpPUS6W6Dic5lGix6jSpEjO30NL+PmF8OjvLC0Z421ThnbqdvsAnD6LGOjzyLs1VE4x3jaHYC5r6O7VhZDvm5jYY33CHBelZ12gjck5KYZ1mTnspr7cGlLqoNFUtZGhCiY5Ha50J4paCgMGDAgOYSnFfjPCkpCSG0aNGi5oq4mcPBWl+OJoSrcU4bs7pO96BOIpHwBWOYQJz9SOwOY406YxEOm13NJQvWlES4GtvSV5izH+dAq6LoPts4x4qexMRgW84wN0uIsHmGk9ez5Dj6y/SVfsTxAs76kfMOR2HjNIDpiuN2OBY/fQkA048lXUjiRj5ODvQ7LOYHDX6Gr605dvAbx+lrtGh4kI2TRuvdmTNnDkKIf+e7FBcXI4SUlJT4elob3/hhqcmeB+owzqnUGqZ9TiKxljLOXIHdYS5sxpa1s9nVXNq2BrIffa0a0YMDBqY6/RjTNwpmjhJWp3Oiwza2cCy+pRdDwogbZ+ngLEEcnQlODtkxxAPhq7JpTuyZO9sZbuRJzrXOIDnErb4Zh+2gbbgm4cKTh7qloZqk4Xi5GucN1iQ8ScuBQ1BvLFmyhN8HpgwfPlxGRkYwJg8pcTbMhoYtRRiNI2HGiUpllDj2DkB19il61mb4WGXtGdOG6Zk5n7YPtu5SfzOGOOVYfZ3mypjRMtbziO5rhmYA81b6sAXA7ONo9Dxce5OHLM1Zh3A3zhlMWDAyx9MJN7EY2cGyJUkL/QwNDUUI+fv78ym+ESNGIISys9k25/MpNn4F2xjjnNYdww5Xo/WFCTPM3LphrA0uY00HW5nibA5ojsB9bSywc4VpR4qm1HptpI3H11/0GleIsGmt2uFvzpzP0Z42wjhn2uGMhKMXWMYSHh6aMIweGy5qyRFnYxv6QcUkJUPHCMKxb/RYeCjvDHO93g5JQ+IxPE3gHn8YGpbGYSYGl8zAW+3BpS4i5Hrm5HlE2Cz2lVCEt4TmEvMo2Yy1E6/G+X8uJLDOQVRUlCDSovf/8C4pLmFdxnntkh4245w+nFzbFlIpOQHYeTyM+pp52qpnNsHHKcMhXO1St7I463rtaqZnNcJQFu0ExUC7MHxlAmPFkapvNlcnCc+SfXczXEPTCwBhoThWbEi+eFCNcQhHMPIxpCxTkfR1OPiYAtbnDsDjoSTTzntncWlDl43FMKu+46tGsE/wlCJccJofgrusHTti0MXFhSB/81/u2rULIWRiYtL8QfM9RCw1OU/z4jpzTpeG6RiCzTinzywReo3P4ugH9eGtHWOInWW+GtuxSVi62XD2Y46LeabgRwFTS+LJnkl4OaT3PxChpHBhSDvTgebfDnezTKVSH4XpIhZfVpylg7Mx4+hMYDwZ/Q9KaRmtbcaLJF0SWiBM4xyfG2HxGEcQuPp+mO8pRm+JHnu9NUkjHMIRekgN1SQNx8vNOG84KXnq2RBYCPDltm3bEEIWFhZ8lTE6Ohoh5ObmxtdYeAr8fqAa+6Qc/h3D4TOhmaZSaR6P6LvVwpkLyKiUgiO2toxxK5rvUtrj2vVlVEp+hK0N04Ns/aX+pq8ay7GmtBqAaZzX/YgmL+NYaV5KH0MF1jn56hRnojsbTmODcyaNXpoYtVN1aRmt2sIKAu5VjgkyJ5h26qGaP/FI54IwfcTiqElgjPPKysqePXsqKCgwxW/+v1evXv3vVNQhQ4Y8ePCg+UNvqRAZxjl7cnNZ1s6UiDEgzmacN9TgMhZ4jvfCzyihje3Q9lQS91HTjlEgtNrMKGv/1l/0aO/xXoiwxpEQXX4YzfscweshNgTGsqWU3jyxdDawPE/o+mJIiRNRmOtE3B0yD00YJhveXaEpVnbKQq22/1yLpPaKpyYM65CwhFwbAv2qQfGwqgCpejIdXVKpZcmepr7MpOXsdVB5qT3Y42UTi+lUj2Mag/09wf+9fft2hNCcOXOaUdRGGOcVFRVycnK9e/duLk/xzadGNXYaOULGYcwl1rTAa8riHEnINKKE+9EzWJkn7KOgz2nTTwZWcz6SnB4fQXb0TT9Fq20QyZAcHIGtxMYGGpGqc8TNEgqlJHs32ZB+dqLaxpjkFHo7R+vCknRp54enp2cw/st+VFZNFINpgSBEUpqmqztNiURwVY2RKYmnn3JM0iUfyS6hMM6rqKaUZB8h2wbU2uwMh66qtmHx6XG7nW3XkenHOxsHxocFxtMMDEoG/dDCcZ7MQ5Zpm1vo5zIbhuUzj8GowQ6GRcZHmOOaWJcaqTEOY6+h5ISzLkHHttYjNdvdtMMhnW3IZGtaB8g4OC4sgH4WC2eYVPoqJkVj2nmSTDLpGTm4djTFGbLp1h4LX1MQRjtnkkROwQ2k5ss7TQgpJydHSkpqyJAhX79+bUIwPH3q7Ew7I8TExOTdO/xAPJ4+bOWX3mGnkaPx65grzegCUe4EGqLxnrWn5bGKST/CmqW9xDwqI0Qy8o3LSI4JcCYfSQ6jHWWM1Gw8w5LomZb+Fa2s+icXlFHKHsX5muvSfLOSLMLi47Jpe714yH74TjyEkKKarr6umiLLOed0yWnxGjPOH2aVnPmr+n4Y/dBg5xisRnqXHWikQDhrjbZGgH4UM6HEMfI5cSCDkkw7gA0ZMk6EooWevZV2JJuhf1zyEbIv7RgbWttMsg7Lpp/uzrFukKZ1Dv2UdaRoHJhSUMYcVawuK0gOsHU+wSzv+MlzddckjGqWWKM+CqMNXpIIxzQyzp8nJG5DNUmDNRgXVjwkJSWFXsnphxXgFS8urWBVJMxMU8dfb29vhNDUqVP54QeLLc5p06b918m4e/cu2/2W/Fn9jn7krynhcCNi9DWUONooMK3oM041pz8tS6E3l3UUW2ppsjO9maadraCvq6uqgFi3UzFGw7l+TsvAJIvd2Ywz0olbsep5xJCZ19JH66zTVSAZ+abTBwarn8Q5qyrYMsfOaCWZhyyNGRJqrhHJ8b5kemvO6ACQnAknpNGFq84JMyIhpOZ8gj6iUUPJDjZUmOZLnHjg0nkgpkULXq9bRzup9fDhw3yNMyIiAiHUp0+ftLQ0vkbEr8BrKOletEYPjSPXGlq0vBXnTCK0NWzRY91Rlplz5hlj9TS4zE7//0tuAAAgAElEQVSsmmtE9jMK5Vl22DpD2ngPUvM8kZx8n9a3pC9pUTBeFxFX299Lz3nG7M7Sxaiv6DHk5LUQYYcWk4w8Y1KSY7ba2q5zpjVP48gxJwLD7lRza0eoBfvoLdi6ZAqzmeDM84zxDhJjcT61uix5oxoiLEFvuAnjbBbp7pZI02wDTyTXdoZv1jbQPJZ3XjokDYvHqApobTlXe4Sj10GlNlh7MHs4hsHsCwLw3Ec//raOFVL4SwJ/sWnTJtoh3aqqzesOphHGOZVKxUbW+/Xrd+PGDQEhxig29Laa+T/aGBJ9zIZ5g3iMGYvcJTHWrMY5lVp9P8xiFAkhBcYik5u+pFEWgSkFeNGlUjHPCrQuspIROeZRdfZWBUNHmkc0RtjYZkhC5IxLki7LupGqgritFkr0AX0sHBbRsB/vCpJ3OxvTTHfaP9IoXWPHsOQnzIgYH1DStxoq0J5ivqCqcwJ0SSQl7LRkNg7GJ8rYiW3NZrh5wwXG1rDRu9TG+5Jj1tECp/VpbAKxTgMuJyXV11CRhsFwXVxJDbX6TiAtYjt6pwob82MLk0ql78bH79ZeKNjE0awERj+eeZ9TNtb2A5ek5S8uX77cvXt3hNDZs2dbJnYXFxes33Dq1KmWibFpsWADusykxP5uzWZM49Te5j7iW33T15m4WpsmSkkyPSuSRlnQl8aVxZgqGK6LwIxShqhl6YE2arTsqqhGG8B6FmMxysL3BNarpgdBcwbB5R8j+zEVplwPc55FfxELB7vPlqXpwbCMwTM/Z/wtS2ceYUBSMmI9a40tKNOYMl7uYOE+S6b5fiPpkk9gh7Vm+47S1dWna42QgqptYEbtnD8uUXVpdsxWW5pNQv+noKpruzUmm/3FemoSbOy8Fp3vTfY6lnvdwizU9dYk9cTLnPfDY2ausK2/JmGr9zilrS/hcGqtfZGbm6utrY0Q0tTU/PDhQwuIk5GR8Z8J1L9//0ePHrVAdFyiYG0C2EboOGoPlrOIaG4R8a1ku2vHrxmxUApi1uErSMPoQ+0s8XMv9fQMTOuwMsoOazt407fOR4SweSt9tA8o+XG+WA1Ga3B94wiTDbxm6aqcMFMFhBSM6SP4bF+x86wpS9/tbEjr8ND6D8670xmbdenCN/AtQUF+X2KelnR0dPgdEZVKPXHiBFbZ+Pn5tUB0zRgFW3rRtfDNZuzDwitQlpWMtbE/i7HwZ1vPz0ODSyxT62IKqrJ9FQ2daW6JmQHTt1XXxo1fKdoSvSrWWfSYwdAmznhpwqoKIuxovWUFVduwOxTamISNAlI09E2lcFQdnGSMY0q5NHO0kQ26IwbPU9mB5owOu+G6GHyJDl3Gepsw1jqNuUIB242PE8EvSNggPltqcmnCEmNo/iFY/9XRrtUrHgaZ5jWjdrdp3CPmvB32lL3XQb9bT+3B1p9hW6GMhUmlUquSnWtX+eF3hebi6dOn+vr6CKFp06Y1+9B544xzKpWKuc2QkpISWg9VLZDw1dn+5JhHZQU3a2fO444EetrpkupcqtcCUjUyCsw4ZzeQGhkI5+vPYsj+6WXPcmoHC1NiwgLIxooEJzScXwnYnb/++gsh1LZt2/j4+JYULTIysmvXrgghJyenmhrmSG9LSiDscYlE9hOyRICa5LcSDNthS3MS5un5WwH85kfHjh1DCI0YMeLFixe/GQR8BgSajwC2d2zSpEkUCtu0RPPFwRrS3bt3J02ahBBSV1cX1il0Vo1a71dJzGrf9LKSnNqZ8+SY3YFkUwV2762tJ2KDMWPGeR12b4Nf1/lC9U1f8rGCskfZtZ3h+IhAL1tdUv2b5uoMUOgeUJKcDfG1usImvZ+fX5s2bRBC69ev54fsjTbOqVTqhQsXunTpghDauXMnP2QS9jBLjhg7x3NtRUoiHCNqV5EKuJ786FJXpXtOC8Q3qbMAyPCs9RDL8kDgfmD7P2VlZfnnBK4enV+8eDF37lyE0MiRIw8dOlTPm/CInYBIZD92pQT/N9QkjUyjixcvGhgYYG4gL1++3Mivm+H1AwcOIIQmTJhw7969ZggOggACv0sgODgYa+xevXr1u2H85nfYOSkIIXNz86ysrN8MRaw/q07fqBt4nxuCmnRPwqZubm8I0D2+GOdPIowd47jbCUecI54IkPp8E4USZyOUruD27dunrKz837LZsWPH8m+W+neMc5oj/Tt3MOE0NDSa61Q3vuWAlg2Y7t+Cza8jJgHlui/5FPtC0pYVrjGx0bvUrD4wGvM5l3fpHkSIW0Dxd2pKYlYHEv3S4E8E6uLy5csqKioIoYkTJ+bn57eibKGhod26daMt31ZUFKSjiVsRSYNRC332a1BDAX0BahKeEyYxMVFXl+bDCCHk6OjYiqtjMKNIQkLi4MGDPIsPLwKBZiNQWVlpYWGBEBo9enRRUVGzhduYgPLz8+fNm4eVx5kzZyYmJjbma3F/l+4+meA8iMCj5Bg5kOgtlfBIAC8x47xZZ4/o/mtd8SNgCEpTsn1Xs3uHIDwW/stqCoXuc6D6pq+u8AzQ0PYcUSi+vr59+vRBCPXo0YN/xydjafybxjn2sacn3VkaQmQyuRW7EYKVW98lOyvS3SqYk8NwTw8pMYGOhhbBgm9+1rLk4vyp9uFvXuXs1qVtblM0dPaqdRASd4RsYUROrvV1/5uB8/WzqqoqzCUbQkhAjkL98uWLv7+/nJwcQmjAgAFBQUE/fvzgKwRhD1x4s59Qk4eahJfkO3XqlIaGBmYGODk5PX78mJev+PrO5cuXBw8ejBBavnw51C18RQ2BsxFIT08fOnQoQmjZsmXfv39ne9rCP+/evWtjY4OVzYkTJx49erSFBRDW6O6H0Tt8CoaOnhHxzD2e8RFkc0My5sNVOBRj+Ngb71XrUrnJglOSXWn+X0ijLMi7Y5IZa/5pnm4NzQNzmE5bmxyLAAZQEEZ3zKmgqqukaBFHc9MrBP+ePn26evVqSUlJhNDQoUNDQkJa4GDjJhnn2BS6np4e5qfK39//06dPQkCa3yLWlKUfIdsSvLjZrovg8OLGbyGaEj67K69m3GxDyY8LdDRWo41f0J3MmToHnsgmOqFpitz8+Pb9+/dbtmzp0aMHQmj27NmtO2HOqeDPnz+DgoIGDBiAEOrSpYudnV16ejrna3AHIyB02U/IEw5qkgYS8OHDh5s2bVJUpFWIEhISbm5uz54J0DglhUJZtGgRtkJHQE9RbQAwPBYyAuXl5a6uDHf8+/btExzpnz17tnbt2k6dOiGEevfu7ejoCE1tw6lDKYgLcDaudURq7BzA6Yi04WBa7Q12x2bc/df+nnhlGRFkG12mt2clXRtyREoJ14Xuvxe+QH6FucEjKZkHcrrkFDSB379/Hx4ePmPGDMxcmTJlyrFjx1pMyKYa55ige/bsGTJkCEJIRkbG09OzvLy8xRSAiIAAnwiUlpauW7cOGy1TVlYW8A3eYWFhqqqMw4KGDRu2efPmv//+m09kIFggAASaQqCioiIsLGzq1KlYqz948OCNGze+efOmKWHy79vg4GDsZAptbW3wj8U/zhDyjh07pKWlEUL6+vp37twRQCAfP37cvn37+PH048oQGjRo0Nq1a2/duiWAooJIQAAI/AaBr1+/Hj9+HN/P0qZNGzMzs/Pnz/9GUE35pHmMc0yCiIiIMWPGYF6sV69eLWhzjE3BBN+KFYGcnBwnJyes3zxp0qTo6GhhUT83N3fDhg2DBg3ChNfS0tq3b19xcbGwyA9yAgERJvDhw4eTJ0+amppixbNjx442NjaXLl0SfJUpFMqaNWswsS0sLO7f5+rlSfD1AAkFlEB0dPTw4cMx32+xsbECKiVBrJycHE9PT0xmhJCysrK3t/fNmzcJr8AlEAACQkPg/fv3p06dsrS0xCbksKWyR48eraysbBUdmtM4xxSIjY1VU1PDbYMDBw60lm6tAhQiFV4CFRUVu3fvxuefdXR0WviktGZEd+HChSVLluC1zNixY9evXw/L8JqRMAQFBHgkkJub++eff+Ke3hBCBgYGUVFRX79+5TEEAXnt4cOHCxcuxBp3IyOjlp9MEBAOIEZzEfj48WNAQAC+7lIYDwDKyspyc3OTl5fHykWvXr0WLVoUEREhUPtTmiu9IBwgIGIErl275u3tjTt8QQjp6OiEhYX9888/ratp8xvnmD6pqalLly7FbIO2bdtaWVmlpKS0rqoQOxCoi0BiYiLe6ezcubO9vf2VK1fqelmI7ldXV588eXLZsmV416Fr165mZmaHDx9u+ZNphIgbiAoEmkiguro6ISHB0dER86mGEOrYseO8efP279///PnzJgbeup9fvXrV3NwcM0VUVFTCw8NbVx6IXRgJFBQUrFq1SkpKCiHUv39/Pz+/f//9VxgVwWXOyMjw9PScMmUKVjQQQqNGjXJzczt//nx1dTX+GlwAASDQugSKior279+/YMEC7MwjhFC3bt1MTEwOHDggOOtM+WWcY+i/fPkSERGBzxgMGjTIyckJhttbN19C7BiB79+/JyQk2Nvb9+vXD2tNZ86cGRUV1eq+YfmUQLdv3962bZumpibedRg/fryzs3NMTAyM8fOJOQQrVgTev39//vx5Dw8PHR2dNm3aYAVNSUnJzc3twoULv379EiUaT548Wbt2bZcuXWg+h0mkVatWwVnQopS+fNKluro6Kipq9uzZWOlQVVUVPefnb9++PXHihK2t7cCBAzE1JSQkNDU1165de/r06ZcvX/KJLQQLBIBAXQTu3LmzZ88eKysr7BgIrGD+1x/esmWLYB4Hzl/jHMf06NEjLy+vkSNHYkQ6depkYmJy9OhRcB2HI4KLliHw+vXr8PDwefPmdejQAcuNY8eO3bZt29OnT1tGgFaP5e3bt9HR0VZWVpiPdwyCgoKCpaXl3r17YTdpqycQCCBEBJ49exYTE+Pk5DRu3DisKCGEunbtOmvWrNDQ0EePHgmRLr8h6pcvX4KDg0ePHo3prqys7OPjU1BQ8BtBwSeiTeDcuXPW1tb4TitjY+PU1FTRVplKpT548CA4ONjQ0BA78AUrJoMGDVq0aFFISEh2dvbPnz9FHgIoCARansCbN2/Onj3r7u6uo6PTsWNHvHUeOXKkg4PD6dOnKRSBdo3fQsY5njAPHz78888/tbW1cVLa2tr+/v4w6I4jgotmJ/Dr16/MzMxt27apq6vjGW/69OnBwcGFhYXNHp0QBfj06dNjx46tWLECc+WIwenevfvs2bO3bt2alJRUWiokJ1EKEXQQVZgJUCiUK1euhISEWFhY4J4XEUIDBgwwNzffs2fPvXv3hFm/35T95s2bq1evxlchTZ06NSQkBKz036QpQp9dunRp1apVffr0wRoXbW3tffv2VVRUiJCKvKry8OHDw4cP29nZEVvbdu3aaWpqksnkqKionJycHz9+8BocvAcEgACBQHl5+eXLl4OCgqysrLDTSbE6p2vXrjNmzPDy8kpOThaimqeljXOcZHl5+dGjR01NTbGTMxBCnTp1mjlzpp+fn2CuMcAlhwuhIPDjx48rV674+Pjo6enhk+TdunWzsLA4fvz4+/fvhUKLlhSyoqIiMTHR3d196tSpbdu2xUcxSCSSgYHBhg0b/vrrLzEfy2jJ5IC4BITA69evz58/7+vra2JiQmzyEUJjxoxZsWJFdHS04GxUa3VoKSkpS5cuxWcqRo4cuXr1aqHwSN/q6ERGgJcvXx46dGjBggWdO3fG2pHRo0dv27atqKhIZHRsoiIfPny4dOmSj4+PoaFhz5498dZWQkJi7NixVlZWAQEBFy5ceP36dRMjgs+BgKgSyMvLO378+Pr162fNmoWPC2NFSVlZedmyZQcPHszNzRVS9VvNOCfyysjIYDOipKSkZsyY4evrm5aWJuBrD4iKwHXrEqioqLh06dKWLVt0dXXbt2+PldJOnToZGBjAoE+jkubHjx+3bt06cODAihUrVFVV8a42QqhLly5Tp051dXU9fPhwdnY2DHM0Ciy8LOAEvn79mpube/LkSQ8PD0NDw759++L9ZszDk5WVVWBgYFpamhCNwbc885qamsTEREdHRwUFBQxg586dFyxYcOjQocePH7e8PBAjvwn8+PEjMzPTy8tr8uTJeJHR1tbevn07bJVqEH5hYeGpU6e8vLzmzp2Lu5DEMJJIJH19fTKZHBkZmZ2dDdVOgzDhBZEk8PTp05SUlKCgoCVLlkyYMKFdu3Z4PSMlJTV58mRbW9tdu3ZlZGSIRhkRCOMcz0k/f/7MzMzcunWrvr4+vjcJITRixAhLS8vg4OBr1659/vwZfx8uxJxAZWXllStXAgMDzc3Nhw0bhpdVaWnpWbNmbd++HbZLNFcOyc/Pj46OJpPJenp6vXr1wlEjhPr06TNt2jRHR8fQ0NCLFy+Ce7nmYg7h8JvA27dvr127Fh4eTiaTZ8+ezTYxLikpOWXKFAcHh/3799+8eRNcLv9ecty/f3/79u3EvWz9+/dftGhRWFiY8E5r/B4KEfuqqqrqwoULnp6eOjo6eF+5d+/e1tbWx48fF40ucqskGYVCuXbtWlhYmL29vZqaGr68FGt2e/furaGhYWNj4+/vf+bMmby8PKiaWiWZIFI+ESgrK7t69WpERMT69evnz5+vrKyMT7ZhRWDgwIFGRkYeHh5//fXX33//zScxWjdYwTLO2VhcvXo1KCjIwsJi+PDhRGNgzJgxNjY2YWFhmZmZb9++ZfsKfoowgbKysvT09F27di1evFhZWZmYK0aOHLl48eJdu3bduHFDhAkIiGolJSUJCQk7duywsbFRU1Pr3r07MS2kpaVVVFQsLS23bt0aGxt78+bNVj80UkC4gRitReDjx4+5ubkJCQmBgYF2dnZTp06VlZUlZlpJSckxY8aYmZlt3rz5xIkTeXl5rSWqqMb777//njx50tXVdfz48Tj5nj17zp07d+fOnZmZmR8/fhRV3UVGr+Li4tOnT69Zs4Y4Q961a1dDQ0N/f///Dg0WGU0FSpHHjx/Hx8fv2LFj2bJlU6dOlZOTw0sQdqGgoDBjxgwXF5ddu3YlJSXl5eV9+PBBoFQAYYAAJ4HS0tKsrKyYmBgfH5//jtyePHkyW2eyTZs2w4cPNzIyIpPJBw4cuHLlirCfucgJgesdgTbOiRK/f//+8uXLO3bsMDU15Vz2o6ur6+Lisn///qtXr7579474IVwLL4F//vknIyMjLCzMyclJR0end+/exAZp6NChixYt2rlzZ0ZGBvTqWj2VX79+nZGRsW/fvpUrV86cORM/RQZPss6dO48ePdrIyMjV1TU4ODg+Pv7+/fvQgWj1hBMxAb5+/VpYWHjhwoX9+/evX7/ezMxs0qRJbFUHQqhXr16amprLly8PDAw8f/78kydPRIyDgKvz/v37pKSk9evXa2ho4FUEtkrO3Nw8ICAgLS1NTDphAp5ShYWFsbGx69ev19fXJ+6OJpFICxYsCAkJuXPnjoCrIJLivX///tatW9HR0V5eXgsXLpwwYQK+wx8vUD169Bg3btzcuXNXrlwZFBR05syZO3fuwISWSOYHQVbqx48fxcXFGRkZR48e3bJli42Nja6u7pAhQ9jmwxFC8vLyurq6Dg4OQUFB586dKywsFLEjSHlPJqExztlUKi8vv3jxYnBw8PLly9XV1bt27YrXR9g6Wz09PScnp8DAwPj4+Nzc3KqqKrYQ4KdAEfj48WNOTs6ZM2cCAgJWrFiho6PDNq/Vo0cPTU1Ne3v70NDQ1NRUWDInUMnHVZiqqqq7d+/+9ddfO3bscHBwmDlz5rBhw3DnfHiB7dmz58SJE01MTNzc3Hbu3BkTE5OZmVlUVPTp0yeuwcJNIFBTU/PixYvs7OwzZ87s3r3b3d3d2tpaU1NTXl4ez1f4Rf/+/bW0tJYsWeLt7R0ZGXnt2jU4wlOgslB1dXVaWtrOnTstLCyUlJTwhEMIKSoqmpqaent7x8bG3r9/H5bv8jvhysrK8DHWadOmEXtWnTt3njp16sqVKyMjIx8+fMhvSSD83yBQWlqanp5+5MgRb29v3ATCdxzgJUtaWnrkyJGzZs2yt7f39vY+cOBAYmLi7du3S0tLwV38b2CHT6hUamVlZWFh4ZUrV06cOBEUFLR27VpLS0tNTc3+/fvjGQ+/6N69+7hx4/744w9XV9fAwMDTp0/fu3cPzDRiRhJW45yoA3b94sWLCxcuBAUF2draqqmpycjI4PkAuyCRSOrq6lZWVps3b46MjLx+/fqrV684w4E7fCXw8+fPly9fXr169ciRI5s2bbKwsFBVVWWzwxFCPXr00NDQsLOzCwkJuXTpEhzoxddEaeHAsQwQFRW1ZcuWpUuXamtrc06zY2W2e/fuo0aNmjFjho2Njaen5969exMSErA+xNevX1tYbIiuJQn8+vWrvLw8Ly/vwoULERERW7dudXBwMDIymjBhAolEYqvbsZ+ysrJTpkxZuHDhhg0bDhw4cOnSpaKiou/fv7ek2BBX0wlUVlZmZmaGhIQsXrwYP0EdT/EhQ4bMnj2bTCZHRERkZWXBNOBvA//x48eTJ0/OnTu3c+dOW1tbDQ0N4sQ4Qqhr167Tpk1bs2ZNdHS0qG7s/G16wvXhy5cvr1+/fvz4cT8/PwcHBwMDAyUlpU6dOuHFinghJyc3btw4Q0NDW1vbTZs27d27Nz4+/ubNm8+fP4cRc+FK9+aV9t27d3///XdaWlp0dHRAQMDq1asXLVqkra09bNiwLl26ELMQfi0nJzd58mRTU1Mymbx79+7ExMTc3Fxw8s1LuoiOcc6p7Zs3b7Kyso4dO+bt7W1tba2hoYEftolnHQkJCXl5+SlTphgbG7u6uu7YsSM6OjojI+Px48dQDXEi5fFOVVVVYWFhenr6sWPH/P39nZ2d582bN2nSJDbXx1gq9OvXb+rUqUuWLPHx8Tl+/Hh2djbsT+aRsyi9RpwL3bVrFzYXqqurO2LEiLrq/a5duyoqKqqpqf3xxx/Lli1zd3cPDAyMiopKSUm5ffv2s2fPoAgLZg759u3b69evc3NzL1++fOLEiV27dnl5ea1YsWLBggVaWlpKSkpsHgfx6rpDhw4KCgoaGhpmZmb4OosrV67AOgvBTOhmkaq6uvr+/fuxsbHe3t4LFy4cO3Ys0VksQqhz586jRo2aM2eOi4sLNglz584d2N2Gw//161dJSUlGRsaRI0c2b968ePFiruOhcnJy2traDg4OISEhFy5ceP78OR4CXIgqgYqKivz8/NTU1MjIyO3bt69cudLU1FRTU3PIkCF1me4dO3bs37//+PHjp0+fvmjRIhcXly1btuzZsyc2Nvby5cv3799/+fLlly9fRJWYSOr177//FhUVZWdnJyUlHT16dOfOne7u7ra2tvPmzdPU1BwxYkSvXr0kJCTwhph40bt37zFjxsycOXPp0qUbN27cvXv36dOns7KyiouLIRs0JbeIsnHOlcunT5/y8vLOnj0bFBTk6upqbGw8ZcoUeXl5rjmvR48eI0eO1NLSWrBggYODw6ZNm0JDQ2NiYi5dupSTk/Py5UsxXGX3+fPnFy9e3L179+LFi9HR0SEhIZ6envb29sbGxlOnTlVSUurWrRux6GLXbdu2HTBggJqamomJyapVq0JCQhITE/Pz88H3PtdcCjfZCHz8+LGgoCAtLe3YsWPbt29ftWqVhYWFvr7+uHHj+vXrx9ZZJ2Y/aWnpQYMGjRs3TkdHZ968eUuWLFm1apW3t3dISMjRo0fj4+MzMjJycnJKSkrev3//8+dPtnjhJ48EKisrX758+eDBg2vXrp07dy46OnrPnj3btm0jk8nLly83MTGZPn36xIkTFRUV2dy9EBNLQkJCVlZWWVlZR0fH1NTU0dFxy5Ythw4dSk5Ozs3NhTlSHtNCHF4rKipKSkoKCAjA9ssMHz6csxKQkZEZOXKknp6epaUlmUzeuXNndHR0Wlraw4cPRWxX1Pfv31++fHn79u3ExMSDBw/6+Pg4OjrOnz9fVVV10KBBxCKGXffq1QvbSbR27drw8PBr167BWIY4lJrG6kihUAoKCtLT048fP75z504ymbxkyZLZs2erqqoqKipy7enhma1z586DBg0aO3aslpaWkZGRlZWVs7Ozh4fHn3/+eeDAgdjY2JSUlBs3bjx8+LC0tLSysrKxssH7dRH4/v37u3fvnj59eu/evYyMjLNnz0ZGRu7atWvr1q1r1661s7MzMzObOXOmqqqqkpKSnJwc564HPBHbt29PIpFGjRqlo6NjYmKyYsUKLy+vffv2nT179tatWy9evICFaXWlQtPvi51xXg+yV69e/e9//4uPj9+zZ8+GDRusra11dXVHjhwpKyvL1XTHcnCXLl0UFBTGjh2rpaU1Z84cCwsLR0dHd3d3Pz+/sLCwY8eOJSYmXrly5d69e4WFhcXFxaWlpeXl5e/fv//06VOr5Oxv3759+vTp/fv3//zzT2lpaXFx8aNHj7BinJCQEBUVtWfPHj8/v/Xr169YscLCwmL27NlTp04dM2bMoEGDOD2O4MW4TZs2cnJyysrKenp6S5Ys8fDwwBYh37lz582bN/Vgh0dAoOkEPnz48OTJk+zs7MTExMOHD+/YsYNMJi9evHjWrFkTJ04cOnRo7969Ob2P4LkXv+jatevAgQNHjhw5adIkHR2d2bNnm5mZ2djYuLi4uLu7b926NTg4+ODBg8ePHz979mxqauqNGzdyc3MLCwufPn36/Pnz169fl5eX//vvv5WVlV++fGmVAt4gzJqamurq6qqqqvfv3799+/bNmzcvXrwoLi5+/Phxfn7+rVu30tPTk5KSYmNjIyIidu3a5e/v7+HhsWrVquXLl5ubm//xxx96enqqqqqjR48ePHhwz54927ZtiwPkeiEhIdG9e3dslASbb3F1dd26dev+/fvPnDlz9erVgkh/exMAACAASURBVIICMA8aTDh4oX4Cr1+/vnHjRkxMjJ+fn52dnb6+vpKSUl2DQR06dBgwYMDYsWN1dHTmz5+/bNkyMpns6+u7d+/eEydOXLhw4datWwUFBcXFxa9evXr79u3Hjx+/fv3Kb+9EP378+Pz5M9Y6v3jxoqioKC8vLzMz8+zZs0ePHg0ODvby8nJxcbG0tDQ0NFRTU8MmtbgWurZt2/br109FRcXY2HjNmjW7d+9OSkp68OABOE+tPxfBU94JfP/+vaysLD8//8qVK6dPnz5w4ICvr6+bm5uVlZWBgcGkSZOGDRsmJycnJSXFNYsSb7Zt2xZrI7DGV1tb29DQ0MTEZMmSJY6OjmvXrt28efOff/65Z8+eI0eO/PXXX+fOnUtPT79169aDBw8429+PHz9+/vz527dvgjzg/uPHD6whplAo7969KysrKy0tffbs2ZMnTwoKCnJycrKysi5dunT27Nnjx4+Hh4eHhIT4+fl5eHi4ubnZ2dlZWlrOmzdvxowZGhoa48ePHzZsWN++fdlO3SMSJl7LyMj0799/1KhRU6dOnT9/vp2d3caNGwMDAyMjI8+fP3/r1q2nT5+Cs17eCwI/3gTjnFeq7969e/To0bVr1+Lj4w8ePOjn54fVQTNnzpw4cSJWB3Xs2JFYAHi87tChQ+fOnbt37y4nJ9e/f//BgwePGDFizJgxKioqampqWlpa06dPNzQ0nDt3rqmpqaWl5dKlS+3p/5YuXWphYWFqajp37txZs2ZNnz5dS0tLVVVVRUVl9OjRI0aMGDx4sLy8vJycXPfu3aWlpTl9cfEiYadOnUgk0rBhwyZNmqSvr49ZONOmTQsPDz979uz169cLCwvBrS6v2Qjea1UCVVVVr169evjwYVZW1vnz548fP753714/P79169bZ2dmZmZnNmDFj8uTJysrKgwYN6t27d11L+3gpOPg77dq1k5KS6tKlS/fu3Xv37t23b98BAwYMHjx4+PDhysrK48aNmzhxoqqq6tSpU6dNm6avr29oaPjHH38YGxsvXLjQ0tJyyZIly5cvX7FihZ2d3dKlS62srBYtWrRgwYK5c+fOnj17xowZurq6WlpaampqkyZNGj9+/KhRo0aMGKGoqDhw4MB+/frJycn16NFDRkamU6dO7du3r2ecERe4/gtJSckePXr0799/xIgRKioq06ZNmz9/vo2NzerVq318fEJDQyMjIxMSEjIzM3Nzc58/fw5tfKtmeYicWl1d/ezZs5s3b549e3b//v2bN2+2t7f/448/Jk+ePGzYsN69e9czd8RZFjp06NClS5devXr17dtXQUFh+PDhY8aMmTRpkoaGhq6u7qxZs+bOnWtmZmZtbW1ra+vg4GBjY2NhYbFgwQIjI6MZM2Zoa2urqalNmDBBWVl56NChAwYMwBroTp06NTjIRRSmU6dO/fr1wya1Fi1a5ObmtmPHjsjIyIsXL+bl5YHLQ8j3AkWgurr6n3/+efz48e3bty9fvnzmzJnDhw8HBwd7e3u7ubnZ2NgYGxtPnz590qRJWOMrKysrLS3d9NYKIdS2bVtJSUlpaemuXbv27NlTTk6uX79+AwcOHDJkyIgRI0aNGoU3wZqamjo6OtOnTzcwMDAyMpo/f76pqam5ubm1tbWNjY2dnd2KFSuWL1++ZMkSS0vLhQsX4q3wzJkz9fT0tLW11dXVJ0+ePGHChDFjxowcOXLYsGGDBw8eMGBAnz59evfu3b179y5dunTs2LFZGmKEUPv27bt169a3b9+hQ4eOHTtWQ0PD0NDQ3Nx8xYoV7u7u/v7+e/fuPX78+Llz565du5aXl/f8+XMKhcLvEUaBynjCKwwY582cdt++fXv37t3Tp09zcnIyMzMTExOjo6P37t3r7+/v5eXl7u6+evVqFxcXe3v7pUuXWlpaYqa1oaEhZlqrqamxmdaysrKYaV3PvF+HDh2kpaUx815eXh4z70ePHl2/ee/i4rJ69Wp3d3cvL6/t27fv3bs3Ojo6KSkpMzPz/v37xcXF796945z6u3r1KuaQafz48cXFxc2MD4IDAgJG4NevX8nJyVied3R0zM7Ovnz5ckJCQkxMDDaY7evr6+XltXHjxrVr17q5uTk7Ozs4ONja2i5evNjCwsLMzGz+/PlGRkYGBgbTp0/X0dHR0NCYMmWKiooK3n4rKCj079+fRCL16tWrW7du0tLSkpKS9ffUJSQkOnTo0KlTJxkZGazDIS8vP2jQIEVFRSUlpdGjR48fP37y5Mnq6ura2tp6enozZ86cM2fOvHnzTExM8N6Gvb29k5PTqlWryGSyu7v7pk2bfHx8AgMD9+/ff+zYsbi4uIsXL16/fj0nJ+fx48evXr2iUCicFYKAJReIAwR+h0BlZeWLFy9yc3OvXLkSHx9/+PDhwMDAzZs3u7u7u7m5OTk52draWllZmZmZzZ0718DAQFdXV0NDY+LEiWPGjBk+fPigQYP69u3bs2fPzp07c22pJSQkpKSkunbtKisrKy8vP2TIkJEjR44bN27KlCnY+Pvs2bONjY0XLVq0ZMkSe3t7FxcXMpns4eHh4+Oze/fu6Ojo8+fP37hxo6CgoKysDNxh/k4awzdCSODz589v3759/vx5QUHBnTt3rl69mpKScubMmaioqP379wcGBm7dunXTpk0bNmzA2l8XF5cVK1bY2tpymtD4QDbRhFZSUho6dCjWBOMmdOfOnaWkpBocs2vTpg3eCvfo0UNWVhY3+7GR97Fjx6qoqKiqqhLNfqwhZjP7HR0dXV1d16xZs379eg8Pj82bN/v7+4eGhh46dCgmJiYhIQFbpnf//v2ioiKsLf727ZsQpieIzCsBMM55JSUg7+GL0rGF8a1SPikUipGREeaJ5+jRowJCBsQAAs1O4Pv37+vWrWvTpo2srGxaWlqzh19/gD9//sTK+4cPHyoqKigUSlVV1devX+G0m/q5wVMg0LoEfv36VV1d/fHjx4qKiqqqKhjSat3kgNiBwG8TwHeBYetW8vPzP336BK3wb/OED3kkAMY5j6DgNXYC/80tYFvQjY2NYRsbOx34LfwEioqKsJOcDAwMRMyDlPAnDmgABIAAEAACQKCFCKxduxYhBKcYtBBusY8GjHOxzwJNAFBcXDx+/HiEUL9+/W7cuNGEkOBTICBYBPbt29exY0cpKamwsDDBkgykAQJAAAgAASAABFqQABjnLQgboqKCcQ6ZoEkEampqPDw82tD/bdy4saampknBwcdAoLUJVFRUGBgYIISUlJQKCgpaWxyIHwgAASAABIAAEGhNAmCctyZ98YsbjHPxS3M+aHzjxo1+/fohhMBLHB/oQpAtRyAtLU1WVhYhtHLlylZx6NByqkJMQAAIAAEgAASAAA8EwDjnARK80mwEwDhvNpRiHtDHjx+NjY0RQtLS0hEREWJOA9QXOgLfvn1zcXFBCLWK7zehwwUCAwEgAASAABAQEwJgnItJQguImmCcC0hCiIgYkZGRXbp0QQgZGRlRKBQR0QrUEHUCDx48UFJSQgjp6emB7zdRT23QDwgAASAABIBAIwiAcd4IWPBqkwmAcd5khBAAK4Hnz59PmjQJIUQika5evcr6EH4BAcEi8OvXr6CgIElJSSkpqd27dwuWcCANEAACQAAIAAEg0NoEwDhv7RQQr/jBOBev9G4ZbX/8+OHl5dW2bds2bdqsX78eTnltGewQS2MJlJWVaWlpge+3xnKD94EAEAACQAAIiA8BMM7FJ60FQVMwzgUhFURTBtxL3OjRo4uKikRTSdBKaAkkJSV169YNIeTi4gK+34Q2GUFwIAAEgAAQAAL8JQDGOX/5QuisBMA4Z+UBv5qVAO4lrlOnTgcPHmzWsCEwIPCbBD5//mxra4sQ6tmz54ULF34zFPgMCAABIAAEgAAQEAMCYJyLQSILkIpgnAtQYoiqKNHR0TIyMuAlTlTTV7j0ysnJGTx4MOb7rby8XLiEB2mBABAAAkAACACBFiYAxnkLAxfz6MA4F/MM0ELqg5e4FgIN0dRN4OfPn76+vu3atZOUlAwNDa37RXgCBIAAEAACQAAIAAEGATDOISu0JAEwzluStljH9ePHD29v77Zt20pISJDJZPASJ9a5ocWVf/Xqlbq6OkJo6NChBQUFLR4/RAgEgAAQAAJAAAgIJQEwzoUy2YRWaDDOhTbphFPw27dvDxw4ECEEXuKEMwGFUuq4uDhsY4WTk1N1dbVQ6gBCAwEgAASAABAAAq1BAIzz1qAuvnGCcS6+ad9amldVVVlZWSGEOnbsuG/fvtYSA+IVBwIfP360tLQE32/ikNagIxAAAkAACAABfhAA45wfVCHMugiAcV4XGbjPXwL4ZKaBgUFFRQV/I4PQxZIAfpifnp4e+H4TyywASgMBIAAEgAAQaCoBMM6bShC+bwwBMM4bQwvebVYCr169mjRpEkJIVlY2LS2tWcOGwMSaQE1NjaenZ9u2bTt06BAcHCzWLEB5IAAEgAAQAAJAoAkEwDhvAjz4tNEEwDhvNDL4oBkJ/PjxY+vWre3atZOQkHBzc/v27VszBg5BiSeB4uLi8ePHY77fHjx4IJ4QQGsgAASAABAAAkCgWQiAcd4sGCEQHgmAcc4jKHiNjwRwL3FKSkrgSZuPoMUg6IiICGlpaYTQihUrwPebGCQ4qAgEgAAQAAJAgL8EwDjnL18InZUAGOesPOBXKxGoqqpasmQJQkhKSiosLKyVpIBohZgAhUIxMjIC329CnIQgOhAAAkAACAABwSMAxrngpYkoSwTGuSinrtDpBl7ihC7JBETgq1evkkgkhJCWlhb4fhOQRAExgAAQAAJAAAiIAAEwzkUgEYVIBTDOhSixxELUV69eqaurg5c4sUjs5lDy+/fva9askZCQ6NChQ2Bg4K9fv5ojVAgDCAABIAAEgAAQAAI0AmCcQz5oSQJgnLckbYiLJwI/f/708/Nr164dQmjlypXgJY4namL5UlFR0ejRo8H3m1gmPigNBIAAEAACQKAlCIBx3hKUIQ4mATDOmSTgr4ARyMnJGTx4MEIIvMQJWMoIijh79uyRkpJCCNnb24PvN0FJFZADCAABIAAEgIBoEQDjXLTSU9C1AeNc0FNInOX7/PmzjY0N5iVu165d4owCdCcSKC8v19PTQwh169YtKSmJ+AiugQAQAAJAAAgAASDQjATAOG9GmBBUgwTAOG8QEbzQygSSkpK6deuGENLT0wNfX62cGAIQ/YULF3r27In5fisrKxMAiUAEIAAEgAAQAAJAQGQJgHEuskkrkIqBcS6QyQJCsRIoKyvDvMT17NnzwoULrA/hl7gQqK6udnR0RAi1b98+ICAAfL+JS8KDnkAACAABIAAEWo8AGOetx14cYwbjXBxTXUh13r59O6L/c3FxgT3GQpqIvy12bm6uoqIiQkhBQeHevXu/HQ58CASAABAAAkAACAAB3gmAcc47K3iz6QTAOG86Qwih5QjgXuKGDh364MGDlosYYmo9Ar9+/QoKCpKUlEQILV++/PPnz60nC8QMBIAAEAACQAAIiBcBMM7FK71bW1swzls7BSD+RhL4/Pnz8uXLEUKSkpJBQUGwtrmR/ITs9fLyci0tLfD9JmTJBuICASAABIAAEBAVAmCci0pKCoceYJwLRzqBlGwEcC9xWlpa4CWODY7I/ATfbyKTlKAIEAACQAAIAAEhJQDGuZAmnJCKDca5kCYciE0tKyvD5lTBS5zo5Ybq6moHBweEUIcOHXbu3AnrI0QviUEjIAAEgAAQAAJCQQCMc6FIJpEREoxzkUlKcVTk169fAQEBHTp0QAg5ODiAlzjRyAQPHjwYOnQoQgg8C4hGgoIWQAAIAAEgAASElwAY58KbdsIoORjnwphqIDMLAbDlWHAI8w/iaMuKFStgtEWYExNkBwJAAAgAASAgCgTAOBeFVBQeHcA4F560AknrJgCroOtmIzRPYJ+C0CQVCAoEgAAQAAJAQGwIgHEuNkktEIqCcS4QyQBCNAsB8B/WLBhbJRDcw5+enh54+GuVJIBIgQAQAAJAAAgAAU4CYJxzMoE7/CMAxjn/2ELIrUAATt5qBehNi/Lz58+2trbY2XjBwcFNCwy+BgJAAAgAASAABIBAcxIA47w5aUJYDREA47whQvBc2Aj8+vUrKChIUlISIbR8+fLPnz8LmwZiJG9OTs7gwYMx328FBQVipDmoCgSAABAAAkAACAgDATDOhSGVREdGMM5FJy1BEyIB3Evc4MGDc3JyiI/gWhAI/Pz509/fv3379gghZ2dn8P0mCIkCMgABIAAEgAAQAAJsBMA4ZwMCP/lKAIxzvuKFwFuTQHV1tZOTE0Koffv2O3bs+PnzZ2tKA3ETCLx69UpdXR0hBGfUE6jAJRAAAkAACAABICBwBMA4F7gkEWmBwDgX6eQF5ahU3Eucurp6WVkZIGl1AnFxcTIyMggh8P3W6mkBAgABIAAEgAAQAAJEAm5ubp1Z/0nQ/0lLSxNvy8jIwHY8Ije4bi4CYJw3F0kIR3AJlJeX6+npIYS6deuWlJQkuIKKumRVVVVLly5FCElJSe3evVvU1QX9gAAQAAJAAAgAASEjkJWVhRr616ZNG3V1dSFTDMQVEgJgnAtJQoGYTSYQGhqKeYmzsbEBL3FNxskewK9fv9hvsf7OyckZOHAgQkhJSQkGm1nZwC8gAASAABAAAkBAUAiMGDFCQkKifgsdzpcRlNQSOTnAOBe5JAWF6iZQUFCgpKSEEKrfS9yhQ4fOnDlTdzDwhAsBZ2fnlJQULg+o1J8/f27btq1du3YSEhKrVq369u0b19fgJhAAAkAACAABIAAEWp3Apk2b6rfMEUIvX75sdTlBAJEkAMa5SCYrKFUngW/fvrm6uiKE2rVr5+fnx+klrqCgoH379nJycuXl5XWGAg9YCZw8eRIhpKCgUFlZyfqEivt+k5WVTUtLY3sKP4EAEAACQAAIAAEgIFAEcnNz6zfOZ8yYIVACgzCiRACMc1FKTdCFVwJpaWmysrIIIXV19VevXhE/09XVxWpkMzMz4n24rovAmzdvevXq1aZNG4SQtbU18TXc95uBgUFFRQXxEVwDASAABIAAEAACQEAwCUycOBHr2HC10sPDwwVTbJBKBAiAcS4CiQgq/A6BiooKzEucjIxMXFwcFsTmzZuJtfCePXt+J2gx+2bBggVEaAcPHqRSqVVVVVZWVgihjh077t27V8yQgLpAAAgAASAABICAEBPYsWMHsW/Ddv3+/Xsh1g1EF2wCYJwLdvqAdHwmsGfPHikpKYTQ4sWLExISiJUvdnJGbm4un0UQ7uBDQ0PZoLVr1+7kyZOY77fRo0cXFRUJt4YgPRAAAkAACAABICBmBJ4+fUrs3hCvjY2NxQwGqNuiBMA4b1HcEJkAEsC8xHXu3FlBQYFY+WLXWlpaAiizgIh07949TmKYvz0JCYk1a9Z8//5dQEQFMYAAEAACQAAIAAEgwDsBHR0drj7bT5w4wXsg8CYQaCwBMM4bSwzeF00Cs2fP5mpnIoQ8PT1FU+cma6Wurl4XtMWLFzc5eAgACAABIAAEgAAQAAKtQyAsLIyzk9OxY0eYeGid9BCbWME4F5ukBkXrJhAREcFZ/xLvXLx4se6vxfSJu7s7ERHnNUAT05wBagMBIAAEgAAQEH4C//zzD2ffBuYehD9hBV0DMM4FPYVAPn4TKCwslJSU5LpyCa+UFRUVP3/+zG9JhCj88+fP43Dquhg8ePCnT5+ESCkQFQgAASAABIAAEAACOIE5c+awdXKSkpLwp3ABBPhBAIxzflCFMIWJwPTp09lqXq4/ly1bJkxa8VPWysrKQYMG1T+cgTFcsmQJPwWBsIEAEAACQAAIAAEgwC8CkZGRxD5hr169+BUThAsEmATAOGeSgL9iSWDLli3Earf+66NHj4olJHalFy9eXD8o4tNDhw6xfw+/gQAQAAJAAAgAASAg8AQ+ffrUtm1bvFfj5OQk8CKDgEJPAIxzoU9CUOC3CVy+fNnKyqpnz55YtdumTRu8/uW8aNOmjbS0dHFx8W9HJxofNrg/n4hOT08vICDg0aNHoqE7aAEEgAAQAAJAAAiIFYFFixbhHZuMjAyx0h2UbRUCYJy3CnaIVLAIXLt2zdPTc+LEiXj9W9fFrFmzBEv0lpXm8ePHkpKSXEcx8Jt9+/a1tbU9depUZWVly0oHsQEBIAAEgAAQAAJAoDkJnDlzBiEkISGhoKDQnOFCWECgDgJgnNcBBm6LJYGXL18eOnTIxMREWloas885d1Zv375dLNnQlJ4xY0ZdwxYaGhpbt269ffu22MIBxYEAEAACQAAIAAHRIyAjI4MQWr9+veipBhoJIAEwzgUwUUAkgSCQmppKJpNHjRrFaY5mZWXVJWJNTc2XL18qKyv//ffff/7559WrV8+ePXvy5ElBQUFeXt69e/du3bqVlZV15cqV1NTUlJSUxMTEuLi4v/76Kzo6+ujRo+Hh4fv27du1a1dgYOCOHTu2bdvm7e3t4eGxbt261atXu7i4ODk5rVy5kkwmu7u7b9q0ycfHx8/PLyAgIDg4eM+ePQcOHIiIiIiKioqJiTl16tTZs2fPnTt38eLFtLS0q1evZmdn3759+/79+/n5+YWFhcXFxS9evHjz5s3bt28pFMqnT5++fv3669evulTbtm0bhgKfJO/Ro4elpeWxY8fKy8vr+gruAwEgAASAABAAAkCgtQh8+/atqqqqoqLizZs3z58/f/z4cX5+/r1797KzszMzM1NTU8+dOxcXFxcbGxsZGRkeHh4WFhYUFLR9+3YfHx8PD4+1a9cqKysjhMzNzd3d3b28vLZt2xYQEBAaGrp///7Dhw9HR0efOnUqISEhJSUlPT39+vXr//vf/3JzcwsKCp4+fVpaWlpeXk6hUL58+fLjx4/WggDxChEBMM6FKLFA1BYi8PXr17KysoKCguzs7OTk5NDQUEtLS2VlZdwo7dmz56JFi+bMmaOjozNp0iQlJaX+/fv36NGjQ4cOnJa80N3p1KmTrKysgoLC6NGj1dTU9PX1582bp6+vjysiLy9vYGDg6ekZHx+flpZ279694uLi9+/ft1DyQDRAAAgAASAABICAeBP4559/8vLyUlNT//rrrwMHDuzYscPd3d3BwWHhwoUzZ86cMmXK8OHD5eTkJCUl8d6LIFzIyMgMGDBgzJgxWlpaf/zxx+LFi1euXLl58+bg4OAjR47Ex8dfv369qKjo48eP4p28Yq09GOdinfxipXxVVVVxcfHNmzcTExMjIyNDQ0O9vb1Xrly5ePFiIyMjTU3NUaNG9evXr1OnTjxW3x07duzdu/egQYNGjRqlqqqqp6c3d+5cc3PzxYsX29raOjg4uLi4uLm5rVu3zsPDY/Pmzdu2bdu+fXtgYGBoaOjevXvDw8OPHDkSHR0dGxt75syZhISE5OTk1NTUjIyM69ev37x58+7du3l5eX///XdRUVFJSUlpaWlZWdnbt2/fvHnz4sWLp0+fFhYW5ufn379///bt29nZ2VevXk1LS7t48eK5c+fOnj176tSpmJiYqKioiIiIAwcO7NmzJyQkJCAgwM/Pz8fHZ9OmTRs2bCCTyatWrXJycrKzs7OxsbGysjIzMzM0NNTW1lZRURk+fLi8vHy3bt3atWvHCxMJCYnu3bsPHjx4woQJenp6JiYmy5cvX7dunZ+f3759+2JjYy9dunT//v3Xr1/X1NSIVd4DZYEAEAACQAAIAAHeCVRXVz9+/Dg1NTUqKiogIIBMJltZWenr648dO5ZEInFuOST2UtgMYEtLSxsbGwcHh5UrV65du9bDw8PHx2f79u1BQUFhYWHh4eGRkZGxsbFxcXHnzp1LTU3NzMzMzs6+d+9efn7+48ePnz9//ubNG3d399LS0uLi4kePHuXm5t6+fTsrKys9Pf3ChQuJiYmnTp06fvz4kSNH9u/fv2vXrp07d/r6+m7evHnDhg2rV692dna2s7NbvHhxowYOpKWlBw8erKqqOnfuXHt7ey8vr7CwsNOnT9+8efPNmze8k4Q3hY4AGOdCl2QgMBcCv379evPmTW5ubmpq6vHjx4ODgzds2LBs2bI5c+ZMnjx50KBB9ZvcUlJSJBJJSUlJXV3d0NDQ0tLS2dl506ZNQUFBhw8fPnXqVEpKyrVr1+7du/f48ePXr19/+PAhNzf39OnTXEQRxVupqanV1dUVFRXPnz9/+PDh//73v/T09MTExBMnTuzfv9/f33/9+vV2dnYmJibTp09XUVEZPHhwjx496m87e/bsqaSkpK2tbWpq6uzs7OPjs3///ri4uOvXrz9+/JhCoYgiSNAJCAABIAAEgAAQqCVQUVGRk5OTkJCwa9cuMplsamo6efJkEolENLbxaxkZmaFDh2pqai5YsMDJycnHx+fAgQOnT59OS0u7e/fu06dPKyoq+LR0vKCgoFbo5rv6/Pnz69ev//777xs3biQnJ8fExISEhGzYsMHGxsbQ0FBFRUVeXr59+/Y4AfxCUlJy6NChenp6NjY2W7ZsOXLkSFpaWlFR0bdv35pPOgipdQiAcd463CHW3yBQU1Pz7Nmz69evx8bGBgYGurm5mZiYqKqqysvL47UV24WUlNSAAQMmTpxoaGi4dOnS9evXBwYGHjt27Ny5c1lZWQ8fPnz9+vXnz59/Qxj4hBcCFAqlpKQkJycnPT39zJkzBw8e3LZtm6ur68KFC6dNm6asrNy7d2+2JMN/du7cefjw4Xp6ekuWLPH09Ny/f39SUlJOTs7bt295iRreAQJAAAgAASAABASHwLdv3/Lz88+cOePv77906VJ1dfVevXrhjT5+0b9/fw0NDXNz8w0bNuzbty8xMfHWrVvPnj378uWL4OjSwpJUVFT8/fffGRkZsbGxf/75p7Ozs5GR0ZgxY7p164ZzdXKmWQAAIABJREFUwy+GDBkya9YsNze3ffv2paWlvXz5soWlheiaSACM8yYChM+bn0BVVVVubm58fHxgYKCLi8v8+fMnTZrUp08fvN4hXvTr12/KlCkLFixwcXHZunXrgQMH4uPjs7KyioqKPnz40PzCQYjNTeDnz59lZWV5eXmXL1/Gxow3btxoa2trYGAwatQorg1Px44dFRUVdXR0rKysNmzYEB4enpaWVlJS0tyiQXhAAAgAASAABIDA7xD49u3b7du3IyIiVq1aNWvWrCFDhhA7bwghEomkra1tZ2e3bdu2qKiozMzMkpISPs17/44CQvINhULJy8s7d+5cWFjY+vXrTU1Nx4wZIyUlRaTduXNnFRUVc3NzHx+fhISEZ8+eCYlyYiomGOdimvACovabN2+ysrKioqK8vb2tra3V1dU51zK1bdt24MCBGhoaZmZma9asCQ4OPnXq1I0bN168ePHz508BUQTE4B+BysrKgoKC1NTUo0ePbtu2zcHBYfbs2ePGjeMccW/Xrt2wYcMMDAycnZ2DgoLOnj2bl5dXVVXFP9kgZCAABIAAEAACQIBKpb59+/by5cuBgYHW1tZjxowhGocdO3YcO3asmZnZpk2bjh079r///Q82r/E7zzx79uzixYu7d+92cXHR19cfOHAgMUV69uypq6u7evXqyMjI+/fv13NSD7/lhPA5CYBxzskE7vCFwI8fPx48eHDy5Elvb29sYA8/SxyvL0gkkrq6urW1tbe3d1RUVFZW1uvXr/kiDQQqEgS+fPlSWFiYkpISFha2evXquXPnjh49mjNf9enTR1NT097ePiQk5NKlS6WlpSKhPSgBBIAAEAACQKDVCPz48eP69esBAQHz588fMGAA3pdDCA0ZMsTY2BjmaVstbbhF/Pnz5zt37kRERLi6uk6dOrVr1654krVr127ChAlOTk7R0dFPnjzh9jXcazkCYJy3HGuxiqmmpiYvLy82NtbLy8vExGTkyJF4FYBdDB06dObMmY6OjoGBgfHx8bm5uTDDKVY5hK/Kvn79+vr165GRkZs3b7ayslJTU5OVlSXmwO7du6urqy9fvjw4OPjixYsvXrzgqzwQOBAAAkAACAABESBQVlYWHx+/bt06TU3Ntm3b4g2rioqKjY1NaGjolStX4GhVYUnooqKi06dPb9q0ycjIiDi8Ii8vb2pqGhwcfPPmTWHRRZTkBONclFKzNXX58OFDenr6zp07zc3NlZSU8Poauxg+fPj8+fM9PT1jYmJycnK+fv3amrJC3GJJ4J9//snIyAgLC3Nycpo2bZqcnBwxl3bt2lVdXd3V1fXo0aMPHjwQS0KgNBAAAkAACAABdgKVlZXx8fGOjo7Dhw/H280ePXrMnj3b19c3PT1dnF21scMS5t8lJSUxMTEuLi4qKip4QktKSurq6vr7+9+5c0eYlRMm2cE4F6bUEihZKysrMzMzg4KCLC0tR4wYgRdjhJCSkpKxsfGmTZtOnDiRm5v7/ft3gZIchAECGIHy8vIrV67s27fPxcVFV1eX6Dq+U6dOmpqaK1eujIqKys/PB2JAAAgAASAABMSKwO3bt/38/KZNm4Z38IYPH7506dKDBw/CELbI54TKyspLly75+PgYGBjgpxH36dNn8eLFx44dKysrE3kCraggGOetCF/4oi4oKDh48KC1tbWysjJeWSOERowYYWFhERQUdOXKlcrKSuFTDCQGAnQCxcXFp0+f3rBhw4wZM3r27Iln8s6dO2tpaZHJ5MTERFiwB5kFCAABIAAERJVAXFyctbU1fkSOtLT03Llz9+zZU1hYKKoqg14NErh8+bK7u/uECRPwftHkyZM3b96cl5fX4LfwQmMJgHHeWGJi935+fv7evXsXLVrUr18/vEwOGzZs0aJFO3fuTE9PB5ebYpcnxEbhJ0+enDx5cv369dOnT+/Rowee/1VUVNzc3OLi4uDQdbHJC6AoEAACQECUCZw7d87GxkZGRgZr6SZMmODu7p6WlibKOoNujSdQWlp69OhRCwsLfLHh+PHjfX19CwoKGh8YfMGdABjn3LmI+d3c3Nzdu3ebmpoSDzYDg0TMcwWo/+DBg7179y5cuLBv3764oT5u3DhXV9dTp07BKBXkECAABIAAEBAuAhcvXrS3t8ePJlVTUwsMDCwpKREuLUDaViFw+fLlFStW4A53p0yZ8ueff0LmaXpagHHedIaiE0JaWtrq1auJDj8mT55MJpMTEhL+/fdf0dETNAECTSbw999/HzhwwMLCon///rihrq+vHxIS8vjx4yYHDwEAASAABIAAEOAXgcrKypCQkFGjRmHt18SJE/39/WHhOr9wi3q4ycnJtra23bt3x7KTmZnZpUuXRF1pPuoHxjkf4QpF0B8/foyNjbW2tsZX7Q4ZMsTV1fXcuXMfPnwQChVASCDQugQKCwvDw8Pnzp3bvn17rGUaN26ch4dHVlZW6woGsQMBIAAEgAAQIBK4d++ek5OTpKQkQkhWVnbjxo3g9JTIB66bQiAhIWHu3LlYR2j8+PFhYWHV1dVNCVA8vwXjXDzTnaZ1dHS0gYEBVoQQQlOmTNm6devdu3fFlwhoDgSaRuDbt2/x8fHLly/H173369fP2dkZTgptGlf4Ggj8v70zgW8pa//4MRjLeO0dQTGlaClaisbSaqklY3mFKqFMpYaKWiZjqTJMGwyNrTKWytQ2KTpSgzf2lNFXavT9t9bWKOnQ0aAIOgSl9//ee5Obe9PU22q0N+3zft7PSO5yznO+J733+Z3znOcAASAABMpK4OTJk/7+/qTX16dPn59++qmsJcL9QMAagYyMDLFY3LBhQ4RQvXr15s+fD+G31jgVewzEebFoKuuJ33//PSwsjAo+GT58+ObNm+/cuVNZ2wvtAgIVQiA5OTk8PLxr166kJ9SrV6+YmBjI9F4hfQGVAgEgAASqMoGLFy+OHj2afBlNmTLl3LlzVZkGtL18CBQUFGzdurVnz56kRJdIJG/fvi2fqu29FhDn9t6DJbVfr9dv2rSpd+/e5NO5R48e69evz8vLK+n9cB0QAAIfRECj0cycOZNKgTtp0qTjx49/UElwExAAAkAACACBUhD4448/goODScdv8uTJkFK7FOzgUhsR2LNnD7kBs6Ojo0wms1GplbkYEOeVuXfJtj1+/Dg8PJxcDfuPf/wjNDT0/Pnzlb/Z0EIgwCYCb9++3blz56BBg0gnydPTc9++fWwyEGwBAkAACACBSkUgOjqafOOMGjUKVldVqq61w8bIZDJyS+bevXtfvHjRDltQfiaDOC8/1uVf0/Pnz7/77ru6desihHr27Lljx46CgoLyNwNqBAJAgCKQkZGxePHiTz/9FCHE5XKVSiV1Cj4AASAABIAAECg7gbt3744cORIh1K1bt2PHjpW9QCgBCJSdwNu3b6OiosgBo7Vr15a9wMpaAojzytmz7969k0gkDRo0IB/Ne/bsqZzthFYBAfsk8ODBgwULFlSrVg0h1L9//0OHDtlnO8BqIAAEgAAQYBcBhUJB5hWaNWsWuywDa4AAhp09e7ZLly4IoVGjRt29exeQFCUA4rwoE7s/otFo3N3dEUKdOnWKi4uz+/ZU4gbkZahiRDxnviKnEjfyw5pmSFvjx+H4SVMr8yYc9+7dmzt3LjmKHBYW9mGk4C4gAASAABAAAiSB9evXk3uk7d+/H5gAAWsEDLoUhWSCKydSY+1seRwrLCycOXMmQsjFxeX27dvlUaVd1QHi3K66qwTGks9lhFB0dHQJLq+YSzSRpB6h/1eiyVHw6Qdon528/PihUkWKrhzM1cXTrPCSaPKL1Glp54dKa12GOkkhxkdRPrSEIqYxD+i1R+XiYD+uM4GS4+oXLFGk6AwFelWssjxQMq0p5bcqIc5JJn/++Se5L2jPnj1TU1NLCQouBwJAAAgAASCAE9i4cSNCyN3d/d69exVFxLqDZ90agzpcYMeTEzqNYo2I7+vKIZwsJy++KEaVkYdhmTJ5ivUGs+CoPu2oShHOxU2uOHFOcti6dStCyNXVVavVsoAMi0wAcc6iziijKfn5+YGBgQghNze35OTkMpb20W8v0Knme+BPB/cINS1nvD5VysOP0vSqQa9NkYt98acfN0xVHn/BBn1avIh4dCFOkMJqjfqkCA/Ek6bqywhKs5TZ2DIWR92ercSJOfMl8RqtcXzBoM/WyOf5EW8RSYWNl1IWwgcmgZUrVxLvd7Rp0ybmGfgGBIAAEAACQOB/ENi0aRNCqGvXrjk5FR2MV4yDZ9mAPKUQIY81aZbH7eC7Pi2G74Q4ftNkqky9McAvX5dxVMonpkP48bafATEkyZW26tgUCRvEOYZhmzdvRgh17tw5OzvbDrq9vEwEcV5epD9+PeQmliEhIW/evPn4tdmgBuMcdaiKKXA1xDODJs7JqvI1Ei9CtX+ER57VxmRs9iPFEjdSYy20WhOBbCBxiTHmIo21alDJD2YrBByEvCQaJlmyAO1uAccWlpfcHLiyhASSkpJcXFwQQjt37izhLXAZEAACQAAIAIFLly6RczN37txhA41iHDyGaWlriBkajlhdNESRcSHbvhg0kVyEOILd1uZu9Liz+hHEuVY+zHa+ImvEOYZhMpkMn6Ti89nWzRVoD4jzCoRvy6oXLFiAELKv5B/GZ7dlXE0x4hzDtLGEWg4qp5BsXTyfv1SCq1zEEcQXfQRrJLaQuLYX54Y0YhTDQ5JibUgB/9HplcEiixERW/4WoawyEMjJyWnVqhVCCPY7LANFuBUIAAEgULUIkGujzpw5w5JmF+Pg0azLV4udBYIAfBKEF1fUxaJdybKPugTCMQxQFDs5ni7lrbNtOIBejQeiV05xjmFYcHDwf4eWDhw4wLKurjBzQJxXGHobVrx9+3aE0JAhQ2xYZjkUVcyzu1hxbrye+UDUp8pFI8gFPxzXESI5M87ckC4XDXPC5bUbT7Q0QhjDjObWqaXBfsTNTtxgqYYWXY9hGC7O43WGFAkR384tonVp4py2Ct00XEq2wtpUv04tC+WRlfLmK2RhRcPaDRmJEqEXbjbzf7SJ+gKdeo3Qzw0fOXDyEkqTzVPk2jhiWYC//H3vuhSFOTiqQKuKFBrXpTtzhZEqLW27PX2mShbKcyKY65OlhFUc1wmyNGKcW39VISbwOg0Tq2gRSWSuEUG8DivQKucTjXXmCmPSzFYSPy/tUaqZTtxgCb0EzKDTxEsEbhyJxcKtPI2JHoONEbsxwR4BKluF5ztByGmYhL5uohx+2GWsIikpCSHk7Oz88OHDMhYFtwMBIAAEgEClJ7B//36EUEhICHtaWoyDZzZQG8fjrkszJEXgfoy79D1a1pCplARzCZeI4zpCrLhq4UroNTEiHuEOIWeucI1aR/NhMEyfES/mEw4Vx40njs9gzFpkq0k/Ab9xvlQcTpv7Ke6UQU1YjMQnGSWZG4Z/0iniGd6mLklm9FQ5rrxQmZoh643p2XCXCdOnxYl4zghxXIVxJlNzVOS6TrPTQ8xpGd2zSA2WnyGf5spBTsJEqly92Y3E/TplhgUzNs2cYxh29+7dTz/9tHPnzkyMVfcbiPPK0PcuLi5OTk46HfVnaR+NKubZXZw41yqIEVZuTAbVPEOqhIs4ogSi4XlqYsZYqKQ0do6CzxEosogHaF6aPIhDz35hSJH4+YqUxFl9utwYB06LrSLFOYZh2njj9LmCpj8xjCbOcYP06qV4gJZJnOOHtHF4bjn6EQwPOOcIYtP0BRhm0KnInByM0VAiXMpktj7JODQgu0o1GsPyNRJfP1GiFm8Y2S5EjR1o5cPwB7hHSUdtdcogDhomJXSzgYh4Ny8AyziqVKzk4S/OALk6XiSMVKiSlNIAYrAjXJ1xWCyYJlXgmUWIa4aRwwE6dbxcGkSg2K1RBHMF86XS+XxypIG+QIAYezYu2jdkEXH41Os5T6OMl4vwVHmIIc6JcH1upJqgp1UEEVENYcYgAEO6SpUoIUYmJKoUqTBUpkxSKwn7OZZLJ2gwWfmRzJKyZs0aVloHRgEBIAAEgACLCIwYMaJ69eoVmASuKItiHDzThQaNxJ301kinhSM6bCEfjVfqT0ZwOQJ5OnE2Tx2BOwZcabqpnPwMeRCHG67S4f6QgXS6aG98rTLYlbdOQ/O4aIGQuA1cSRJRMumPUXM/xZ8yjiagkocfEk6dV4QqhzAxSynywsMx5aRriuk0iUp5qNFlUoYKJfEq9VE5fg29mRjGjLI0pB1VKSMJfydSqQoXiqcR6YSMrg7uHXGC5GmEM6xPkeIumhcjuxPGMnGOYdiqVasQQsePHzd1bZX+F8S53Xf/rVu3EEJff/213bWkmGe3UZzLs6gGEZnMwvAJbM4IKTlnS5zTq0IZ085k3Dsl5/DyqUcthmFZcp45hD5N6s4I/CYnnOmJSShxjmHk+iJiFbdZvVuIcwxLjrCU4sTjjybO06ReiDNfTYwWkK1Lk1pka8+S85jSmlyUxactbUpb4+FBXwZP3GIceNarRMTgKq1SCqO1D+lS/J1AYTGoxbgUpwVrkUEB7mIVNeRhHDbmRpykXqV6JR6RRAu4IhruEWCeDDcFIPBM3Uo2nIoFMKjnM0swvoro4tygDucg+huRyCWDUARtgFpHjOD4RZCvW7zFWrk/YtxlDQPbjr1586ZGjRpDhw5lm2FgDxAAAkAACLCNQKtWrXr06MEqq4px8Iw26hOFlLulTxTibotxfJ/ZiBylgMOhz1GnxfhxkJP4KOl+GNJWchk35qlEzojjKyPncPCS6f6M0XsxTeHgjgrlhGCYQR0RZHJ+ij+Vtg53mhg3Mk22+GY4KeYgP1km7TDps3lJ0ihfkHCZnILlGSYP03AS98XosyxMcU6URrpnHAE5b6TPStMSVLSxPNznMRWFD1rgNiAOfU0oUaPZ96NZV1Efk5OTEUKrVq2qKANYVS+Ic1Z1x4cYQ8a079u370NurtB7inl2mwPCiSeg+T9+S8nBUbPRaeu4yMscDUUWaBbnCQKEuBJzyLdemWjUccTYJ13UYcZxRGry1hTWbqrMNE9rTt5eRJwTDzuGKmYeId9AEcw8+hbZ2nW4zYzJdvIZbX6GEm8XZiEkMQ98LNkUYE9BMNlfzL95KhGHPmJNFEV/mZFqn34EIwUw7ZVmOaZrhMlAgZHSGvnFkuH2elUohza8bTEqjFtLvIro4jxNgs+U0+slhTdtUKAkthVDgm2HBw8eXKtWrbdv37LNMLAHCAABIAAE2ENAp9OxLaadXBiIe2/U0D+DV5rUi/7iJgfrGfMl5OWEEhbTJzQYxRD+icmpYJwhvuBz8vSJDTzanAjANM7Sp0o4zKRuaYkqYwBq8adIz4Sh+YvWbD5C1MiRMIP2yfkMZA4WYPqK+N2kL0ejV6w4X0qbnsDv1OCeEl2H4weNhM0RB+wT53///TdCKDAw0AyvCn8CcW73nR8RgU/YXrhwwe5a8l5xTntwFxh0mWrjHmDOfPr6anOTdRqFaeG0WZcaE7zje12oiYAi6npjbjmz8Kc+mbUfbeacuM+ULt4Um11acW5lctgkQc2N1R/GZ74ZrxPiGWp+/WTJjUnkKZNNH/CGm8Q5faSZavV7P+i1R01rohhSvIhcL4kALvqmIcZucUtpLxvSHn0WvqydWIRv5mAiwxDnRJQBfUiFfNHS39wlGDh4LwX2nPz6668RQrD5J3t6BCwBAkAACLCQQHp6OkIoIiKCVbYV4+DhNhqSIpzCGYrbmCsnWEnF4xFtsfJCZ7TRmqdhvoCMBDQ5SPR/TTMHxkkXpwCJkgybN99c7CmjOH9/Wh+qHCvTG/g57W58zaPZHSrakJKLcwufyiIc0mQJMQ9Em/ghajQbYLqsYv9t1KiRj49PxdrAktpBnLOkIz7cjNOnTyOEVq5c+eFFVNCdxTy7yXlghk4jDczYTCywQVRoNHFYp5ZOcHUNkChStBnEGm+zOMcwDE+cRi54JtKYmR78xOPVrMOtArAU5xhGrBinkreXVpyTrxnLdlmOhpKh2rRXFCHXiVlx0krikcpoI8N6cnqZKe8ZFxT9gqdL4bn5CWNUGXlqfKTn44jzomuciHxyruQ2oeoi+72Tr0B6S4kIfxoKcjCYxso0Ls7oWUvCRQGw8oizs7OrqysrTQOjgAAQAAJAgEUEatas+eWXX7LIICL2kKE/zcYZM+PQ1bLpM9O7szYTYC4GsxqjRztP6FuTDqcdZ3zE/R9iuTZyGiZWMvIKWT9Fhjcy19MxSmR8ITX2aIVFgl7LiEgbinNSdVtOpxt3OzLTYJ84z8rKQgjNnTuXAbCqfgFxbvc9X1hYWLt27UGDBtldS0orzrEiC6qJlczciKPGQCSyQLqcMzLRZyjmEY9f0yIfIlbKUidbALQizjHMtHaaK0lRWW6lVvTxyjhCinM/06JrY21FpaM2QeiEPEQJZL43PMudaa6euIUYFjU/YS2MNkWPI4ZktbyI9t2YOMSUybPoPHnRI1YGsy1bwWi4qTbiILWGCk+zxxHITWlXLUuwEtZOZsLD09cRefWJ9HWm1VamOkpgm+lSNv9748YNhNDMmTPZbCTYBgSAABAAAmwg0KtXrxYtWrDBEsqGYhw8DEuXelhZXm5QzycyvDJm1K17TVQVxhF/Rh4f80nSY+RYTCzTzps/UrM4HIF5IxvydNFT5IpxRJ8nMJdk+UmnxFcqMjLjEJcQ7pA5IrKoy/TBM+d4QD5CRYYDyO4wx1QSNbJq5jwhIeG/2w/t2rXLkmGV/A7ivDJ0++jRoxFCP/74o301pphnd7Ez5ximwed1qSXZZG4P2nPZQpzrEhT0tThkHBG5yIcctuQWSWmu3a2glgZZFed4WvZkIoM6h8NhrH+2NohLPnCNudzIsHZaWBHRW0VFKVaglYfxhcT+cPgOcHHMHcjISC3aSntjp2cpFKnER+Obg5bOtOjPIlulJC4mYsno4wVFpXjRIyUQwETDKR1O1k+EAHAikogUKISR5jdT0VXrVsU5humTJMIJ5MZvRXZfw6spgW1FabDvyODBgxFCiYmJ7DMNLAICQAAIAAF2EQgLwzdl3bNnD3vMKsbB0yuDTW6Aha1G18WUrY04S2ZfY2TAxY/rlAmEp2acsLGcaDGkKIm140RWGo7InM6WrDFfrSAzw6coFDlmIwzJER5UDrb3nMJM4wjv2wXGoEkgl68XWexNVEjAocl7G4pzIxMGRtM6QdpB9olzf388ee/Vq/Sticy9U9U+gTivDD3+5MkTFxcXhNDJkyftqD3GZ7flA65YcW7c0owKaydHFmlTxBkx+HJsAbmzGh5VJTDn2zAl2DAeMSbt5AhiTXPGGKZPlQpjKG1u3OfcKk+TJYzwaYwYsKQSkOL7Va4hN7qgZ6FDyD1CQ8uiaUwIZw6m0imD3qurTXPjnCA5zfQ06TQZZbrRPC+JxhTGz2hFtkoSoyGzhBJDA7Q3BPlYpycvIY8wAt2LE8A0kU8+92njJhhGZEChxhRI9b6GMlmvwl0LjoQcXyDMJWyjrznH8J3zaN3NaJTxS3G2Wb68rd3LlmMiEZ53YOHChWwxCOwAAkAACAABFhN49OhRw4YN27ZtW1hYyBIzrTt46VJusau1jWnSaE4UPs2O79ODzAGSWIFOtZQvSSFdGDyzLO460Nwh/VW5MNiYdN24lN0rwpTnDcMKtMp5EUa5niJhztDgzqdxUuE9pzAiiA/f6owjoG2jQ8NuSIuRUBHy+sMiy0zpmAF3eOhuVUnFudHLMuTocOeO9IEtXWgMz5SMEHelORk8hmXI/BFjjINl4nznzp0IodmzZ9MwVumPIM4rSff//vvv1atXb9GiRUpKin00qcC4MThyF5ufm4RCJhQtQ00Z8jJUpqXjgnhq8Q45JMnhhStURxWSYKE4DL/VY75CsUaWZsDVNf5MT8zAt7gs0KsjuchLQgljU4A6QhxXP38/PzcO/SxWoFOGclCAXFtgFSe5uRpTnBsFP1cUp1InysWhEnUCMdPP4YnXyclIbE0k8aLxEslTtHq9VhMj5uGPeMTFm0A8SfGodY4fvn+4Wp1k/L8mU2egm2FKTYeb7uvn5+vKMe9zbrRWmygitp7zE8dptHrjfh0GvVYTJxauMWt24xYmXkJZoloZIxLOFxNbuvOliTJpIr5YQJ+EjyUj9wg1pfP1KnxTDsSTXTUWi0/1ExlQ+XGmriGf+4hr3Iy9QJ8WiwexmzeKN+6CxhXGKNWJMlGwWExsWs5fp5StUeIVFy0TI3bOc+aL45QUGXVSGtU6vOVG2/zM28IXZMjwjd85pp1XrPYmiw5GR0fjsSF8PotsAlOAABAAAkCA3QQ2btyIEFq6dCkrzLTm4Bny8GV6KMC8YRjD1AK9Eh+jN0pxk3thSIvBd+nG3+Jufn7+fri7Q99KNkdFbAn+34BoJ66/n5+XE6J7Gpgxrxt+2svPz5+Ln6Z8SNxR4QhiNMY90nfTvJT3nCKN1qdJR+B2OQVIVZSHhmcvVkmDRWZXB79Yp8J3AubwVqp1uCNnwN0zZyGl3jEMMyZUClOZ/ayjhJ81TJZh8v3IwQ5umFyVKBETvpbRPeOICJ+JxtKQJsNt44riiRmcAr1mHc/J1+z94hnpiAxNxbu4tNI+/sdHjx61adOmSZMmej0F4OPXyu4aQJyzu39KY92ePXuIJxjasGFDae6rgGvJSVHSWtN/JRpyFND0nfkvrkKF8+WqLMafriFTLnTj4A/lYBke/J2jFDojp2ESNbEpty5eiD+s8QtwGcubrzBPNRONNmQqJROINOHkWdOEtqV51tcsaRVBTHGOYYZ0mYCwhxcqx+1JkXDcBNKjxOiAETOZfQ0fSHUdIVZkGjSRTrxQmSrT1K58jcSXfBNZAPAzDRUTBeVnKCMFRtOJcqz0Yl6GKkbEx6U7AcDNjx8qswCIYXrRAhZyAAAWjElEQVR1JM8Jf+3xxIlaDDOkrfHjcFyFcRkGU2A5ZQc/XmccC6cORWqMi76oI+RgMCHO+ZtVivl44UQHSdXGzAAmECclPGeyX5TaAsyQKsUrnka8ti1+CaYBZmI1PlWT+YNTsBIfFTCOCJiOF7XNej9aIVchhx4+fDh27Fh8JMTd/fnz5xViA1QKBIAAEAACdkqgX79+CKEVK1ZUrP2WHhT+TpZomC9oy7w5Fi99ZmJaXZJU6IW7Ek5eQkki7pww/qfPUMwnNnzhuPJCZcRECP28XhMjwp0N4nbGdj8pEnx6gyjZ0kt5zylz2QZdikIS7MclCidGB4SSeA2hwM0XEZ/0GYkSsgnImSuMVNJ8UTLcz+S3IL4ip+gRooz8NFmAE0JOfGJ+xQKyJc8CnTpGxCO8X3x1ZAw5LkBaZVE+Iz7Rwu5y+Pr48WMvL3ySSiaTlUN19lIFiHN76akS2Xnu3LnOnTsjhMaPHw9DUCVCxrqLDJqVYkWmLiPFPHOujJNGTPPjFBsMxro2kDrZ8m1RdjOzFeKVal12mnnm/KhCtkbMd0bmNCdlr6UiSjhy5IijoyNCaPr06e/evasIE6BOIAAEgAAQsGMCer2+T58+CKFVq1bZcTPA9CpDQK/Xc7l4lCf8Yi36HMS5BRC7//r69WuhUIiPETo5bdu2ze7bU8UaoI3jixJNs+iMtmvloXJT1DjjBBu/kDPn8cy58jIamq+O8JVSi9QZhSVF2K84z87OJheZ165dOy4ujtEu+AIEgAAQAAJAoMQEnjx5Qqodtm17XuIWwIVVhUB6enrfvn3ZEOvBQuIgzlnYKTYwafv27Q4ODgihTp06gcdvA6DlUwSRrZSRxM5Urz5ZIjYlujMdY/G/hDinJ2Mvs60GdTgH+ZvXX5kLLNAq5knpmU/Mp9j9KScnZ86cOWQ026BBg65fv85ue8E6IAAEgAAQYDuBR48e+fj4IIS8vb0vX77MdnPBvipJICYmhnR+oqKiqiSA/9FoEOf/A5D9nn716pVEImnYsCFCqFu3bqzaY8N+qX5cy/NUInzxEsd1glgWrzIGbx9VSEN5gnX2JD8/Rq6RtBhip3pnnmipXGlKlaeMEwtGiFXmXPcft39sVfr9+/e//fZb8s3k4+Nz5MgRW5UM5QABIAAEgAAQWLJkCfmKgaW88GNgFYH79+8HBOA5hF1cXE6dOsUq29hjDIhz9vTFR7EkPz9/2bJln332GULI2dl5+fLlt27d+ig1QaE2IVCgU8eJhbQsbkXT4Nmkno9WCLkTHukV4P+V2G73AP1VpTSUb06+EiCSWk++8tEaV+aCjx8/PmnSJJIOl8tVKpVlLhIKAAJAAAgAASBgSeDEiRMdOnRACA0cOPD06dOWp+E7ECh3Aj/88AM5ZRgSEvLq1atyr99uKgRxbjddVRZDnzx5smTJki+++IJUBTweLz4+viwFwr1AAAiUnIBWq42MjCT9JISQv7//vn37Sn47XAkEgAAQAAJAoLQEDAbDrFmzSMdvzJgxqamppS0BrgcCNiGwdetWUoN07Nhx165dNimzEhcC4rwSd66Vph0+fHjcuHHkk9rBwWHevHnJyclWroNDQAAIlJnA06dPFQrF8OHDyb+41q1bL168OCMjo8wFQwFAAAgAASAABEpE4Nq1a1TE1tSpU2EheomowUU2IrB3795u3bohhJo1a8b+nZ5t1OiyFgPivKwE7fH++/fvS6VSd3d3UjM0b948JCQkMTHx9evX9tgcsBkIsIpAVlbWxo0bBw8eTP59IYTGjh3766+/sspIMAYIAAEgAASqDoHz58+PGDGCfCsNGzbswIEDVaft0NLyJ3Dv3r3IyMg2bdr8d6e0WrVqLV++HCRGyXsBxHnJWVXCK8+fPx8REeHh4UE+r2vWrDlq1KjY2Ni//vqrErYWmgQEPiYBjUazZMmS7t27k39NNWrUGDVq1LZt23Jzcz9mtVA2EAACQAAIAIESEUhKSpo4cSL5kmrfvv0PP/yQl5dXojvhIiBQMgK//fbb5MmTyd9Y27ZtV6xY8eDBg5LdClcZCYA4h58CTuDmzZsbNmzw9/cn/5wQQp6envPmzUtMTIQHN/xEgEBxBK5evbp58+YJEyY4OjqSfzvNmzcXCoWJiYmQ7KQ4aHAcCAABIAAEKpBATk7OsmXLqNdWYGDg/v37CwoKKtAkqNreCdy4cWPlypWenp6kLzRkyJCEhAR7b1RF2Q/ivKLIs7RevV6vUCgEAkHz5s0poe7h4TF79uxffvnl/v37LLUbzAIC5UXg0qVLmzZtGjduHP1vpEePHosWLTp37lx5WQH1AAEgAASAABAoEwGFQjFw4EDS2atbt+6kSZMOHjxYphLh5ipGQKvVRkdHc7lc8lfk4OAwa9as9PT0KobBxs0FcW5joJWpuGvXrm3ZskUgELRq1YoS6l26dJk5c+aOHTsgp0hl6mtoy3sI6PV6tVodHR3N5/MdHByov4VevXqJxeJff/318ePH77kdTgEBIAAEgAAQYC2Bu3fvbtiwwdvbm3y7NWjQYOrUqQkJCXq9nrU2g2EVS+DKlStr16718fGhfjPBwcFHjhypWKsqTe0gzitNV37chty4cSM2NjYoKIjajw0hVLdu3X79+s2ZM2fXrl1Xr179uBZA6UCgvAg8f/78zJkza9euFQgELi4ulBpHCHG53AULFhw5cuTp06flZQ7UAwSAABAAAkDgoxO4ffs2fRYUIeTt7R0ZGZmSkvLR64YKWE/gyZMnCQkJ06ZNo4RAnTp1Jk6cmJiYyHrb7cxAEOd21mFsMPf27du//PJLeHj44MGDmzZtSkmXevXq+fj4zJs3b8+ePf/3f//38uVLNlgLNgCB/0kgNzf39OnT69evDwoK6tSpE/WTRgi5uLhMnDjxvyPEZ86cyc/P/59FwQVAAAgAASAABOyawK1bt7Zs2TJmzJj69euTL0QHBweBQBAXF/fHH3/YddPA+FIRePPmzW+//fb999/379+fco06d+48d+5clUr15s2bUpUGF5eQAIjzEoKCy4olcOvWrf379y9cuHDQoEGNGzem/noRQu3btx85cuSiRYt2796dmpr64sWLYkuBE0CgvAj89ddfp06d2rhx44wZM7y9vekDTAihDh06jB8/Pjo6Wq1Ww/R4efUJ1AMEgAAQAAJsJHD27NmIiIhevXpR3l3z5s35fH50dPS///3vd+/esdFosKkMBO7du3fgwAGxWNynT59q1aqR/d6gQYOxY8du3br19u3bZSgbbi0RARDnJcIEF5WcwM2bNxMSEr7//vvAwMAuXbpUr16deqAjhNq1azdixIgFCxbs2LHj3LlzsGdbycHClR9A4PXr1xkZGf/617/Wr1//9ddf9+vXz2L8qGnTpt7e3tOnT9+4ceOpU6dg9fgHQIZbgAAQAAJAoNITuH///r59++bMmdOzZ0/Kr6tRo0b//v0XLFhw4MCBW7duVXoIlbKBL1++TElJ2bJly+TJk9u3b091roODw8iRI1etWnX27NlK2XDWNgrEOWu7pvIYdv369QMHDkRGRo4fP75bt241a9ak/vIRQnXq1HFzcxs5cuTcuXM3bdqkUqkyMzMhVKbydH95teTRo0cXL17cu3fvihUrhELhgAEDWrduTf+lIYQcHBx8fHxCQ0NjYmJOnz4NO5CXV+dAPUAACAABIFB5CLx8+fL06dNRUVE8Hq9Ro0bUq7ZBgwY+Pj6zZ8/+6aef/vOf/4Avx84uz83NPXbs2A8//DBhwgSLpXyurq5Tp07dvn37tWvX2Gl8VbAKxHlV6GXWtTEzM/PXX39dt26dSCQaNmxYx44da9SoQT3cyQ9t2rTx9fWdOnXqd999Fxsbq1KpLl++DBObrOvL8jWosLDw7t27Go3ml19+Wb9+vVgsHjdunKenJ905IH8/jRs39vT0DAwMDA8P3759u1qt1ul05Wss1AYEgAAQAAJAoPITuHz58o4dO+bOnevr62sRntatW7fJkydLJJKEhIRLly5BNqLy/zXk5uaePXs2Njb222+/5fF4LVu2pPvbHTp0CAgIkEgkR44cefDgQfmbBzUWJQDivCgTOFIxBLKzs9VqdWxs7KJFi8aNG9ejR4+iigsh9Nlnn3Xs2HHgwIFTpkxZvHjx5s2bDx8+nJaWdv/+/cLCwooxHWq1KYEXL15kZ2cnJyfv3bs3Ojp67ty5Y8eO9fLycnR0pL9RqM/kOE5ISMjKlSv37dt38eLFR48e2dQiKAwIAAEgAASAABAoEQGtVnvw4MHly5ePHj26bdu21Mua/ODk5DRkyJCwsLBNmzadOHHizz//BOetRFhLcNGzZ8/S09P3798fFRUVFBTUu3dvC0e6Vq1avXr1mjZtmkwmS05Ofv78eQlKhUvKmwCI8/ImDvWVioBer7969eqxY8fkcvny5ctDQkKGDh3q5uZm8bihHv0ODg6dO3f29fUNDAwMCwuLioratm3bwYMHz58/n5WV9ezZs1LVDhfbnEBhYeH9+/evXLly+vTp+Pj4DRs2LF68OCQkZOTIkV5eXm3btq1Xrx7Vm/QPjo6OvXv3HjNmzJw5c6Kjo/fu3Xvu3DmtVgtRczbvIygQCAABIAAEgICtCDx79iw1NfXnn3/+7rvvxo8f3717d4sXfbVq1dq0adO/f/9JkyYtXrx469atR48evX79OuyQUlwX5ObmXrhwISEhITo6OiwsbNSoUR4eHhYxCwihli1b+vn5zZgxY926dSqVKisrq7gC4TirCIA4Z1V3gDGlIPD8+fPMzMxTp07t2LEjKipKJBIFBAT4+Pi4uro2adKEruvon+vUqdOmTRt3d/cBAwaMHj166tSp33zzTVRUlEwm+/nnn1UqlUajyczM1Ol0r169KoU1VfvSZ8+e3blz59KlS2fOnDl48GBcXNzatWuXLFkya9asiRMn8ni8Pn36uLq6fv755/S+oH/+9NNPHR0du3fvPnTo0MmTJ4vF4nXr1iUkJJw/f/7OnTuQD7Zq/76g9UAACAABIFCpCNy9e/fUqVM//vjjvHnzxowZ4+npadVDaNq0adeuXf39/SdNmiQWi9esWbNr167jx4+np6fn5uZWVt8gPz//1q1b58+fT0xM3LJly/Lly0NDQ/l8ft++fZ2dnWvVqkV3nxBCNWvWbNeuna+v75QpU5YtW6ZQKFJTU2FW3H7/YECc22/fgeXvI1BQUHDv3r309PQTJ07s2bNn7dq1CxcuDA4O/vLLL3v27Ons7Ny0aVOLTPIWDzuEUN26dVu0aNGxY8cePXr4+PjweLxx48ZNnTo1LCwsPDx8xYoVGzZskMvl+/btO3LkyJkzZy5evHj9+vWbN29qtdqcnBydTvfo0aNnz569ePHizZs37Ancevfu3atXr/Lz8/V6/cOHD3Nzc+/cuXPr1q0bN25cvnxZo9GcPHkyMTFxz549W7ZsiY6OXr58+bfffjtjxoygoKDRo0cPHjy4T58+Xbt2bdeuXQkxtmzZ0s3Nzdvbe+zYsTNnzly+fPnmzZsPHDhw7ty5GzduPHny5H19CeeAABAAAkAACACByk7gxYsXmZmZJ06c2L59+5IlSyZPnjxgwIAOHTo0aNCgqIdGHnFwcHBxcfHy8ho6dOiECRNCQ0PDw8NXr169bdu2/fv3nzhx4vfff8/IyLh9+3ZOTs6DBw+ePn368uXLt2/flgPLN2/e5OfnP378WKfT/fnnnzdv3rxy5cq5c+cOHz68e/fumJiYyMjIb775ZurUqXw+39fX18PDw8nJySKsgGr4J5980rx5c3d39+HDh4tEotWrV+/du/f8+fOw7VE5dGU5VwHivJyBQ3XsIkCf8k1MTLQ65dulS5e2bdt+/vnndevWpZ6SH/ahRo0aderU+cc//tG4ceNmzZq1bNnyiy++cHZ2dnV17dq1a/fu3Xv37t23b98BAwb4+/sPGzZs5MiRfD4/MDBw0qRJX3311bRp02bMmCEUCidPniwQCAICAkaPHj18+PAhQ4YMHDjQ29u7T58+PXv2dHd3d3Nz69ixY7t27Vq3bt28eXMHB4eGDRvWq1evVq1an3zyyYcZT95VvXr1Bg0atGjRokOHDt27dy8agKBQKCAAgV2/crAGCAABIAAEgIA9E3j58mV2dvaFCxcOHToUGxsbFRU1a9asgIAAb29vNzc3R0fH4jRtcQ5PjRo16tat26hRo2bNmrVq1crZ2blTp04eHh69e/fu37//oEGDeDzeP//5z8DAwKCgoJCQkOnTpwcHB0+cOHHs2LEjR44cMmSIr69v3759PT09u3bt6uLi4uTk1LJly6ZNm9avX7927drUDuHFGUA/Xr169SZNmrRr165Hjx5Dhw6dMmXKggUL1q5d+/PPP586derKlSuQqs2ef7ylth3EeamRwQ1VmUBhYeHz589zc3OzsrLS09OTk5OPHTt24MCBnTt3ymSy1atXL1u2bPHixfPnz583b96sWbNILT1lyhS6lh46dOjAgQN9fHxILe3h4eHm5ubi4tKuXbs2bdq0aNHCwcGhUaNG9erVq1279vun92vWrFmnTp369es3adKkWbNmjo6OX3zxRfv27Um136NHj969e/fr14+u9seMGUNX+zNnzpw9e7ZYLF60aNGSJUsiIyPXrVu3bds2hUJx6NCh06dPX7hw4dq1a9nZ2Xl5eQaDoSr3PrQdCAABIAAEgAAQYCeBN2/ePHz48ObNmxcvXjx58mRCQkJsbOzq1auXLl26cOHCuXPnzpw5MyQkJCgoKDAwcPTo0V9++eWgQYO8vb29vLw8PDw6d+7cvn371q1bczicxo0bf/bZZxZb/5Jyulq1arVr165fv37Tpk1btmzp5OTUsWPHrl27enp69unTZ8CAAUOGDBkxYsSYMWMEAsFXX301ffr0sLAwsVi8ePHi5cuXb9iwYdeuXYcOHfrtt98uX758584dSIfEzp9TBVoF4rwC4UPVQKBEBAoLC1+/fv33338/ffr08ePHz549e/nyZUFBQYluhouAABAAAkAACAABIAAESk+gsLDw1atXz549e/z48d9//w05aEuPEO4oNQEQ56VGBjcAASAABIAAEAACQAAIAAEgAASAABCwLQEQ57blCaUBASAABIAAEAACQAAIAAEgAASAABAoNQEQ56VGBjcAASAABIAAEAACQAAIAAEgAASAABCwLQEQ57blCaUBASAABIAAEAACQAAIAAEgAASAABAoNQEQ56VGBjcAASAABIAAEAACQAAIAAEgAASAABCwLQEQ57blCaUBASAABIAAEAACQAAIAAEgAASAABAoNQEQ56VGBjcAASAABIAAEAACQAAIAAEgAASAABCwLQEQ57blCaUBASAABIAAEAACQAAIAAEgAASAABAoNQEQ56VGBjcAASAABIAAEAACQAAIAAEgAASAABCwLQEQ57blCaUBASAABIAAEAACQAAIAAEgAASAABAoNQEQ56VGBjcAASAABIAAEAACQAAIAAEgAASAABCwLQEQ57blCaUBASAABIAAEAACQAAIAAEgAASAABAoNQEQ56VGBjcAASAABIAAEAACQAAIAAEgAASAABCwLQEQ57blCaUBASAABIAAEAACQAAIAAEgAASAABAoNQEQ56VGBjcAASAABIAAEAACQAAIAAEgAASAABCwLYH/Bwazr0K4tKMoAAAAAElFTkSuQmCC;" vertex="1" parent="1">
                    <mxGeometry x="-357.00009765625" y="5.999987792968739" width="1332" height="327" as="geometry"/>
                </mxCell>
                <UserObject label="&lt;table xmlns=&quot;http://www.w3.org/1999/xhtml&quot; cellspacing=&quot;0&quot; cellpadding=&quot;0&quot; dir=&quot;ltr&quot; border=&quot;1&quot; style=&quot;table-layout:fixed;font-size:10pt;font-family:Arial;width:0px;border-collapse:collapse;border:none&quot; data-sheets-root=&quot;1&quot; data-sheets-baot=&quot;1&quot;&gt;&lt;colgroup&gt;&lt;col width=&quot;100&quot;&gt;&lt;col width=&quot;432&quot;&gt;&lt;col width=&quot;139&quot;&gt;&lt;col width=&quot;100&quot;&gt;&lt;col width=&quot;118&quot;&gt;&lt;col width=&quot;192&quot;&gt;&lt;col width=&quot;100&quot;&gt;&lt;col width=&quot;100&quot;&gt;&lt;/colgroup&gt;&lt;tbody&gt;&lt;tr style=&quot;height:21px;&quot;&gt;&lt;td style=&quot;border-top:1px solid #000000;border-right:1px solid #000000;border-bottom:1px solid #000000;border-left:1px solid #000000;overflow:hidden;padding:2px 3px 2px 3px;vertical-align:bottom;background-color:#ffffff;font-family:Helvetica;font-size:11pt;font-weight:bold;color:#333333;&quot;&gt;Type&lt;/td&gt;&lt;td style=&quot;border-top:1px solid #000000;border-right:1px solid #000000;border-bottom:1px solid #000000;overflow:hidden;padding:2px 3px 2px 3px;vertical-align:bottom;background-color:#ffffff;font-family:Helvetica;font-size:11pt;font-weight:bold;color:#333333;&quot;&gt;File&lt;/td&gt;&lt;td style=&quot;border-top:1px solid #000000;border-right:1px solid #000000;border-bottom:1px solid #000000;overflow:hidden;padding:2px 3px 2px 3px;vertical-align:bottom;background-color:#ffffff;font-family:Helvetica;font-size:11pt;font-weight:bold;color:#333333;&quot;&gt;Logic Contracts&lt;/td&gt;&lt;td style=&quot;border-top:1px solid #000000;border-right:1px solid #000000;border-bottom:1px solid #000000;overflow:hidden;padding:2px 3px 2px 3px;vertical-align:bottom;background-color:#ffffff;font-family:Helvetica;font-size:11pt;font-weight:bold;color:#333333;&quot;&gt;Interfaces&lt;/td&gt;&lt;td style=&quot;border-top:1px solid #000000;border-right:1px solid #000000;border-bottom:1px solid #000000;overflow:hidden;padding:2px 3px 2px 3px;vertical-align:bottom;background-color:#ffffff;font-family:Helvetica;font-size:11pt;font-weight:bold;color:#333333;&quot;&gt;Lines&lt;/td&gt;&lt;td style=&quot;border-top:1px solid #000000;border-right:1px solid #000000;border-bottom:1px solid #000000;overflow:hidden;padding:2px 3px 2px 3px;vertical-align:bottom;background-color:#ffffff;font-family:Helvetica;font-size:11pt;font-weight:bold;color:#333333;&quot;&gt;Comment Lines&lt;/td&gt;&lt;td style=&quot;border-top:1px solid #000000;border-right:1px solid #000000;border-bottom:1px solid #000000;overflow:hidden;padding:2px 3px 2px 3px;vertical-align:bottom;background-color:#ffffff;font-family:Helvetica;font-size:11pt;font-weight:bold;color:#333333;&quot;&gt;Complex. Score&lt;/td&gt;&lt;td style=&quot;border-top:1px solid #000000;border-right:1px solid #000000;border-bottom:1px solid #000000;overflow:hidden;padding:2px 3px 2px 3px;vertical-align:bottom;background-color:#ffffff;font-family:Helvetica;font-size:11pt;font-weight:bold;color:#333333;&quot;&gt;Capabilities&lt;/td&gt;&lt;/tr&gt;&lt;tr style=&quot;height:21px;&quot;&gt;&lt;td style=&quot;border-right:1px solid #000000;border-bottom:1px solid #000000;border-left:1px solid #000000;overflow:hidden;padding:2px 3px 2px 3px;vertical-align:bottom;background-color:#f8f8f8;font-family:Helvetica;font-size:11pt;font-weight:normal;color:#333333;&quot;&gt;🔍&lt;/td&gt;&lt;td style=&quot;border-right:1px solid #000000;border-bottom:1px solid #000000;overflow:hidden;padding:2px 3px 2px 3px;vertical-align:bottom;background-color:#f8f8f8;font-family:Helvetica;font-size:11pt;font-weight:normal;color:#333333;&quot;&gt;src/campaign/interfaces/INudgePointsCampaign.sol&lt;/td&gt;&lt;td style=&quot;border-right:1px solid #000000;border-bottom:1px solid #000000;overflow:hidden;padding:2px 3px 2px 3px;vertical-align:bottom;background-color:#f8f8f8;&quot;&gt;&lt;/td&gt;&lt;td style=&quot;border-right:1px solid #000000;border-bottom:1px solid #000000;overflow:hidden;padding:2px 3px 2px 3px;vertical-align:bottom;background-color:#f8f8f8;font-family:Helvetica;font-size:11pt;font-weight:normal;color:#333333;&quot;&gt;1&lt;/td&gt;&lt;td style=&quot;border-right:1px solid #000000;border-bottom:1px solid #000000;overflow:hidden;padding:2px 3px 2px 3px;vertical-align:bottom;background-color:#f8f8f8;font-family:Helvetica;font-size:11pt;font-weight:normal;color:#333333;&quot;&gt;39&lt;/td&gt;&lt;td style=&quot;border-right:1px solid #000000;border-bottom:1px solid #000000;overflow:hidden;padding:2px 3px 2px 3px;vertical-align:bottom;background-color:#f8f8f8;font-family:Helvetica;font-size:11pt;font-weight:normal;color:#333333;&quot;&gt;1&lt;/td&gt;&lt;td style=&quot;border-right:1px solid #000000;border-bottom:1px solid #000000;overflow:hidden;padding:2px 3px 2px 3px;vertical-align:bottom;background-color:#f8f8f8;font-family:Helvetica;font-size:11pt;font-weight:normal;color:#333333;&quot;&gt;11&lt;/td&gt;&lt;td style=&quot;border-right:1px solid #000000;border-bottom:1px solid #000000;overflow:hidden;padding:2px 3px 2px 3px;vertical-align:bottom;background-color:#f8f8f8;&quot;&gt;&lt;/td&gt;&lt;/tr&gt;&lt;tr style=&quot;height:21px;&quot;&gt;&lt;td style=&quot;border-right:1px solid #000000;border-bottom:1px solid #000000;border-left:1px solid #000000;overflow:hidden;padding:2px 3px 2px 3px;vertical-align:bottom;background-color:#ffffff;font-family:Helvetica;font-size:11pt;font-weight:normal;color:#333333;&quot;&gt;🔍&lt;/td&gt;&lt;td style=&quot;border-right:1px solid #000000;border-bottom:1px solid #000000;overflow:hidden;padding:2px 3px 2px 3px;vertical-align:bottom;background-color:#ffffff;font-family:Helvetica;font-size:11pt;font-weight:normal;color:#333333;&quot;&gt;src/campaign/interfaces/IBaseNudgeCampaign.sol&lt;/td&gt;&lt;td style=&quot;border-right:1px solid #000000;border-bottom:1px solid #000000;overflow:hidden;padding:2px 3px 2px 3px;vertical-align:bottom;background-color:#ffffff;&quot;&gt;&lt;/td&gt;&lt;td style=&quot;border-right:1px solid #000000;border-bottom:1px solid #000000;overflow:hidden;padding:2px 3px 2px 3px;vertical-align:bottom;background-color:#ffffff;font-family:Helvetica;font-size:11pt;font-weight:normal;color:#333333;&quot;&gt;1&lt;/td&gt;&lt;td style=&quot;border-right:1px solid #000000;border-bottom:1px solid #000000;overflow:hidden;padding:2px 3px 2px 3px;vertical-align:bottom;background-color:#ffffff;font-family:Helvetica;font-size:11pt;font-weight:normal;color:#333333;&quot;&gt;52&lt;/td&gt;&lt;td style=&quot;border-right:1px solid #000000;border-bottom:1px solid #000000;overflow:hidden;padding:2px 3px 2px 3px;vertical-align:bottom;background-color:#ffffff;font-family:Helvetica;font-size:11pt;font-weight:normal;color:#333333;&quot;&gt;7&lt;/td&gt;&lt;td style=&quot;border-right:1px solid #000000;border-bottom:1px solid #000000;overflow:hidden;padding:2px 3px 2px 3px;vertical-align:bottom;background-color:#ffffff;font-family:Helvetica;font-size:11pt;font-weight:normal;color:#333333;&quot;&gt;8&lt;/td&gt;&lt;td style=&quot;border-right:1px solid #000000;border-bottom:1px solid #000000;overflow:hidden;padding:2px 3px 2px 3px;vertical-align:bottom;background-color:#ffffff;font-family:Helvetica;font-size:11pt;font-weight:normal;color:#333333;&quot;&gt;💰&lt;/td&gt;&lt;/tr&gt;&lt;tr style=&quot;height:21px;&quot;&gt;&lt;td style=&quot;border-right:1px solid #000000;border-bottom:1px solid #000000;border-left:1px solid #000000;overflow:hidden;padding:2px 3px 2px 3px;vertical-align:bottom;background-color:#f8f8f8;font-family:Helvetica;font-size:11pt;font-weight:normal;color:#333333;&quot;&gt;🔍&lt;/td&gt;&lt;td style=&quot;border-right:1px solid #000000;border-bottom:1px solid #000000;overflow:hidden;padding:2px 3px 2px 3px;vertical-align:bottom;background-color:#f8f8f8;font-family:Helvetica;font-size:11pt;font-weight:normal;color:#333333;&quot;&gt;src/campaign/interfaces/INudgeCampaign.sol&lt;/td&gt;&lt;td style=&quot;border-right:1px solid #000000;border-bottom:1px solid #000000;overflow:hidden;padding:2px 3px 2px 3px;vertical-align:bottom;background-color:#f8f8f8;&quot;&gt;&lt;/td&gt;&lt;td style=&quot;border-right:1px solid #000000;border-bottom:1px solid #000000;overflow:hidden;padding:2px 3px 2px 3px;vertical-align:bottom;background-color:#f8f8f8;font-family:Helvetica;font-size:11pt;font-weight:normal;color:#333333;&quot;&gt;1&lt;/td&gt;&lt;td style=&quot;border-right:1px solid #000000;border-bottom:1px solid #000000;overflow:hidden;padding:2px 3px 2px 3px;vertical-align:bottom;background-color:#f8f8f8;font-family:Helvetica;font-size:11pt;font-weight:normal;color:#333333;&quot;&gt;58&lt;/td&gt;&lt;td style=&quot;border-right:1px solid #000000;border-bottom:1px solid #000000;overflow:hidden;padding:2px 3px 2px 3px;vertical-align:bottom;background-color:#f8f8f8;font-family:Helvetica;font-size:11pt;font-weight:normal;color:#333333;&quot;&gt;4&lt;/td&gt;&lt;td style=&quot;border-right:1px solid #000000;border-bottom:1px solid #000000;overflow:hidden;padding:2px 3px 2px 3px;vertical-align:bottom;background-color:#f8f8f8;font-family:Helvetica;font-size:11pt;font-weight:normal;color:#333333;&quot;&gt;25&lt;/td&gt;&lt;td style=&quot;border-right:1px solid #000000;border-bottom:1px solid #000000;overflow:hidden;padding:2px 3px 2px 3px;vertical-align:bottom;background-color:#f8f8f8;&quot;&gt;&lt;/td&gt;&lt;/tr&gt;&lt;tr style=&quot;height:21px;&quot;&gt;&lt;td style=&quot;border-right:1px solid #000000;border-bottom:1px solid #000000;border-left:1px solid #000000;overflow:hidden;padding:2px 3px 2px 3px;vertical-align:bottom;background-color:#ffffff;font-family:Helvetica;font-size:11pt;font-weight:normal;color:#333333;&quot;&gt;🔍&lt;/td&gt;&lt;td style=&quot;border-right:1px solid #000000;border-bottom:1px solid #000000;overflow:hidden;padding:2px 3px 2px 3px;vertical-align:bottom;background-color:#ffffff;font-family:Helvetica;font-size:11pt;font-weight:normal;color:#333333;&quot;&gt;src/campaign/interfaces/INudgeCampaignFactory.sol&lt;/td&gt;&lt;td style=&quot;border-right:1px solid #000000;border-bottom:1px solid #000000;overflow:hidden;padding:2px 3px 2px 3px;vertical-align:bottom;background-color:#ffffff;&quot;&gt;&lt;/td&gt;&lt;td style=&quot;border-right:1px solid #000000;border-bottom:1px solid #000000;overflow:hidden;padding:2px 3px 2px 3px;vertical-align:bottom;background-color:#ffffff;font-family:Helvetica;font-size:11pt;font-weight:normal;color:#333333;&quot;&gt;1&lt;/td&gt;&lt;td style=&quot;border-right:1px solid #000000;border-bottom:1px solid #000000;overflow:hidden;padding:2px 3px 2px 3px;vertical-align:bottom;background-color:#ffffff;font-family:Helvetica;font-size:11pt;font-weight:normal;color:#333333;&quot;&gt;81&lt;/td&gt;&lt;td style=&quot;border-right:1px solid #000000;border-bottom:1px solid #000000;overflow:hidden;padding:2px 3px 2px 3px;vertical-align:bottom;background-color:#ffffff;font-family:Helvetica;font-size:11pt;font-weight:normal;color:#333333;&quot;&gt;1&lt;/td&gt;&lt;td style=&quot;border-right:1px solid #000000;border-bottom:1px solid #000000;overflow:hidden;padding:2px 3px 2px 3px;vertical-align:bottom;background-color:#ffffff;font-family:Helvetica;font-size:11pt;font-weight:normal;color:#333333;&quot;&gt;38&lt;/td&gt;&lt;td style=&quot;border-right:1px solid #000000;border-bottom:1px solid #000000;overflow:hidden;padding:2px 3px 2px 3px;vertical-align:bottom;background-color:#ffffff;font-family:Helvetica;font-size:11pt;font-weight:normal;color:#333333;&quot;&gt;💰&lt;/td&gt;&lt;/tr&gt;&lt;tr style=&quot;height:21px;&quot;&gt;&lt;td style=&quot;border-right:1px solid #000000;border-bottom:1px solid #000000;border-left:1px solid #000000;overflow:hidden;padding:2px 3px 2px 3px;vertical-align:bottom;background-color:#f8f8f8;font-family:Helvetica;font-size:11pt;font-weight:normal;color:#333333;&quot;&gt;📝&lt;/td&gt;&lt;td style=&quot;border-right:1px solid #000000;border-bottom:1px solid #000000;overflow:hidden;padding:2px 3px 2px 3px;vertical-align:bottom;background-color:#f8f8f8;font-family:Helvetica;font-size:11pt;font-weight:normal;color:#333333;&quot;&gt;src/campaign/NudgePointsCampaigns.sol&lt;/td&gt;&lt;td style=&quot;border-right:1px solid #000000;border-bottom:1px solid #000000;overflow:hidden;padding:2px 3px 2px 3px;vertical-align:bottom;background-color:#f8f8f8;font-family:Helvetica;font-size:11pt;font-weight:normal;color:#333333;&quot;&gt;1&lt;/td&gt;&lt;td style=&quot;border-right:1px solid #000000;border-bottom:1px solid #000000;overflow:hidden;padding:2px 3px 2px 3px;vertical-align:bottom;background-color:#f8f8f8;&quot;&gt;&lt;/td&gt;&lt;td style=&quot;border-right:1px solid #000000;border-bottom:1px solid #000000;overflow:hidden;padding:2px 3px 2px 3px;vertical-align:bottom;background-color:#f8f8f8;font-family:Helvetica;font-size:11pt;font-weight:normal;color:#333333;&quot;&gt;243&lt;/td&gt;&lt;td style=&quot;border-right:1px solid #000000;border-bottom:1px solid #000000;overflow:hidden;padding:2px 3px 2px 3px;vertical-align:bottom;background-color:#f8f8f8;font-family:Helvetica;font-size:11pt;font-weight:normal;color:#333333;&quot;&gt;57&lt;/td&gt;&lt;td style=&quot;border-right:1px solid #000000;border-bottom:1px solid #000000;overflow:hidden;padding:2px 3px 2px 3px;vertical-align:bottom;background-color:#f8f8f8;font-family:Helvetica;font-size:11pt;font-weight:normal;color:#333333;&quot;&gt;118&lt;/td&gt;&lt;td style=&quot;border-right:1px solid #000000;border-bottom:1px solid #000000;overflow:hidden;padding:2px 3px 2px 3px;vertical-align:bottom;background-color:#f8f8f8;font-family:Helvetica;font-size:11pt;font-weight:normal;color:#333333;&quot;&gt;💰🧮&lt;/td&gt;&lt;/tr&gt;&lt;tr style=&quot;height:21px;&quot;&gt;&lt;td style=&quot;border-right:1px solid #000000;border-bottom:1px solid #000000;border-left:1px solid #000000;overflow:hidden;padding:2px 3px 2px 3px;vertical-align:bottom;background-color:#ffffff;font-family:Helvetica;font-size:11pt;font-weight:normal;color:#333333;&quot;&gt;📝&lt;/td&gt;&lt;td style=&quot;border-right:1px solid #000000;border-bottom:1px solid #000000;overflow:hidden;padding:2px 3px 2px 3px;vertical-align:bottom;background-color:#ffffff;font-family:Helvetica;font-size:11pt;font-weight:normal;color:#333333;&quot;&gt;src/campaign/NudgeCampaignFactory.sol&lt;/td&gt;&lt;td style=&quot;border-right:1px solid #000000;border-bottom:1px solid #000000;overflow:hidden;padding:2px 3px 2px 3px;vertical-align:bottom;background-color:#ffffff;font-family:Helvetica;font-size:11pt;font-weight:normal;color:#333333;&quot;&gt;1&lt;/td&gt;&lt;td style=&quot;border-right:1px solid #000000;border-bottom:1px solid #000000;overflow:hidden;padding:2px 3px 2px 3px;vertical-align:bottom;background-color:#ffffff;&quot;&gt;&lt;/td&gt;&lt;td style=&quot;border-right:1px solid #000000;border-bottom:1px solid #000000;overflow:hidden;padding:2px 3px 2px 3px;vertical-align:bottom;background-color:#ffffff;font-family:Helvetica;font-size:11pt;font-weight:normal;color:#333333;&quot;&gt;299&lt;/td&gt;&lt;td style=&quot;border-right:1px solid #000000;border-bottom:1px solid #000000;overflow:hidden;padding:2px 3px 2px 3px;vertical-align:bottom;background-color:#ffffff;font-family:Helvetica;font-size:11pt;font-weight:normal;color:#333333;&quot;&gt;70&lt;/td&gt;&lt;td style=&quot;border-right:1px solid #000000;border-bottom:1px solid #000000;overflow:hidden;padding:2px 3px 2px 3px;vertical-align:bottom;background-color:#ffffff;font-family:Helvetica;font-size:11pt;font-weight:normal;color:#333333;&quot;&gt;146&lt;/td&gt;&lt;td style=&quot;border-right:1px solid #000000;border-bottom:1px solid #000000;overflow:hidden;padding:2px 3px 2px 3px;vertical-align:bottom;background-color:#ffffff;font-family:Helvetica;font-size:11pt;font-weight:normal;color:#333333;&quot;&gt;💰🧮&lt;/td&gt;&lt;/tr&gt;&lt;tr style=&quot;height:21px;&quot;&gt;&lt;td style=&quot;border-right:1px solid #000000;border-bottom:1px solid #000000;border-left:1px solid #000000;overflow:hidden;padding:2px 3px 2px 3px;vertical-align:bottom;background-color:#ffffff;font-family:Helvetica;font-size:11pt;font-weight:normal;color:#333333;&quot;&gt;📝&lt;/td&gt;&lt;td style=&quot;border-right:1px solid #000000;border-bottom:1px solid #000000;overflow:hidden;padding:2px 3px 2px 3px;vertical-align:bottom;background-color:#ffffff;font-family:Helvetica;font-size:11pt;font-weight:normal;color:#333333;&quot;&gt;src/campaign/NudgeCampaign.sol&lt;/td&gt;&lt;td style=&quot;border-right:1px solid #000000;border-bottom:1px solid #000000;overflow:hidden;padding:2px 3px 2px 3px;vertical-align:bottom;background-color:#ffffff;font-family:Helvetica;font-size:11pt;font-weight:normal;color:#333333;&quot;&gt;1&lt;/td&gt;&lt;td style=&quot;border-right:1px solid #000000;border-bottom:1px solid #000000;overflow:hidden;padding:2px 3px 2px 3px;vertical-align:bottom;background-color:#ffffff;&quot;&gt;&lt;/td&gt;&lt;td style=&quot;border-right:1px solid #000000;border-bottom:1px solid #000000;overflow:hidden;padding:2px 3px 2px 3px;vertical-align:bottom;background-color:#ffffff;font-family:Helvetica;font-size:11pt;font-weight:normal;color:#333333;&quot;&gt;491&lt;/td&gt;&lt;td style=&quot;border-right:1px solid #000000;border-bottom:1px solid #000000;overflow:hidden;padding:2px 3px 2px 3px;vertical-align:bottom;background-color:#ffffff;font-family:Helvetica;font-size:11pt;font-weight:normal;color:#333333;&quot;&gt;117&lt;/td&gt;&lt;td style=&quot;border-right:1px solid #000000;border-bottom:1px solid #000000;overflow:hidden;padding:2px 3px 2px 3px;vertical-align:bottom;background-color:#ffffff;font-family:Helvetica;font-size:11pt;font-weight:normal;color:#333333;&quot;&gt;201&lt;/td&gt;&lt;td style=&quot;border-right:1px solid #000000;border-bottom:1px solid #000000;overflow:hidden;padding:2px 3px 2px 3px;vertical-align:bottom;background-color:#ffffff;font-family:Helvetica;font-size:11pt;font-weight:normal;color:#333333;&quot;&gt;💰🧮&lt;/td&gt;&lt;/tr&gt;&lt;/tbody&gt;&lt;/table&gt;" id="7">
                    <mxCell style="text;whiteSpace=wrap;html=1;" vertex="1" parent="1">
                        <mxGeometry x="996" y="63" width="1294" height="214" as="geometry"/>
                    </mxCell>
                </UserObject>
            </root>
        </mxGraphModel>
    </diagram>
</mxfile>